<?xml version="1.0" encoding="UTF-8"?>
<svg version="1.1" xmlns="http://www.w3.org/2000/svg" width="512" height="512">
<path d="M0 0 C1.28920337 -0.00630794 2.57840675 -0.01261588 3.90667689 -0.01911497 C5.34062856 -0.02109856 6.77458039 -0.02297552 8.20853233 -0.02475739 C9.72945852 -0.03020453 11.25038327 -0.03606808 12.7713064 -0.0423131 C16.95749685 -0.05816636 21.14368145 -0.06768045 25.32989264 -0.07607794 C28.91921027 -0.08408252 32.50851209 -0.09577315 36.09781922 -0.10749274 C48.95789431 -0.14940737 61.81798801 -0.17661586 74.67810631 -0.20114899 C75.69359328 -0.20312389 76.70908026 -0.20509879 77.75533956 -0.20713353 C97.92925894 -0.2463118 118.10318456 -0.28000395 138.27713013 -0.30221558 C142.7131978 -0.30718471 147.14926538 -0.31222904 151.58533287 -0.31735992 C152.68786736 -0.3186306 153.79040184 -0.31990127 154.92634647 -0.32121044 C172.76487086 -0.34254547 190.60321038 -0.39151479 208.44164188 -0.45160407 C226.76839461 -0.51282732 245.0950522 -0.54741843 263.42190588 -0.55668879 C273.70656763 -0.56258788 283.99091662 -0.58022529 294.27547646 -0.62807465 C303.03976356 -0.66881354 311.80368682 -0.68550097 320.56806435 -0.67142183 C325.03430806 -0.66498433 329.49977803 -0.66957454 333.96590042 -0.70529556 C367.28279379 -0.9578783 367.28279379 -0.9578783 382.76404381 7.14260101 C385.22250847 8.15002538 387.70185374 9.05092938 390.20154381 9.95510101 C393.42442765 11.16110991 395.88772522 12.22505529 398.76404381 14.14260101 C398.96939078 16.71212499 398.99240826 19.0396706 398.88123131 21.59963226 C398.84814971 23.11980312 398.81561494 24.63998596 398.78357506 26.16017914 C398.71537189 28.55685816 398.63912617 30.95284536 398.55164146 33.34889984 C398.47288719 35.66165044 398.42542596 37.97349964 398.38123131 40.28713226 C398.34601372 40.99876022 398.31079613 41.71038818 398.27451134 42.44358063 C398.21827475 46.21033458 398.58212681 47.91278111 400.94470787 50.89748383 C403.6506076 53.05226855 406.35390324 55.03850972 409.25623131 56.91994476 C410.2913485 57.59863617 411.32646568 58.27732758 412.39295006 58.97658539 C413.464161 59.67074554 414.53537193 60.3649057 415.63904381 61.08010101 C417.76440692 62.45965489 419.88687799 63.84367597 422.00623131 65.23244476 C422.94321861 65.83951263 423.88020592 66.44658051 424.84558678 67.07204437 C425.8086776 67.75532806 426.77176842 68.43861176 427.76404381 69.14260101 C428.64785583 69.61078361 428.64785583 69.61078361 429.54952264 70.08842444 C431.88131656 71.57220403 433.21254495 72.83481558 434.76404381 75.14260101 C435.84457478 80.51486666 435.70066062 85.87104735 435.63947105 91.32405853 C435.64610472 93.0091676 435.65579733 94.69426694 435.66828561 96.37934279 C435.69365618 101.01008495 435.67530109 105.63978346 435.64979839 110.27048707 C435.6298678 115.26453451 435.65022611 120.25843834 435.66550255 125.25247955 C435.68894318 135.0369529 435.67475042 144.82102874 435.64756402 154.60547861 C435.61709729 165.99992607 435.62193068 177.39427612 435.62779143 188.78875276 C435.63686378 209.12244065 435.6110062 229.45593855 435.56677818 249.78957367 C435.52387462 269.5178303 435.50967832 289.2458466 435.52576256 308.97414398 C435.54323571 330.45322028 435.5449719 351.9321876 435.51917863 373.41125941 C435.51644551 375.70251257 435.51371916 377.99376574 435.51099968 380.28501892 C435.50963833 381.41236297 435.50827697 382.53970702 435.50687437 383.70121302 C435.49825602 391.64201002 435.50049548 399.58276174 435.50665092 407.52355957 C435.51370519 417.20516846 435.50246106 426.88655722 435.46814308 436.56811103 C435.45104418 441.50709391 435.44182668 446.44574782 435.45427895 451.38475227 C435.46543565 455.9089575 435.45338459 460.43249369 435.42304924 464.95660552 C435.41609316 466.59049594 435.4174839 468.22444847 435.42821118 469.85831848 C435.49852105 481.59857629 433.67289886 490.65796193 425.50623131 499.60744476 C418.67840243 505.62389488 411.88191328 507.29472137 403.01650429 507.27682209 C402.22750355 507.27917432 401.4385028 507.28152655 400.62559295 507.28395006 C397.9656138 507.29063935 395.3056835 507.29018186 392.64569664 507.28977203 C390.72578823 507.29307069 388.80588052 507.29679626 386.88597369 507.30091351 C381.59732156 507.31094121 376.30868078 507.31465154 371.02002048 507.31730282 C365.32117479 507.32120352 359.6223381 507.33078193 353.92349815 507.33951569 C340.15563617 507.35928533 326.38777345 507.36934632 312.61990082 507.37824348 C306.139676 507.38262501 299.659452 507.38799211 293.17922783 507.39323235 C271.64396999 507.41024408 250.10871346 507.42476428 228.57345009 507.43198109 C227.18076942 507.43245584 225.78808875 507.43293173 224.39540808 507.43340875 C223.70476292 507.43364512 223.01411776 507.4338815 222.30254396 507.43412504 C218.80338245 507.43532624 215.30422094 507.43654169 211.80505943 507.43776703 C211.11064036 507.43800718 210.41622128 507.43824733 209.7007592 507.43849476 C187.18154122 507.44638925 164.66237589 507.46982472 142.14318091 507.50232297 C118.33659274 507.53661642 94.53004182 507.55633058 70.72342753 507.55962533 C57.74522598 507.56179268 44.76710182 507.57057439 31.78892326 507.5960865 C20.73888284 507.61775797 9.6889386 507.62586138 -1.36112067 507.61611972 C-7.00055681 507.61156491 -12.63979432 507.61352992 -18.27920341 507.63288116 C-23.44102248 507.65044094 -28.60249697 507.6495736 -33.76431933 507.63398387 C-35.6324362 507.63159688 -37.50057648 507.6359876 -39.36865744 507.64781252 C-41.90787488 507.66289114 -44.44586499 507.65328746 -46.98505211 507.63758564 C-47.71051759 507.64780785 -48.43598306 507.65803005 -49.18343234 507.66856202 C-56.89571527 507.5644586 -62.99313506 503.92719187 -68.63048744 498.85744476 C-74.12504125 492.98856612 -76.35405017 487.3723818 -76.38858795 479.38430214 C-76.39292815 478.69010538 -76.39726835 477.99590862 -76.40174007 477.28067559 C-76.41515343 474.93721456 -76.42146233 472.59378759 -76.42782021 470.25029755 C-76.43596199 468.56010167 -76.44452479 466.86990778 -76.45347416 465.17971599 C-76.47682282 460.52151372 -76.49387459 455.86330619 -76.50986004 451.2050736 C-76.52810739 446.18656359 -76.55197281 441.16807964 -76.57496071 436.14958954 C-76.62912004 424.0246684 -76.67342599 411.89971901 -76.71600932 399.77475244 C-76.72809382 396.35203957 -76.74043541 392.92932773 -76.75286913 389.50661612 C-76.83000335 368.26548858 -76.90393511 347.02435254 -76.96829987 325.78318214 C-76.98326056 320.86213545 -76.99825389 315.94108885 -77.01329994 311.02004242 C-77.01890494 309.18532642 -77.01890494 309.18532642 -77.02462317 307.31354545 C-77.08577022 287.4841931 -77.16751118 267.65498071 -77.25766109 247.82574119 C-77.34979959 227.48205382 -77.42312522 207.13836659 -77.47803605 186.7945441 C-77.50936484 175.36623171 -77.54911059 163.93808057 -77.60997581 152.50988388 C-77.66174729 142.78057553 -77.69662761 133.05139533 -77.70914607 123.32195391 C-77.71606482 118.35519362 -77.73120705 113.38880857 -77.76806641 108.42217255 C-77.80159899 103.87847721 -77.81216233 99.33533836 -77.80417015 94.79153167 C-77.80537024 93.14481094 -77.81511154 91.49807053 -77.83409606 89.8514588 C-77.85861352 87.6178037 -77.85240733 85.38627904 -77.83837128 83.15258217 C-77.84276557 81.91062431 -77.84715986 80.66866644 -77.85168731 79.38907349 C-77.06010043 75.21539289 -75.48460432 73.79299183 -72.23595619 71.14260101 C-69.83614873 69.78352638 -67.46958376 68.53978138 -65.00158119 67.32619476 C-50.34709293 60.13679764 -50.34709293 60.13679764 -40.36333656 47.99318695 C-38.56452707 40.82467435 -38.93599432 33.53493342 -39.54357338 26.23220062 C-39.60672234 25.46404022 -39.66987129 24.69587982 -39.73493385 23.90444183 C-39.87564659 22.44788053 -40.05462218 20.99435936 -40.27689552 19.54799652 C-40.51696205 17.56813812 -40.51696205 17.56813812 -40.23595619 14.14260101 C-36.73835263 11.04590339 -32.8931219 9.4231137 -28.54064369 7.81838226 C-27.495214 7.42972992 -26.44978432 7.04107758 -25.37267494 6.64064789 C-24.29630775 6.24941742 -23.21994057 5.85818695 -22.11095619 5.45510101 C-21.02685463 5.05226898 -19.94275307 4.64943695 -18.82579994 4.23439789 C-12.28915262 1.8225447 -7.01034225 0.02145569 0 0 Z " fill="#F8DA2C" transform="translate(77.2359561920166,2.8573989868164063)"/>
<path d="M0 0 C1.05509766 -0.020625 2.11019531 -0.04125 3.19726562 -0.0625 C11.57958392 -0.1037668 18.66221066 1.61657022 26.5625 4.25 C26.5625 4.91 26.5625 5.57 26.5625 6.25 C27.4582373 6.39175659 27.4582373 6.39175659 28.37207031 6.53637695 C32.5058245 7.88311831 34.44289796 11.63381702 36.5625 15.25 C37.95271449 18.61999286 38.91088061 22.03386926 39.8125 25.5625 C40.06209473 26.49094727 40.31168945 27.41939453 40.56884766 28.37597656 C46.5042382 50.83357238 46.5042382 50.83357238 43.375 59.5625 C38.87661925 66.23251283 33.1584752 67.75240326 25.5625 69.25 C20.75051972 69.67474808 15.95387969 69.75965661 11.125 69.8125 C-6.95531285 70.06768476 -21.62761043 71.74221019 -35.19140625 84.78515625 C-48.54594366 99.44030948 -51.95794531 118.43128707 -55.4375 137.25 C-55.63649902 138.31589355 -55.83549805 139.38178711 -56.04052734 140.47998047 C-57.20389695 146.73130561 -58.32950136 152.98865752 -59.4375 159.25 C-58.14650391 159.2185791 -56.85550781 159.1871582 -55.52539062 159.15478516 C-50.70989189 159.04572354 -45.89450105 158.97713569 -41.078125 158.92041016 C-38.99851082 158.89034111 -36.91902238 158.84947384 -34.83984375 158.79736328 C-31.8408295 158.7241115 -28.84349938 158.69044472 -25.84375 158.6640625 C-24.92259399 158.63309479 -24.00143799 158.60212708 -23.05236816 158.57022095 C-16.26146692 158.56672497 -12.25903077 160.45627758 -7.4375 165.25 C-4.09776475 170.03144275 -3.92742845 174.41804638 -4 180.0625 C-4.01135986 181.30676758 -4.01135986 181.30676758 -4.02294922 182.57617188 C-4.36564977 195.73387188 -7.10331854 210.05396772 -16.1328125 220.14453125 C-23.02501676 226.49586746 -29.66543718 227.69475646 -38.74609375 227.54296875 C-39.71281509 227.53872391 -40.67953644 227.53447906 -41.67555237 227.53010559 C-44.74232649 227.51340522 -47.8084268 227.47576899 -50.875 227.4375 C-52.96288109 227.422442 -55.05077255 227.40875555 -57.13867188 227.39648438 C-62.23853815 227.36352999 -67.3379051 227.31180751 -72.4375 227.25 C-72.57736328 228.09965332 -72.71722656 228.94930664 -72.86132812 229.82470703 C-77.23237348 256.32856162 -81.83466524 282.7837001 -86.4375 309.25 C-117.7875 309.25 -149.1375 309.25 -181.4375 309.25 C-180.4375 296.25 -180.4375 296.25 -178.4375 290.25 C-178.00750893 288.14349127 -178.00750893 288.14349127 -177.8046875 286.1640625 C-177.72089844 285.46152344 -177.63710937 284.75898438 -177.55078125 284.03515625 C-177.47214844 283.32230469 -177.39351562 282.60945313 -177.3125 281.875 C-177.22613281 281.13894531 -177.13976562 280.40289062 -177.05078125 279.64453125 C-176.84068115 277.84700818 -176.63829233 276.04858658 -176.4375 274.25 C-175.7775 274.25 -175.1175 274.25 -174.4375 274.25 C-174.45425781 273.23164063 -174.47101563 272.21328125 -174.48828125 271.1640625 C-174.36819072 261.90785364 -172.50129251 252.81518697 -170.21875 243.87109375 C-169.4758812 240.42789687 -168.91656696 237.00553993 -168.38867188 233.52368164 C-168.21009644 232.34979385 -168.031521 231.17590607 -167.84753418 229.96644592 C-167.7122229 229.07001877 -167.57691162 228.17359161 -167.4375 227.25 C-168.05687439 227.25888245 -168.67624878 227.26776489 -169.31439209 227.2769165 C-210.89844281 227.83831853 -252.39332001 226.97060459 -293.95381165 225.51054382 C-297.7791855 225.37617024 -301.60461616 225.24350822 -305.43005371 225.11096191 C-332.12221796 224.18010621 -358.79680288 223.19312373 -385.4375 221.25 C-385.4375 220.92 -385.4375 220.59 -385.4375 220.25 C-367.04357323 218.87669954 -348.65025989 217.70752172 -330.23046875 216.7421875 C-327.75375988 216.61069472 -325.27706024 216.47902795 -322.80036926 216.34719849 C-317.67729971 216.07506084 -312.55414252 215.80466209 -307.4309082 215.53564453 C-300.87437001 215.19126736 -294.3180522 214.84287718 -287.76179028 214.49328423 C-282.67724412 214.22251608 -277.59260267 213.95357417 -272.50792885 213.685215 C-270.08823288 213.55733739 -267.66856359 213.4289539 -265.24892235 213.30004501 C-261.8863374 213.12122323 -258.52363485 212.94480339 -255.16088867 212.76904297 C-254.17341141 212.71608063 -253.18593414 212.66311829 -252.16853333 212.60855103 C-247.24986538 212.35408054 -242.3627276 212.19353807 -237.4375 212.25 C-238.0975 209.61 -238.7575 206.97 -239.4375 204.25 C-255.9375 201.94 -272.4375 199.63 -289.4375 197.25 C-289.1075 196.59 -288.7775 195.93 -288.4375 195.25 C-285.71732867 194.8548763 -283.0805458 194.58813386 -280.34375 194.3984375 C-279.5230603 194.33467926 -278.70237061 194.27092102 -277.85681152 194.20523071 C-276.11190877 194.07148295 -274.36664804 193.94233989 -272.62109375 193.81738281 C-269.97571465 193.62773955 -267.33166342 193.42458308 -264.6875 193.21875 C-262.98964425 193.09033788 -261.29172897 192.96270997 -259.59375 192.8359375 C-258.81213501 192.77659027 -258.03052002 192.71724304 -257.22521973 192.65609741 C-251.95018524 192.28248774 -246.72585096 192.2006929 -241.4375 192.25 C-242.13645596 188.42847614 -243.13624875 185.40778521 -245.4375 182.25 C-249.9197458 180.29990061 -254.61530362 180.01040779 -259.4375 179.5625 C-260.87099762 179.39441941 -262.30386189 179.22085986 -263.73608398 179.04223633 C-266.05695942 178.75346642 -268.37774527 178.46856331 -270.70103455 178.19981384 C-280.34694264 177.07616346 -289.91747191 175.48767913 -299.50024414 173.92538452 C-304.32262293 173.14106604 -309.14781538 172.37446512 -313.97265625 171.60546875 C-316.79434474 171.15410593 -319.6159249 170.70207124 -322.4375 170.25 C-319.24843279 168.43121114 -316.46074669 167.79642133 -312.83398438 167.30444336 C-311.68639648 167.1476561 -310.53880859 166.99086884 -309.35644531 166.82933044 C-308.09413086 166.66779984 -306.83181641 166.50626923 -305.53125 166.33984375 C-304.86919556 166.25466555 -304.20714111 166.16948734 -303.52502441 166.08172798 C-298.3329141 165.41806798 -293.13622508 164.79690261 -287.9375 164.1875 C-286.78122604 164.05042633 -286.78122604 164.05042633 -285.60159302 163.9105835 C-242.01627479 158.77317852 -198.26559913 159.01879224 -154.4375 159.25 C-154.20675781 157.99268066 -153.97601563 156.73536133 -153.73828125 155.43994141 C-144.05473275 102.98562711 -131.44098742 57.07547014 -86.35546875 24.23828125 C-61.07412653 7.01177095 -30.20861617 0.14709004 0 0 Z " fill="#3278BB" transform="translate(427.4375,200.75)"/>
<path d="M0 0 C4.49708779 0.02509186 8.99384269 -0.00837851 13.49087727 -0.03372157 C22.2606421 -0.07398314 31.02952458 -0.06121149 39.79929026 -0.02857014 C46.93523466 -0.00308513 54.07093835 0.00212053 61.20692074 -0.00663149 C62.73969095 -0.0084969 62.73969095 -0.0084969 64.30342621 -0.0104 C66.3802913 -0.01302537 68.45715633 -0.01570181 70.5340213 -0.01842872 C89.93220715 -0.04167876 109.32991079 -0.00478372 128.72799895 0.05379083 C145.32056763 0.1025659 161.91252308 0.10179746 178.50511372 0.06431615 C197.84610483 0.0206611 217.18674446 0.00632434 236.52776903 0.03908783 C238.59539027 0.04252443 240.66301156 0.04593101 242.7306329 0.04930723 C244.25599379 0.05183243 244.25599379 0.05183243 245.81217005 0.05440864 C252.92915812 0.06427253 260.04594527 0.05382457 267.16291058 0.03536451 C275.85090686 0.01346491 284.53815615 0.02452479 293.22603878 0.07594327 C297.64670278 0.10134006 302.06616565 0.11323382 306.48684132 0.08515584 C326.61577833 -0.03141525 343.25076679 1.44678675 361.76805317 10.29258764 C363.12247669 10.87506586 364.47965633 11.45121313 365.84053528 12.01844537 C368.76805317 13.29258764 368.76805317 13.29258764 369.76805317 14.29258764 C369.74248284 16.84027059 369.66233388 19.36905319 369.55711567 21.91368139 C369.37691317 28.51754256 369.34864591 35.09872937 369.65867817 41.69883764 C369.67905644 42.84267164 369.67905644 42.84267164 369.69984639 44.00961339 C370.01416346 49.27706487 371.54862321 51.86177335 375.3904134 55.45234716 C377.89174299 57.27591074 380.53189081 58.23985228 383.42088521 59.29747045 C388.02215141 61.24824651 391.99487198 64.26177434 396.08055317 67.10508764 C396.91054829 67.64641332 397.74054341 68.18773901 398.59568989 68.7454685 C405.7332055 73.50752273 405.7332055 73.50752273 406.76805317 78.29258764 C404.97824191 80.0823989 402.55648176 79.41626329 400.17314008 79.42359611 C399.36075961 79.4209691 398.54837914 79.41834209 397.71138108 79.41563547 C396.8525334 79.41678931 395.99368573 79.41794316 395.10881236 79.41913196 C392.19324078 79.42180634 389.27772298 79.41726976 386.36215413 79.41284215 C384.26589235 79.41327769 382.16963063 79.41415227 380.0733692 79.41543132 C374.28362218 79.41767978 368.49389346 79.41365024 362.70414877 79.40865326 C356.47166095 79.40435394 350.23917426 79.40579481 344.00668538 79.40655553 C333.1987186 79.4070811 322.39075924 79.40396563 311.58279431 79.39831769 C300.24343474 79.39240721 288.90407756 79.38855307 277.56471646 79.38746488 C276.50842332 79.38736177 276.50842332 79.38736177 275.43079093 79.38725658 C271.85475707 79.38691826 268.27872322 79.38661687 264.70268936 79.3863297 C239.35232397 79.38422748 214.00196172 79.37748509 188.6515981 79.36802709 C164.01911129 79.35884751 139.38662533 79.35176152 114.75413716 79.34751928 C113.99528828 79.34738775 113.2364394 79.34725623 112.45459511 79.34712071 C104.83414757 79.34580223 97.21370003 79.34452641 89.59325248 79.34328186 C74.0685573 79.34074542 58.54386217 79.33792417 43.01916707 79.33493078 C42.30531598 79.33479349 41.5914649 79.3346562 40.85598197 79.33451475 C-6.83999563 79.32530906 -54.53597138 79.30944253 -102.23194683 79.29258764 C-102.49024761 74.60459936 -102.49024761 74.60459936 -100.16554058 71.79649389 C-96.9841145 69.08105565 -93.72411315 66.61867118 -90.29444683 64.23008764 C-89.69954448 63.80920873 -89.10464214 63.38832983 -88.49171245 62.95469701 C-86.74540296 61.72369196 -84.98923747 60.50784216 -83.23194683 59.29258764 C-82.18393901 58.55266576 -81.1359312 57.81274389 -80.05616558 57.05040014 C-77.52378018 55.47422666 -75.86879482 54.72448877 -72.98194683 54.23008764 C-69.00632116 53.682878 -69.00632116 53.682878 -67.23194683 50.29258764 C-67.05093697 47.57356502 -66.97892836 44.94848519 -66.99366558 42.23008764 C-66.9782516 40.61289169 -66.96194839 38.99570402 -66.94483745 37.37852514 C-66.92835247 34.83048801 -66.91947321 32.28305677 -66.9265269 29.73497045 C-66.92914058 27.27431106 -66.90108165 24.81550051 -66.86866558 22.35508764 C-66.87887233 21.5925266 -66.88907909 20.82996557 -66.89959514 20.04429662 C-66.85963237 17.89024389 -66.85963237 17.89024389 -66.23194683 14.29258764 C-46.47999203 0.30361362 -23.09282376 -0.18627528 0 0 Z " fill="#F6C425" transform="translate(104.23194682598114,3.707412362098694)"/>
<path d="M0 0 C2.65625 1.48828125 2.65625 1.48828125 5 4 C5.69732009 6.99511582 5.64442773 9.93579831 5.625 13 C6.12644 32.05831463 12.94346973 47.06160277 26 61 C28.87983662 63.7193624 28.87983662 63.7193624 32 66 C32.79664063 66.66 33.59328125 67.32 34.4140625 68 C35.28804687 68.721875 36.16203125 69.44375 37.0625 70.1875 C37.87847656 70.86167969 38.69445312 71.53585938 39.53515625 72.23046875 C41.96496034 73.97484475 44.18552802 75.0217076 47 76 C47 76.66 47 77.32 47 78 C47.57041016 78.12906738 48.14082031 78.25813477 48.72851562 78.39111328 C51.03837793 79.01028746 53.13954705 79.81705532 55.34375 80.7421875 C86.48911227 93.62731307 121.74839663 95.87189514 153.59399414 83.35083008 C163.05898559 79.41514773 171.11601273 74.51544608 179 68 C179.83144531 67.35804688 180.66289062 66.71609375 181.51953125 66.0546875 C193.62440958 56.02765443 201.89239897 38.39846275 204 23 C204.32791759 18.57183498 204.50153762 14.14055923 204.49780273 9.70019531 C204.58083364 3.58863577 204.58083364 3.58863577 206.81640625 0.44921875 C210.04786543 -1.69545273 212.20657346 -1.53241074 216 -1 C219.21858262 0.85962551 220.65260178 2.30520355 222.3125 5.625 C223.90450592 13.44030181 222.93446332 21.08119219 221.3125 28.8125 C221.13025879 29.68487305 220.94801758 30.55724609 220.76025391 31.45605469 C217.04032352 48.49654866 209.21486994 64.34334602 196 76 C195.21625 76.825 194.4325 77.65 193.625 78.5 C168.9810968 101.970384 136.27124252 109.33640369 103.125 109.375 C102.38907623 109.37708466 101.65315247 109.37916931 100.89492798 109.38131714 C93.05143587 109.37879494 85.57612324 109.17698466 78 107 C76.3984765 106.60270733 74.79691209 106.20557957 73.1953125 105.80859375 C53.97210041 100.71283008 34.68437916 92.86858032 20 79 C20 78.34 20 77.68 20 77 C19.17242187 76.66935547 19.17242187 76.66935547 18.328125 76.33203125 C15.27874011 74.58733285 13.0908534 72.25973113 10.75 69.6875 C10.02756104 68.89496826 10.02756104 68.89496826 9.29052734 68.08642578 C4.36157742 62.51905325 0.6207113 56.49744083 -3 50 C-3.48210937 49.19304687 -3.96421875 48.38609375 -4.4609375 47.5546875 C-10.30394518 37.10809801 -12.33437935 25.09067711 -12.4375 13.25 C-12.4475708 12.49976562 -12.4576416 11.74953125 -12.46801758 10.9765625 C-12.39658414 6.51830532 -11.83436626 3.49460688 -9 0 C-5.39965901 -1.20011366 -3.65462165 -0.95020163 0 0 Z " fill="#FDFCF8" transform="translate(151,105)"/>
<path d="M0 0 C1.28920337 -0.00630794 2.57840675 -0.01261588 3.90667689 -0.01911497 C5.34062856 -0.02109856 6.77458039 -0.02297552 8.20853233 -0.02475739 C9.72945852 -0.03020453 11.25038327 -0.03606808 12.7713064 -0.0423131 C16.95749685 -0.05816636 21.14368145 -0.06768045 25.32989264 -0.07607794 C28.91921027 -0.08408252 32.50851209 -0.09577315 36.09781922 -0.10749274 C48.95789431 -0.14940737 61.81798801 -0.17661586 74.67810631 -0.20114899 C75.69359328 -0.20312389 76.70908026 -0.20509879 77.75533956 -0.20713353 C97.92925894 -0.2463118 118.10318456 -0.28000395 138.27713013 -0.30221558 C142.7131978 -0.30718471 147.14926538 -0.31222904 151.58533287 -0.31735992 C152.68786736 -0.3186306 153.79040184 -0.31990127 154.92634647 -0.32121044 C172.76487086 -0.34254547 190.60321038 -0.39151479 208.44164188 -0.45160407 C226.76839461 -0.51282732 245.0950522 -0.54741843 263.42190588 -0.55668879 C273.70656763 -0.56258788 283.99091662 -0.58022529 294.27547646 -0.62807465 C303.03976356 -0.66881354 311.80368682 -0.68550097 320.56806435 -0.67142183 C325.03430806 -0.66498433 329.49977803 -0.66957454 333.96590042 -0.70529556 C367.28279379 -0.9578783 367.28279379 -0.9578783 382.76404381 7.14260101 C385.22250847 8.15002538 387.70185374 9.05092938 390.20154381 9.95510101 C393.42442765 11.16110991 395.88772522 12.22505529 398.76404381 14.14260101 C398.96939078 16.71212499 398.99240826 19.0396706 398.88123131 21.59963226 C398.84814971 23.11980312 398.81561494 24.63998596 398.78357506 26.16017914 C398.71537189 28.55685816 398.63912617 30.95284536 398.55164146 33.34889984 C398.47288719 35.66165044 398.42542596 37.97349964 398.38123131 40.28713226 C398.34601372 40.99876022 398.31079613 41.71038818 398.27451134 42.44358063 C398.21827475 46.21033458 398.58212681 47.91278111 400.94470787 50.89748383 C403.6506076 53.05226855 406.35390324 55.03850972 409.25623131 56.91994476 C410.2913485 57.59863617 411.32646568 58.27732758 412.39295006 58.97658539 C413.464161 59.67074554 414.53537193 60.3649057 415.63904381 61.08010101 C418.78206941 63.12021036 421.91342752 65.1694051 425.01306725 67.27492523 C426.68705211 68.41141655 428.38385439 69.51631412 430.11658287 70.56105804 C432.08435631 71.89650726 432.08435631 71.89650726 434.76404381 75.14260101 C434.43404381 79.10260101 434.10404381 83.06260101 433.76404381 87.14260101 C265.46404381 87.14260101 97.16404381 87.14260101 -76.23595619 87.14260101 C-77.23595619 76.14260101 -77.23595619 76.14260101 -75.23595619 73.14260101 C-74.57595619 73.47260101 -73.91595619 73.80260101 -73.23595619 74.14260101 C-73.89595619 76.12260101 -74.55595619 78.10260101 -75.23595619 80.14260101 C92.40404381 79.81260101 260.04404381 79.48260101 432.76404381 79.14260101 C430.91678312 74.14164826 430.91678312 74.14164826 427.19373131 71.41603851 C426.10693077 70.71607758 426.10693077 70.71607758 424.99817467 70.00197601 C423.83040489 69.26721039 423.83040489 69.26721039 422.63904381 68.51760101 C421.84312828 67.97877289 421.04721275 67.43994476 420.22717857 66.88478851 C416.26907383 64.22751166 412.48915831 61.9351897 408.04920006 60.18166351 C403.12368123 58.00787653 399.29514751 56.08286116 396.76404381 51.14260101 C394.02556465 39.61539175 395.1564463 26.87454016 395.76404381 15.14260101 C395.22227265 14.90237254 394.68050149 14.66214408 394.12231302 14.41463596 C392.99524667 13.91436941 392.99524667 13.91436941 391.8454113 13.40399647 C391.0173224 13.03837278 390.18923349 12.67274909 389.33605099 12.2960459 C387.72961147 11.57562044 386.1300342 10.83944647 384.54168415 10.07996976 C367.13468105 1.84221898 350.01036293 1.96535773 331.20037937 2.05282652 C326.7119469 2.06490038 322.22380914 2.03058775 317.73547935 2.00275421 C308.97052531 1.95591337 300.20607829 1.95210526 291.44102818 1.96498028 C284.30503032 1.97489959 277.16918173 1.97013908 270.03319359 1.95525932 C269.01240167 1.95316729 267.99160976 1.95107526 266.93988475 1.94891983 C264.86520641 1.9446445 262.7905281 1.94035367 260.71584982 1.93604752 C241.31283303 1.89782358 221.91010177 1.91069294 202.50708622 1.93980279 C184.8230998 1.96480851 167.13989196 1.9277367 149.45603472 1.86083619 C131.22801471 1.79240805 113.00035739 1.76526507 94.7722106 1.78226489 C84.56669985 1.79111008 74.36180324 1.78458979 64.15639305 1.73504829 C55.46545972 1.69334895 46.77555744 1.69143189 38.08463246 1.73798028 C33.66502979 1.76063598 29.24727069 1.76695786 24.82777977 1.72367477 C2.19917832 1.51714597 -16.64961504 4.18439813 -37.23595619 14.14260101 C-39.23793387 16.14457869 -38.37289996 20.19219628 -38.37658119 22.93947601 C-38.39491525 24.55407338 -38.41448611 26.1686571 -38.43517494 27.78322601 C-38.46411165 30.33554207 -38.48595512 32.88698545 -38.48644447 35.43947601 C-38.48978568 37.89860187 -38.52438006 40.35570253 -38.56408119 42.81447601 C-38.55701149 43.57298859 -38.54994179 44.33150116 -38.54265785 45.11299896 C-38.63364049 49.08776805 -39.13149999 51.00209473 -41.52794838 54.22560883 C-42.42159096 54.85821625 -43.31523354 55.49082367 -44.23595619 56.14260101 C-46.40520668 55.76241302 -46.40520668 55.76241302 -48.23595619 55.14260101 C-47.09521645 54.4871933 -45.9544767 53.83178558 -44.77916908 53.15651703 C-41.58293097 50.85929795 -41.29737557 50.43825163 -40.44469643 46.33376312 C-40.44443456 44.86211391 -40.47963062 43.3901614 -40.54454994 41.91994476 C-40.54648857 41.13744858 -40.5484272 40.35495239 -40.55042458 39.5487442 C-40.55836214 37.05754641 -40.61106999 34.57049091 -40.67345619 32.08010101 C-40.73049842 29.58636891 -40.77679818 27.09513936 -40.78577614 24.60074615 C-40.7915129 23.05223048 -40.82468579 21.50351109 -40.88865089 19.95630646 C-40.89782143 17.82204437 -40.89782143 17.82204437 -40.23595619 14.14260101 C-36.72522206 11.04939245 -32.9014236 9.42617448 -28.54064369 7.81838226 C-27.495214 7.42972992 -26.44978432 7.04107758 -25.37267494 6.64064789 C-24.29630775 6.24941742 -23.21994057 5.85818695 -22.11095619 5.45510101 C-21.02685463 5.05226898 -19.94275307 4.64943695 -18.82579994 4.23439789 C-12.28915262 1.8225447 -7.01034225 0.02145569 0 0 Z " fill="#F6F1AE" transform="translate(77.2359561920166,2.8573989868164063)"/>
<path d="M0 0 C0.33 0.66 0.66 1.32 1 2 C-0.07421875 4.1015625 -0.07421875 4.1015625 -1.6875 6.625 C-3.57958397 9.60162838 -5.28021537 12.55191631 -6.78125 15.73828125 C-9.24696653 20.74405752 -12.483698 25.1015493 -15.8125 29.5625 C-16.40353516 30.37396484 -16.99457031 31.18542969 -17.60351562 32.02148438 C-23.51749468 40.01212783 -29.91100759 46.3204267 -38.0625 52 C-39.16525269 52.77210815 -39.16525269 52.77210815 -40.2902832 53.55981445 C-48.42174603 59.1383048 -57.04997293 64.76184071 -67 66 C-67 66.66 -67 67.32 -67 68 C-67.59167969 68.12117188 -68.18335938 68.24234375 -68.79296875 68.3671875 C-73.71621097 69.38529186 -73.71621097 69.38529186 -78.4375 71.0625 C-86.95858578 74.17997041 -97.14651041 73.15162814 -106.0625 73.125 C-107.4055999 73.12856905 -108.74869895 73.13247309 -110.09179688 73.13671875 C-111.35185547 73.13542969 -112.61191406 73.13414062 -113.91015625 73.1328125 C-115.62924194 73.13112061 -115.62924194 73.13112061 -117.38305664 73.12939453 C-120 73 -120 73 -121 72 C-121.94875 71.9175 -122.8975 71.835 -123.875 71.75 C-128.38528692 71.16892009 -132.12696125 69.25617306 -136.1953125 67.3046875 C-138.66967766 66.1536597 -141.11803118 65.22089807 -143.6875 64.3125 C-165.61864842 55.58869928 -186.00945879 36.79551384 -197 16 C-197.70861491 14.01447504 -198.38641107 12.01691672 -199 10 C-192.56186613 15.45841785 -192.56186613 15.45841785 -189.8359375 18.0859375 C-182.89538411 24.70151515 -175.38745644 29.4634284 -167 34 C-166.40590332 34.32242676 -165.81180664 34.64485352 -165.19970703 34.97705078 C-154.34729805 40.73627143 -142.85900623 43.97810675 -131 47 C-130.3179248 47.19722656 -129.63584961 47.39445312 -128.93310547 47.59765625 C-121.38593158 49.60307375 -113.62765623 49.396961 -105.875 49.375 C-105.12256012 49.37412384 -104.37012024 49.37324768 -103.59487915 49.37234497 C-73.56577142 49.25732751 -39.75955904 42.70316862 -17.75 20.6171875 C-16 19 -16 19 -14 19 C-13.74992188 18.43023437 -13.49984375 17.86046875 -13.2421875 17.2734375 C-11.82392248 14.67774492 -10.13780306 12.78971273 -8.125 10.625 C-5.04160408 7.23326449 -2.39937928 3.89899133 0 0 Z " fill="#C0A932" transform="translate(360,164)"/>
<path d="M0 0 C2.76406451 1.36166287 5.35383903 2.80893101 7.93359375 4.49609375 C8.66513672 4.97240234 9.39667969 5.44871094 10.15039062 5.93945312 C10.90513672 6.43380859 11.65988281 6.92816406 12.4375 7.4375 C13.93568844 8.41614498 15.43437387 9.39402961 16.93359375 10.37109375 C17.99296143 11.06307861 17.99296143 11.06307861 19.07373047 11.76904297 C20.61725657 12.75541288 22.19624116 13.68620286 23.78515625 14.59765625 C26.22450999 16.14215007 27.97446378 17.9507733 30 20 C31.65757569 21.18871069 33.34919144 22.33062871 35.0625 23.4375 C36.10148437 24.12199219 37.14046875 24.80648437 38.2109375 25.51171875 C40.27314209 26.86634848 42.33587498 28.22015737 44.39941406 29.57275391 C47.00321445 31.28707872 49.59581136 33.01743199 52.1875 34.75 C53.03771729 35.30486084 53.88793457 35.85972168 54.76391602 36.43139648 C55.55725342 36.96450439 56.35059082 37.4976123 57.16796875 38.046875 C57.88235107 38.51963867 58.5967334 38.99240234 59.33276367 39.47949219 C61.30866713 41.28150225 61.4680389 42.43967957 62 45 C54.06386213 45.02312764 46.12773824 45.04091723 38.19157505 45.05181217 C34.50685502 45.05704008 30.82215797 45.06413605 27.13745117 45.07543945 C23.58429169 45.08627162 20.03115437 45.09227753 16.47797966 45.09487724 C15.11954334 45.0967309 13.76110829 45.10035038 12.40268135 45.10573006 C10.50617777 45.11294475 8.60965207 45.11340809 6.71313477 45.11352539 C5.09097801 45.11685631 5.09097801 45.11685631 3.43605042 45.12025452 C1 45 1 45 0 44 C-0.0927833 42.61839885 -0.11747043 41.23211962 -0.11352539 39.84741211 C-0.11341209 38.52615578 -0.11341209 38.52615578 -0.11329651 37.1782074 C-0.10555458 35.74227989 -0.10555458 35.74227989 -0.09765625 34.27734375 C-0.0962413 33.30213272 -0.09482635 32.32692169 -0.09336853 31.32215881 C-0.08775133 28.19390857 -0.07519593 25.06572877 -0.0625 21.9375 C-0.05748722 19.82226666 -0.05292393 17.70703219 -0.04882812 15.59179688 C-0.03777631 10.39450704 -0.02102146 5.19725855 0 0 Z " fill="#F7E434" transform="translate(448,36)"/>
<path d="M0 0 C0 14.19 0 28.38 0 43 C-20.46 43 -40.92 43 -62 43 C-59.74991662 37.37479154 -59.74991662 37.37479154 -56.296875 35.02734375 C-55.19666016 34.26647461 -55.19666016 34.26647461 -54.07421875 33.49023438 C-53.30722656 32.97783203 -52.54023437 32.46542969 -51.75 31.9375 C-50.99847656 31.42123047 -50.24695312 30.90496094 -49.47265625 30.37304688 C-48.00045298 29.36460048 -46.52309766 28.36362746 -45.0402832 27.37084961 C-43.77154311 26.51839351 -42.5106073 25.6540488 -41.26245117 24.77172852 C-38.45799133 22.80696969 -36.20825659 21.55729088 -32.8125 21.0625 C-28.90073613 20.4489196 -28.90073613 20.4489196 -27.640625 17.67578125 C-25.55996391 14.2823221 -23.37393079 13.09920696 -19.9375 11.125 C-18.77046897 10.44294759 -17.60512173 9.75800662 -16.44140625 9.0703125 C-15.86277832 8.7290332 -15.28415039 8.38775391 -14.68798828 8.03613281 C-11.32824113 5.97382924 -8.18372049 3.60183851 -5.0234375 1.25 C-3 0 -3 0 0 0 Z " fill="#F7E539" transform="translate(64,37)"/>
<path d="M0 0 C0 4.30678515 -2.56096261 6.21677334 -5.375 9.1875 C-5.92373779 9.77047852 -6.47247559 10.35345703 -7.0378418 10.95410156 C-18.89403058 23.34460055 -32.73371882 32.23117083 -49.1484375 37.125 C-51.87380747 37.71761803 -51.87380747 37.71761803 -53 39 C-64.20935449 40.96078512 -75.45449083 41.43810212 -86.8125 41.4375 C-87.59726715 41.43923218 -88.3820343 41.44096436 -89.19058228 41.44274902 C-101.42598596 41.4309176 -112.48389694 40.44301981 -124 36 C-124.91523438 35.65453125 -125.83046875 35.3090625 -126.7734375 34.953125 C-128.91367251 34.06196912 -130.94174571 33.06418759 -133 32 C-133.75667969 31.66742188 -134.51335937 31.33484375 -135.29296875 30.9921875 C-146.53782816 25.87926255 -156.0026202 17.32315754 -165 9 C-164.67 8.34 -164.34 7.68 -164 7 C-163.23558594 7.49628906 -162.47117188 7.99257812 -161.68359375 8.50390625 C-146.80254059 17.94110844 -132.02883503 23.66073914 -115 28 C-114.3179248 28.19722656 -113.63584961 28.39445312 -112.93310547 28.59765625 C-105.38593158 30.60307375 -97.62765623 30.396961 -89.875 30.375 C-89.12256012 30.37412384 -88.37012024 30.37324768 -87.59487915 30.37234497 C-57.26977841 30.2561938 -24.02839621 23.48554379 -1.5546875 1.6171875 C-1.04164063 1.08351562 -0.52859375 0.54984375 0 0 Z " fill="#F8E136" transform="translate(344,183)"/>
<path d="M0 0 C0.33 0 0.66 0 1 0 C1 6.93 1 13.86 1 21 C3.84003128 20.97003433 6.68006256 20.94006866 9.6061554 20.90919495 C75.29379324 20.22752724 140.97686016 19.899467 206.66796875 19.90234375 C207.98870076 19.90238556 207.98870076 19.90238556 209.33611423 19.90242821 C231.79664623 19.90335869 254.25717013 19.9138764 276.71769726 19.92797339 C289.73049894 19.93604741 302.74329987 19.9414126 315.75610352 19.94506836 C316.6885881 19.94533108 317.62107268 19.94559381 318.58181437 19.94586449 C323.26538134 19.94717066 327.94894832 19.94843409 332.63251531 19.94967639 C370.75501419 19.95984234 408.87750663 19.97726608 447 20 C446.67 20.66 446.34 21.32 446 22 C278.36 22 110.72 22 -62 22 C-62 21.01 -62 20.02 -62 19 C-41.54 19 -21.08 19 0 19 C0 12.73 0 6.46 0 0 Z " fill="#F9C51A" transform="translate(64,61)"/>
<path d="M0 0 C1.65 0 3.3 0 5 0 C4.70638323 8.99935391 3.47297056 17.40587716 1.45996094 26.16137695 C0.41287327 30.76220186 -0.33366252 35.26771381 -0.75390625 39.96972656 C-1.00359493 42.02965816 -1.44773685 43.93927759 -2 45.9375 C-3.04236478 49.7773879 -3.39632521 53.54395943 -3.65625 57.5078125 C-4 60 -4 60 -4.9453125 62.8203125 C-6.34998542 67.05514124 -7.02072868 71.38364927 -7.6796875 75.78515625 C-8.53740522 80.6488056 -8.53740522 80.6488056 -10.9140625 82.453125 C-13 83 -13 83 -16 83 C-15.88485851 80.95775363 -15.75742674 78.91619841 -15.625 76.875 C-15.55539063 75.73804688 -15.48578125 74.60109375 -15.4140625 73.4296875 C-15.00247398 70.02049205 -14.08234349 67.24703047 -13 64 C-12.50566867 61.22085136 -12.18441802 58.43005186 -11.875 55.625 C-11.78863281 54.88894531 -11.70226562 54.15289062 -11.61328125 53.39453125 C-11.40318115 51.59700818 -11.20079233 49.79858658 -11 48 C-10.34 48 -9.68 48 -9 48 C-9.01675781 46.98164063 -9.03351563 45.96328125 -9.05078125 44.9140625 C-8.92762772 35.42176743 -6.89402304 26.1901404 -4.6640625 17 C-3.77944193 13.0035965 -3.3453895 9.07559605 -3 5 C-2.34 5 -1.68 5 -1 5 C-0.67 3.35 -0.34 1.7 0 0 Z " fill="#296FB0" transform="translate(262,427)"/>
<path d="M0 0 C3.87846648 3.33728511 5.46224943 5.57485274 6.125 10.6875 C5.56677584 15.31278593 4.37196938 17.50950171 1.6875 21.3125 C-2.67120891 24.09465462 -7.31011084 24.09363017 -12.3125 23.3125 C-16.20119298 21.32053686 -18.70728275 18.35554719 -20.3125 14.3125 C-20.55387178 9.81493923 -19.86583627 6.20928637 -17.5 2.375 C-12.24343378 -2.58119101 -6.43197398 -3.27666599 0 0 Z " fill="#BEA832" transform="translate(369.3125,32.6875)"/>
<path d="M0 0 C4.36350222 2.22291622 7.09544338 4.45022584 9 9 C9.63057728 13.8644533 9.01605192 17.39878966 6.38671875 21.4765625 C3.7457224 24.37793878 0.87122646 25.57817919 -3 26 C-7.59127526 25.38179873 -10.96690231 23.83151765 -14.5625 20.9375 C-16.67884394 16.61279716 -16.63845908 12.72615443 -16 8 C-14.69078973 4.76142722 -13.47966387 3.39743578 -10.8125 1.1875 C-7.13998514 -0.36311739 -3.88989939 -0.68645283 0 0 Z " fill="#BDA833" transform="translate(154,31)"/>
<path d="M0 0 C1.30030395 -0.00199105 2.60060791 -0.0039821 3.94031501 -0.00603348 C5.38666918 -0.0031804 6.83302317 -0.00023481 8.27937698 0.00279331 C9.81313032 0.00235738 11.34688359 0.00148207 12.88063645 0.00020415 C17.10159242 -0.00203649 21.32252312 0.00197461 25.54347587 0.00698221 C30.09286865 0.01129268 34.64225996 0.00983986 39.19165421 0.00907993 C47.07589685 0.00855508 54.96013123 0.01169788 62.8443718 0.01731777 C74.24372062 0.02543796 85.64306544 0.02804853 97.04241684 0.02930576 C115.53622109 0.03149546 134.03002093 0.03815334 152.52382278 0.04760838 C170.49094496 0.0567846 188.45806593 0.06386441 206.42518997 0.06811619 C208.08587667 0.06851027 208.08587667 0.06851027 209.78011259 0.06891232 C215.33412048 0.07021734 220.88812838 0.07148105 226.44213629 0.07272422 C272.53268197 0.08309429 318.62322286 0.10071039 364.71376419 0.12304783 C364.71376419 0.45304783 364.71376419 0.78304783 364.71376419 1.12304783 C363.94300647 1.12060715 363.17224874 1.11816648 362.37813473 1.11565185 C316.56555448 0.97211895 270.75323112 0.89189923 224.94041473 0.89244615 C219.42378374 0.89245795 213.90715292 0.89194761 208.390522 0.89111423 C207.29238847 0.89095712 206.19425494 0.89080001 205.06284463 0.89063814 C187.34662359 0.88686207 169.63075519 0.8409121 151.91465271 0.77901968 C133.69860672 0.7163329 115.48292765 0.69979439 97.26678944 0.72495294 C86.05131472 0.73902262 74.83706539 0.71828221 63.62177801 0.65114567 C55.90192626 0.60840306 48.18286613 0.61100427 40.46298552 0.64720109 C36.02691817 0.66672566 31.59308525 0.66824964 27.15724182 0.61520672 C3.55862801 0.34970187 -15.89563404 3.73434044 -37.28623581 14.12304783 C-39.28821349 16.12502551 -38.42317958 20.1726431 -38.42686081 22.91992283 C-38.44519487 24.5345202 -38.46476573 26.14910391 -38.48545456 27.76367283 C-38.51439127 30.31598888 -38.53623473 32.86743227 -38.53672409 35.41992283 C-38.54006529 37.87904869 -38.57465967 40.33614934 -38.61436081 42.79492283 C-38.60729111 43.5534354 -38.60022141 44.31194798 -38.59293747 45.09344578 C-38.68392011 49.06821486 -39.1817796 50.98254155 -41.578228 54.20605564 C-42.47187057 54.83866306 -43.36551315 55.47127048 -44.28623581 56.12304783 C-46.4554863 55.74285984 -46.4554863 55.74285984 -48.28623581 55.12304783 C-47.14549606 54.46764011 -46.00475632 53.8122324 -44.8294487 53.13696384 C-41.63321059 50.83974476 -41.34765518 50.41869845 -40.49497604 46.31420994 C-40.49471418 44.84256073 -40.52991024 43.37060821 -40.59482956 41.90039158 C-40.59676819 41.11789539 -40.59870682 40.33539921 -40.60070419 39.52919102 C-40.60864175 37.03799323 -40.6613496 34.55093772 -40.72373581 32.06054783 C-40.78077804 29.56681573 -40.8270778 27.07558617 -40.83605576 24.58119297 C-40.84179251 23.0326773 -40.87496541 21.4839579 -40.93893051 19.93675327 C-40.94810104 17.80249119 -40.94810104 17.80249119 -40.28623581 14.12304783 C-36.77550168 11.02983926 -32.95170322 9.4066213 -28.59092331 7.79882908 C-27.54549362 7.41017673 -26.50006393 7.02152439 -25.42295456 6.6210947 C-24.34658737 6.22986423 -23.27022018 5.83863377 -22.16123581 5.43554783 C-21.07713425 5.0327158 -19.99303268 4.62988377 -18.87607956 4.2148447 C-12.31143031 1.79265953 -7.04177087 -0.00237577 0 0 Z " fill="#F3F4C4" transform="translate(77.28623580932617,2.8769521713256836)"/>
<path d="M0 0 C0.90151291 -0.01283524 1.80302582 -0.02567047 2.7318573 -0.03889465 C3.71406754 -0.04628159 4.69627777 -0.05366852 5.70825195 -0.0612793 C6.71362503 -0.06935104 7.71899811 -0.07742279 8.75483704 -0.08573914 C10.88927475 -0.0996012 13.02373483 -0.11031381 15.15820312 -0.11816406 C18.41555254 -0.13533474 21.67187621 -0.17919727 24.92895508 -0.22338867 C27.00121323 -0.23351885 29.07348002 -0.24203394 31.14575195 -0.2487793 C32.11784103 -0.26628738 33.08993011 -0.28379547 34.09147644 -0.30183411 C41.25808282 -0.27897682 44.64429409 1.06226284 49.7590332 6.17700195 C49.7590332 7.16700195 49.7590332 8.15700195 49.7590332 9.17700195 C31.2790332 9.17700195 12.7990332 9.17700195 -6.2409668 9.17700195 C-5.10171965 0.06302479 -5.10171965 0.06302479 0 0 Z " fill="#226CB5" transform="translate(371.240966796875,360.822998046875)"/>
<path d="M0 0 C4 2 8 4 12 6 C12 6.66 12 7.32 12 8 C12.7734375 8.1546875 12.7734375 8.1546875 13.5625 8.3125 C16.86026435 9.24263866 19.86633332 10.61395512 23 12 C20.89286808 17.61901844 18.32923681 23.00614479 15 28 C-3.04100228 18.77448747 -3.04100228 18.77448747 -10 13 C-8.60506348 8.56156561 -6.48101799 6.0565036 -3 3 C-2.01 2.67 -1.02 2.34 0 2 C0 1.34 0 0.68 0 0 Z " fill="#FDFDF9" transform="translate(186,175)"/>
<path d="M0 0 C19.48192771 5.31325301 19.48192771 5.31325301 23.25 9.5 C24 12 24 12 23.42578125 13.87890625 C21.45407387 16.8121586 18.83594882 18.51516109 15.9375 20.4375 C14.85339844 21.17871094 13.76929688 21.91992188 12.65234375 22.68359375 C8.53819624 25.2928873 4.25873622 27.63403543 0 30 C0 20.1 0 10.2 0 0 Z " fill="#F6B41D" transform="translate(39,22)"/>
<path d="M0 0 C0 9.9 0 19.8 0 30 C-5.06168546 27.10760831 -9.95294754 24.19134789 -14.8125 21 C-15.47958984 20.57460938 -16.14667969 20.14921875 -16.83398438 19.7109375 C-19.46089706 17.98263571 -21.63785903 16.44252071 -23.63671875 14 C-24 12 -24 12 -23.125 9.453125 C-20.20177679 6.07852173 -17.16507818 5.12847783 -13 3.75 C-12.27554687 3.49476562 -11.55109375 3.23953125 -10.8046875 2.9765625 C-2.31365132 0 -2.31365132 0 0 0 Z " fill="#F6B41D" transform="translate(473,22)"/>
<path d="M0 0 C3.21858262 1.85962551 4.65260178 3.30520355 6.3125 6.625 C7.21949011 11.07749693 7.52962786 15.47479727 7 20 C6.34 20.99 5.68 21.98 5 23 C-0.28 22.01 -5.56 21.02 -11 20 C-11.0825 17.4425 -11.165 14.885 -11.25 12.25 C-11.28641602 11.45110352 -11.32283203 10.65220703 -11.36035156 9.82910156 C-11.41483197 6.34059802 -11.26738377 4.3688852 -9.19921875 1.515625 C-5.96832063 -0.71099751 -3.83557232 -0.53832594 0 0 Z " fill="#FCFBF5" transform="translate(367,104)"/>
<path d="M0 0 C0.64066406 0.19335938 1.28132812 0.38671875 1.94140625 0.5859375 C6.95110985 2.0940748 11.96539857 3.57717786 17 5 C16.79503906 5.56847656 16.59007812 6.13695312 16.37890625 6.72265625 C14.70907331 11.5084454 13.53623064 15.95943201 13 21 C5.63927766 20.57534294 -0.32137824 18.01651083 -7 15 C-6.49273357 10.5694451 -5.52080533 7.75262024 -2.9375 4.125 C-2.38964844 3.34382812 -1.84179688 2.56265625 -1.27734375 1.7578125 C-0.64505859 0.88769531 -0.64505859 0.88769531 0 0 Z " fill="#FCFCF8" transform="translate(209,188)"/>
<path d="M0 0 C1.81640625 1.3046875 1.81640625 1.3046875 3.5625 2.875 C4.14128906 3.38804687 4.72007812 3.90109375 5.31640625 4.4296875 C5.87199219 4.94789063 6.42757812 5.46609375 7 6 C7.56589844 6.49757812 8.13179687 6.99515625 8.71484375 7.5078125 C10 9 10 9 10 12 C9.0925 12.598125 8.185 13.19625 7.25 13.8125 C3.56219685 16.2946752 2.22188837 18.23988123 0 22 C-2.5 20.625 -2.5 20.625 -5 19 C-5 18.34 -5 17.68 -5 17 C-5.53625 16.79375 -6.0725 16.5875 -6.625 16.375 C-10.0017654 14.42003056 -12.30474839 11.81776305 -15 9 C-13.43989422 4.78771439 -10.5154607 2.65453155 -7 0 C-3.8114898 -1.06283673 -3.03820872 -1.10798399 0 0 Z " fill="#FCFCFA" transform="translate(176,165)"/>
<path d="M0 0 C2.67578125 1.62890625 2.67578125 1.62890625 5 4 C5.66739899 8.4208509 5.22480001 12.5039998 5 17 C-0.61 18.32 -6.22 19.64 -12 21 C-12.061875 18.463125 -12.12375 15.92625 -12.1875 13.3125 C-12.21481201 12.52270752 -12.24212402 11.73291504 -12.27026367 10.91918945 C-12.32326802 6.41154029 -11.88260765 3.51422797 -9 0 C-5.39965901 -1.20011366 -3.65462165 -0.95020163 0 0 Z " fill="#FDFDFB" transform="translate(151,105)"/>
<path d="M0 0 C0.33 0 0.66 0 1 0 C1 6.93 1 13.86 1 21 C21.13 21 41.26 21 62 21 C62 21.33 62 21.66 62 22 C21.08 22 -19.84 22 -62 22 C-62 21.01 -62 20.02 -62 19 C-41.54 19 -21.08 19 0 19 C0 12.73 0 6.46 0 0 Z " fill="#FAD11F" transform="translate(64,61)"/>
<path d="M0 0 C4.95 0 9.9 0 15 0 C15.22786458 2.99479167 15.45572917 5.98958333 15.68359375 8.984375 C15.94913876 12.1931585 15.94913876 12.1931585 17 16 C10.73 16 4.46 16 -2 16 C-1.34 15.67 -0.68 15.34 0 15 C0 10.05 0 5.1 0 0 Z " fill="#FDFDFD" transform="translate(254,198)"/>
<path d="M0 0 C0.13277344 0.80824219 0.26554687 1.61648437 0.40234375 2.44921875 C0.57894531 3.51785156 0.75554687 4.58648437 0.9375 5.6875 C1.11152344 6.74324219 1.28554688 7.79898438 1.46484375 8.88671875 C1.93167121 11.60249604 2.44422616 14.30124235 3 17 C1.06643218 17.69848264 -0.87202298 18.38344814 -2.8125 19.0625 C-3.89144531 19.44535156 -4.97039062 19.82820313 -6.08203125 20.22265625 C-9 21 -9 21 -12 20 C-11.34 20 -10.68 20 -10 20 C-10.474375 19.21625 -10.94875 18.4325 -11.4375 17.625 C-13.39736749 13.07810742 -13.71910872 8.90106856 -14 4 C-11.85469262 3.33164276 -9.70873966 2.6653574 -7.5625 2 C-6.36753906 1.62875 -5.17257812 1.2575 -3.94140625 0.875 C-1 0 -1 0 0 0 Z " fill="#FCFBF7" transform="translate(304,189)"/>
<path d="M0 0 C3.48670834 1.1094072 6.77484237 2.26337666 10 4 C7.89286808 9.61901844 5.32923681 15.00614479 2 20 C-1.3 18.35 -4.6 16.7 -8 15 C-7.54726428 10.133091 -6.35474936 7.5580675 -3 4 C-2.34 3.67 -1.68 3.34 -1 3 C-0.67 2.01 -0.34 1.02 0 0 Z " fill="#FDFDF9" transform="translate(199,183)"/>
<path d="M0 0 C3.37630274 1.68815137 6.18933101 3.45031414 9.25 5.625 C10.14203125 6.25664062 11.0340625 6.88828125 11.953125 7.5390625 C12.96632813 8.26222656 12.96632813 8.26222656 14 9 C12.17495091 12.92300272 9.81729174 15.73787272 7 19 C2.01360574 17.82673076 0.11632827 14.87145799 -2.66796875 10.875 C-4.00195699 8.88675624 -4.00195699 8.88675624 -6 7 C-4.02 4.69 -2.04 2.38 0 0 Z " fill="#FDFDFB" transform="translate(339,164)"/>
<path d="M0 0 C2.97 0.33 5.94 0.66 9 1 C10.13509804 5.54039217 9.66873985 5.92085814 8 10 C7.5436188 12.66387722 7.27373139 15.30830799 7 18 C3.37 17.34 -0.26 16.68 -4 16 C-2.125 4.88392857 -2.125 4.88392857 0 0 Z " fill="#FCFCF8" transform="translate(225,194)"/>
<path d="M0 0 C3.00765886 2.84936103 5.27845212 5.23511958 7 9 C6.20335937 9.36351562 6.20335937 9.36351562 5.390625 9.734375 C1.26007376 11.69412559 -1.97110547 13.46628972 -5 17 C-8.35620271 15.61122646 -10.07298728 14.08322035 -12 11 C-12 10.34 -12 9.68 -12 9 C-10.42945794 7.58303493 -8.79253336 6.23893184 -7.125 4.9375 C-6.22007812 4.22464844 -5.31515625 3.51179687 -4.3828125 2.77734375 C-2 1 -2 1 0 0 Z " fill="#FEFDFB" transform="translate(167,155)"/>
<path d="M0 0 C2.875 1.5 2.875 1.5 5 4 C5.4147743 7.04517841 5.29352855 9.94730305 5 13 C4.34 11.68 3.68 10.36 3 9 C-1.95 9.33 -6.9 9.66 -12 10 C-11 3 -11 3 -9 0 C-5.39965901 -1.20011366 -3.65462165 -0.95020163 0 0 Z " fill="#D5D3CE" transform="translate(151,105)"/>
<path d="M0 0 C5.69051363 0.5381371 11.34865884 1.1400133 17 2 C16.67 4.97 16.34 7.94 16 11 C12.01754349 12.3274855 9.55210457 10.99907829 5.8125 9.5625 C5.15830078 9.31951172 4.50410156 9.07652344 3.83007812 8.82617188 C2.21696714 8.2256707 0.6080565 7.61390797 -1 7 C-0.67 4.69 -0.34 2.38 0 0 Z " fill="#FDFDFB" transform="translate(356,124)"/>
<path d="M0 0 C4.13998349 -0.32470459 6.33999001 -0.4304413 9.875 1.875 C12.16849031 4.16849031 12.99142879 5.01602545 13.01953125 8.2421875 C12.45832441 15.37904435 12.45832441 15.37904435 10.0625 18.625 C8 20 8 20 6 20 C5.85304688 18.58847656 5.85304688 18.58847656 5.703125 17.1484375 C4.71562205 7.80593065 4.71562205 7.80593065 0 0 Z " fill="#FAD41F" transform="translate(368,104)"/>
<path d="M0 0 C-0.99 0.495 -0.99 0.495 -2 1 C-2.71727778 2.64551962 -3.38325228 4.31422289 -4 6 C-4.33 6.66 -4.66 7.32 -5 8 C-5.2275015 9.87056791 -5.40962811 11.74685958 -5.5625 13.625 C-5.68818359 15.12933594 -5.68818359 15.12933594 -5.81640625 16.6640625 C-5.87699219 17.43492188 -5.93757812 18.20578125 -6 19 C-9.29982517 17.59945309 -9.93739876 17.11009184 -11.8125 13.8125 C-13.10326526 9.66846418 -12.94076189 7.19066661 -12 3 C-11.01 2.67 -10.02 2.34 -9 2 C-9 1.34 -9 0.68 -9 0 C-5.52176885 -1.15941038 -3.54104422 -0.70820884 0 0 Z " fill="#FAD421" transform="translate(144,104)"/>
<path d="M0 0 C-2.6432191 2.6432191 -5.20095323 3.30540272 -8.72265625 4.56640625 C-9.38333603 4.80536118 -10.04401581 5.0443161 -10.72471619 5.29051208 C-12.83543951 6.05316066 -14.94874757 6.80829162 -17.0625 7.5625 C-19.17945209 8.32124441 -21.29579284 9.08159129 -23.41099548 9.84519958 C-25.32746197 10.5365739 -27.24584398 11.22263149 -29.16430664 11.90844727 C-31.86187443 12.72657929 -31.86187443 12.72657929 -33 14 C-33.09832497 16.60599281 -33.13713233 19.19031552 -33.140625 21.796875 C-33.15895906 23.41147237 -33.17852992 25.02605608 -33.19921875 26.640625 C-33.22815546 29.19294105 -33.24999892 31.74438444 -33.25048828 34.296875 C-33.25382948 36.75600086 -33.28842386 39.21310152 -33.328125 41.671875 C-33.3210553 42.43038757 -33.3139856 43.18890015 -33.30670166 43.97039795 C-33.3976843 47.94516703 -33.8955438 49.85949372 -36.29199219 53.08300781 C-37.18563477 53.71561523 -38.07927734 54.34822266 -39 55 C-41.16925049 54.61981201 -41.16925049 54.61981201 -43 54 C-41.85926025 53.34459229 -40.71852051 52.68918457 -39.54321289 52.01391602 C-36.34697478 49.71669694 -36.06141937 49.29565062 -35.20874023 45.19116211 C-35.20847837 43.7195129 -35.24367443 42.24756038 -35.30859375 40.77734375 C-35.31053238 39.99484756 -35.31247101 39.21235138 -35.31446838 38.40614319 C-35.32240594 35.9149454 -35.37511379 33.42788989 -35.4375 30.9375 C-35.49454223 28.4437679 -35.54084199 25.95253834 -35.54981995 23.45814514 C-35.5555567 21.90962947 -35.5887296 20.36091007 -35.6526947 18.81370544 C-35.66186523 16.67944336 -35.66186523 16.67944336 -35 13 C-29.87742317 8.49453928 -23.25983442 6.58428343 -16.9375 4.25 C-15.86177734 3.83878906 -14.78605469 3.42757813 -13.67773438 3.00390625 C-12.63810547 2.61589844 -11.59847656 2.22789063 -10.52734375 1.828125 C-9.58624756 1.4765332 -8.64515137 1.12494141 -7.67553711 0.76269531 C-4.97637917 -0.00673341 -2.78986457 -0.14794976 0 0 Z " fill="#F7F6BD" transform="translate(72,4)"/>
<path d="M0 0 C2.9375 1.6875 2.9375 1.6875 5 4 C5.12890625 6.64453125 5.12890625 6.64453125 5 9 C2.89551062 8.85890014 0.7914123 8.71195825 -1.3125 8.5625 C-2.48425781 8.48128906 -3.65601563 8.40007812 -4.86328125 8.31640625 C-8 8 -8 8 -11 7 C-10.6875 4.625 -10.6875 4.625 -10 2 C-6.2626144 -0.4915904 -4.42668417 -0.45793285 0 0 Z " fill="#D1D0D1" transform="translate(367,104)"/>
<path d="M0 0 C6.00477279 0.64916463 11.400781 2.85795003 17 5 C16.67 6.65 16.34 8.3 16 10 C10.30860098 8.90301833 5.25432063 7.45946923 0 5 C0 3.35 0 1.7 0 0 Z " fill="#D4D3D3" transform="translate(354,131)"/>
<path d="M0 0 C3.42946293 1.61674681 6.56263052 3.57597677 9.75 5.625 C11.22726562 6.57246094 11.22726562 6.57246094 12.734375 7.5390625 C13.48203125 8.02117187 14.2296875 8.50328125 15 9 C14.01 10.65 13.02 12.3 12 14 C10.22337883 12.92618483 8.45390311 11.840542 6.6875 10.75 C5.70136719 10.14671875 4.71523438 9.5434375 3.69921875 8.921875 C1.17077112 7.12159102 -0.326533 5.58159415 -2 3 C-1.34 2.01 -0.68 1.02 0 0 Z " fill="#D3D2D1" transform="translate(342,160)"/>
<path d="M0 0 C5 2 10 4 15 6 C14.67 7.98 14.34 9.96 14 12 C12.06087416 11.21232408 10.12375234 10.4197133 8.1875 9.625 C7.10855469 9.18414062 6.02960938 8.74328125 4.91796875 8.2890625 C2 7 2 7 -1 5 C-0.67 3.35 -0.34 1.7 0 0 Z " fill="#D3D2D2" transform="translate(350,147)"/>
<path d="M0 0 C0.042721 1.66611905 0.04063832 3.33382885 0 5 C-1.60453813 6.60453813 -3.55740387 6.62462947 -5.75 7.0625 C-6.61109375 7.23910156 -7.4721875 7.41570312 -8.359375 7.59765625 C-10.95248391 7.99276012 -13.38176202 8.07063592 -16 8 C-16.33 6.68 -16.66 5.36 -17 4 C-15.10751181 3.32389577 -13.2108398 2.65949561 -11.3125 2 C-10.25675781 1.62875 -9.20101562 1.2575 -8.11328125 0.875 C-5.21637944 0.0608143 -2.98299377 -0.17709796 0 0 Z " fill="#D4D3D5" transform="translate(156,122)"/>
<path d="M0 0 C0.33 1.65 0.66 3.3 1 5 C-0.1446875 5.7734375 -0.1446875 5.7734375 -1.3125 6.5625 C-4.61575607 9.55847644 -5.48625726 11.85712514 -7 16 C-9.475 15.01 -9.475 15.01 -12 14 C-11.38525348 10.6563787 -10.18085051 8.56499345 -8.125 5.875 C-7.61195313 5.19179687 -7.09890625 4.50859375 -6.5703125 3.8046875 C-4.62260415 1.56627641 -3.08240485 0 0 0 Z " fill="#D3D2D1" transform="translate(198,181)"/>
<path d="M0 0 C0.33 1.65 0.66 3.3 1 5 C0.0925 5.53625 -0.815 6.0725 -1.75 6.625 C-5.20438056 8.90063458 -6.91051685 11.46395159 -9 15 C-10.65 14.01 -12.3 13.02 -14 12 C-13.34 11.67 -12.68 11.34 -12 11 C-11.79375 10.278125 -11.5875 9.55625 -11.375 8.8125 C-9.42591739 4.82574011 -4.72760462 0 0 0 Z " fill="#D2D1D0" transform="translate(185,172)"/>
<path d="M0 0 C2.475 0.495 2.475 0.495 5 1 C5.66 6.28 6.32 11.56 7 17 C5.68 17.33 4.36 17.66 3 18 C0.22528921 11.75690073 -0.37634203 6.80203375 0 0 Z " fill="#D3D2D1" transform="translate(304,188)"/>
<path d="M0 0 C1.9375 0.3125 1.9375 0.3125 4 1 C5.23922223 4.71766668 4.57018942 6.43889537 3.5625 10.1875 C3.27503906 11.27417969 2.98757812 12.36085937 2.69140625 13.48046875 C2.34916016 14.72763672 2.34916016 14.72763672 2 16 C0.35 16 -1.3 16 -3 16 C-3.33266291 9.79029227 -2.45029331 5.71735105 0 0 Z " fill="#D3D2D4" transform="translate(235,196)"/>
<path d="M0 0 C2.25 0 2.25 0 5 1 C6.44460724 2.68537512 7.61703136 4.42469134 8.7890625 6.30859375 C10.0613426 8.29629704 10.0613426 8.29629704 13 10 C12.34 11.32 11.68 12.64 11 14 C6.61706416 13.27899757 5.04148829 11.17865359 2.328125 7.85546875 C0.77369958 5.683845 -0.22592276 3.55445488 -1 1 C-0.67 0.67 -0.34 0.34 0 0 Z " fill="#D2D1D2" transform="translate(331,172)"/>
<path d="M0 0 C1.98 0 3.96 0 6 0 C6.07347656 0.92232422 6.07347656 0.92232422 6.1484375 1.86328125 C6.22320312 2.67152344 6.29796875 3.47976562 6.375 4.3125 C6.44460938 5.11300781 6.51421875 5.91351563 6.5859375 6.73828125 C6.89564426 9.27224441 6.89564426 9.27224441 9 12 C9 12.99 9 13.98 9 15 C7.02 15.99 7.02 15.99 5 17 C1.19053359 11.34724339 0.27259009 6.77386385 0 0 Z " fill="#D4D3D0" transform="translate(285,194)"/>
<path d="M0 0 C2.97 0.495 2.97 0.495 6 1 C5.79503906 1.56847656 5.59007812 2.13695312 5.37890625 2.72265625 C3.70907331 7.5084454 2.53623064 11.95943201 2 17 C0.35 17 -1.3 17 -3 17 C-2.22095672 5.47835991 -2.22095672 5.47835991 0 0 Z " fill="#D4D3D0" transform="translate(220,192)"/>
<path d="M0 0 C0.99 0.33 1.98 0.66 3 1 C3.33 1.99 3.66 2.98 4 4 C2.69791204 6.02048131 1.36011609 8.01811655 0 10 C-1.24324147 13.2249208 -1.24324147 13.2249208 -2 16 C-3.65 15.67 -5.3 15.34 -7 15 C-6.68383092 8.83470299 -3.50784939 4.82731567 0 0 Z " fill="#D3D2D2" transform="translate(209,188)"/>
<path d="M0 0 C2.32421875 0.05859375 2.32421875 0.05859375 5 1 C6.22126406 3.43951265 7.04460207 5.48689482 7.8125 8.0625 C8.02841797 8.72572266 8.24433594 9.38894531 8.46679688 10.07226562 C8.99663758 11.70888468 9.5008206 13.35377006 10 15 C8.35 15.33 6.7 15.66 5 16 C1.91532502 10.60540561 0.44356295 6.20988129 0 0 Z " fill="#D2D1D2" transform="translate(319,181)"/>
<path d="M0 0 C0.71542969 0.24621094 1.43085938 0.49242187 2.16796875 0.74609375 C2.16796875 1.73609375 2.16796875 2.72609375 2.16796875 3.74609375 C0.59375 5.24609375 0.59375 5.24609375 -1.51953125 6.74609375 C-2.24527344 7.26429688 -2.97101563 7.7825 -3.71875 8.31640625 C-6.04015257 9.88689301 -8.38889264 11.37182828 -10.83203125 12.74609375 C-11.49203125 11.09609375 -12.15203125 9.44609375 -12.83203125 7.74609375 C-11.28549167 6.37372756 -9.71910349 5.02370414 -8.14453125 3.68359375 C-7.27441406 2.92949219 -6.40429688 2.17539063 -5.5078125 1.3984375 C-2.83203125 -0.25390625 -2.83203125 -0.25390625 0 0 Z " fill="#D3D2D2" transform="translate(164.83203125,152.25390625)"/>
<path d="M0 0 C-0.125 1.8125 -0.125 1.8125 -1 4 C-2.98246398 5.03432904 -4.98413316 6.03238392 -7 7 C-8.85315257 9.04946399 -8.85315257 9.04946399 -10 11 C-11.32 10.67 -12.64 10.34 -14 10 C-14 6 -14 6 -12.57421875 4.33203125 C-11.95160156 3.83058594 -11.32898438 3.32914063 -10.6875 2.8125 C-10.07261719 2.30332031 -9.45773438 1.79414063 -8.82421875 1.26953125 C-5.60201008 -0.97290519 -3.62951773 -1.12640206 0 0 Z " fill="#D2D1D2" transform="translate(176,165)"/>
<path d="M0 0 C0.33 1.65 0.66 3.3 1 5 C-0.93269959 6.17460192 -2.87133313 7.33944472 -4.8125 8.5 C-5.89144531 9.1496875 -6.97039062 9.799375 -8.08203125 10.46875 C-11 12 -11 12 -14 12 C-14.3671875 9.73828125 -14.3671875 9.73828125 -14 7 C-11.4453125 4.98046875 -11.4453125 4.98046875 -8.125 3.1875 C-6.48917969 2.28064453 -6.48917969 2.28064453 -4.8203125 1.35546875 C-2 0 -2 0 0 0 Z " fill="#D2D1D3" transform="translate(159,137)"/>
<path d="M0 0 C1.9169986 0.31045732 3.83358723 0.62344671 5.75 0.9375 C7.35101563 1.19853516 7.35101563 1.19853516 8.984375 1.46484375 C11.36347593 1.88704171 13.66915211 2.37202884 16 3 C15.67 4.65 15.34 6.3 15 8 C9.72 7.01 4.44 6.02 -1 5 C-0.67 3.35 -0.34 1.7 0 0 Z " fill="#D1D0D1" transform="translate(357,119)"/>
<path d="M0 0 C1.65 0 3.3 0 5 0 C5.33 4.95 5.66 9.9 6 15 C4.68 15.33 3.36 15.66 2 16 C-0.14336161 12.5233662 -0.21277626 9.78770805 -0.125 5.75 C-0.10695313 4.67234375 -0.08890625 3.5946875 -0.0703125 2.484375 C-0.04710937 1.66453125 -0.02390625 0.8446875 0 0 Z " fill="#D3D2D4" transform="translate(269,198)"/>
<path d="M0 0 C1.32 0.66 2.64 1.32 4 2 C3.67 6.62 3.34 11.24 3 16 C1.68 16.33 0.36 16.66 -1 17 C-2.62929157 15.37070843 -2.17075442 13.55305904 -2.1875 11.3125 C-2.15782723 7.17611555 -1.62199703 3.85224294 0 0 Z " fill="#D1D0D2" transform="translate(251,197)"/>
<path d="M0 0 C2.375 1.5625 2.375 1.5625 4 3 C3.67 3.66 3.34 4.32 3 5 C-1.62 5 -6.24 5 -11 5 C-10.34 3.35 -9.68 1.7 -9 0 C-5.43564899 -1.188117 -3.62175183 -0.88695963 0 0 Z " fill="#FCFAF1" transform="translate(151,105)"/>
<path d="M0 0 C0.33 0 0.66 0 1 0 C1.57446809 21.53191489 1.57446809 21.53191489 -2 32 C-2.33 32 -2.66 32 -3 32 C-3.05472088 30.60461746 -3.09311538 29.20859103 -3.125 27.8125 C-3.14820313 27.03519531 -3.17140625 26.25789063 -3.1953125 25.45703125 C-3 23 -3 23 -2.03125 20.78125 C-0.55226887 16.79248271 -0.53499777 12.91077459 -0.375 8.6875 C-0.33632813 7.85154297 -0.29765625 7.01558594 -0.2578125 6.15429688 C-0.16404841 4.10320741 -0.08095755 2.05163485 0 0 Z " fill="#F8EB63" transform="translate(355,108)"/>
<path d="M0 0 C0.33 0 0.66 0 1 0 C1.14575327 3.39537852 1.23421542 6.78994902 1.3125 10.1875 C1.3753418 11.62706055 1.3753418 11.62706055 1.43945312 13.09570312 C1.52188596 17.86032077 1.53028931 20.24335656 -1.26953125 24.23828125 C-4 26 -4 26 -6.1706543 25.61010742 C-6.77433838 25.40877197 -7.37802246 25.20743652 -8 25 C-6.86433594 24.38769531 -5.72867187 23.77539062 -4.55859375 23.14453125 C-2.18217433 21.44708881 -1.15897544 20.54167268 -0.32861328 17.71240234 C-0.08704516 15.01838151 -0.03000808 12.39197448 -0.0625 9.6875 C-0.04638672 8.75615234 -0.03027344 7.82480469 -0.01367188 6.86523438 C0.02155757 4.5753206 0.02514292 2.28991504 0 0 Z " fill="#F6F8C4" transform="translate(37,33)"/>
<path d="M0 0 C6.4 -0.49230769 6.4 -0.49230769 9.4375 2 C10.2109375 2.99 10.2109375 2.99 11 4 C6.83861737 4.08159574 3.0527516 3.98248524 -1 3 C-0.67 2.01 -0.34 1.02 0 0 Z " fill="#FBF9EE" transform="translate(360,104)"/>
<path d="M0 0 C0 4.13781054 -1.71509607 5.20919996 -4.5 8.1875 C-5.3353125 9.08855469 -6.170625 9.98960937 -7.03125 10.91796875 C-7.6809375 11.60503906 -8.330625 12.29210937 -9 13 C-9.33 11.68 -9.66 10.36 -10 9 C-6.7 6.03 -3.4 3.06 0 0 Z " fill="#F3DF40" transform="translate(344,183)"/>
<path d="M0 0 C0.66 0.33 1.32 0.66 2 1 C-0.31 3.64 -2.62 6.28 -5 9 C-5.99 8.67 -6.98 8.34 -8 8 C-5.36 5.36 -2.72 2.72 0 0 Z " fill="#3776A7" transform="translate(325,238)"/>
<path d="M0 0 C0.66 0 1.32 0 2 0 C2 0.99 2 1.98 2 3 C-3.08086796 3.84681133 -7.84828377 4.09038099 -13 4 C-13 3.67 -13 3.34 -13 3 C-12.14535156 2.86722656 -11.29070312 2.73445313 -10.41015625 2.59765625 C-9.30542969 2.42105469 -8.20070312 2.24445313 -7.0625 2.0625 C-5.96035156 1.88847656 -4.85820312 1.71445312 -3.72265625 1.53515625 C-1.09573071 1.28154864 -1.09573071 1.28154864 0 0 Z " fill="#D0C043" transform="translate(188,410)"/>
<path d="M0 0 C1.98 1.65 3.96 3.3 6 5 C5.34 6.32 4.68 7.64 4 9 C0 2.25 0 2.25 0 0 Z " fill="#C9B336" transform="translate(161,174)"/>
<path d="M0 0 C4.29 0.33 8.58 0.66 13 1 C13 1.33 13 1.66 13 2 C9.7 2 6.4 2 3 2 C2.67 2.66 2.34 3.32 2 4 C1.34 2.68 0.68 1.36 0 0 Z " fill="#F8F2C1" transform="translate(238,196)"/>
<path d="M0 0 C0.86625 0.3403125 0.86625 0.3403125 1.75 0.6875 C0 2.25 0 2.25 -2.25 3.6875 C-4.5 3.375 -4.5 3.375 -6.25 2.6875 C-2.80384615 -0.38942308 -2.80384615 -0.38942308 0 0 Z " fill="#F9F082" transform="translate(35.25,55.3125)"/>
</svg>
