<?xml version="1.0" encoding="UTF-8"?>
<svg version="1.1" xmlns="http://www.w3.org/2000/svg" width="324" height="137">

<path d="M0 0 C4.79279281 -0.08323902 8.95774006 0.54238066 13.5625 1.8125 C14.20896484 1.97814453 14.85542969 2.14378906 15.52148438 2.31445312 C21.04995739 3.80483496 24.79300336 5.43416651 28.3125 10 C30.78622713 14.75561419 30.83031895 19.78085232 30 25 C28.7295036 27.04049422 27.40568804 29.05017465 26 31 C26.24150489 36.24518431 28.39346211 39.898408 31.0625 44.25 C35 50.76538462 35 50.76538462 35 53 C31.04 53 27.08 53 23 53 C19.7 47.06 16.4 41.12 13 35 C12.34 35 11.68 35 11 35 C10.67 40.61 10.34 46.22 10 52 C7.36 52 4.72 52 2 52 C0 50 0 50 -0.24050903 47.86129761 C-0.23606781 46.9774942 -0.23162659 46.0936908 -0.22705078 45.18310547 C-0.22689972 44.18221893 -0.22674866 43.1813324 -0.22659302 42.15011597 C-0.21627045 41.06674957 -0.20594788 39.98338318 -0.1953125 38.8671875 C-0.1924826 37.76021515 -0.18965271 36.6532428 -0.18673706 35.51272583 C-0.17551519 31.96670863 -0.15040691 28.42094125 -0.125 24.875 C-0.1149728 22.47526406 -0.1058465 20.07552417 -0.09765625 17.67578125 C-0.07556932 11.78376849 -0.04207207 5.89190209 0 0 Z " fill="#FD0E07" transform="translate(134,55)"/>
<path d="M0 0 C1.6038184 2.53157467 2.93493465 4.89262832 4.25 7.5625 C5.4875 10.016875 6.725 12.47125 8 15 C10.31 9.72 12.62 4.44 15 -1 C23.49609375 -1.09765625 23.49609375 -1.09765625 26 -1 C27.6140925 0.6140925 27.12734318 2.36476408 27.12939453 4.59570312 C27.13254669 5.57341675 27.13569885 6.55113037 27.13894653 7.55847168 C27.1369223 8.62198853 27.13489807 9.68550537 27.1328125 10.78125 C27.13376923 11.86506958 27.13472595 12.94888916 27.13571167 14.06555176 C27.13639365 16.3622239 27.13453811 18.65889795 27.13037109 20.95556641 C27.12502312 24.48474428 27.1303155 28.01379487 27.13671875 31.54296875 C27.13605797 33.76822945 27.13477682 35.99349007 27.1328125 38.21875 C27.13483673 39.28226685 27.13686096 40.34578369 27.13894653 41.44152832 C27.13421829 42.90809875 27.13421829 42.90809875 27.12939453 44.40429688 C27.12859894 45.26953979 27.12780334 46.13478271 27.12698364 47.02624512 C27 49 27 49 26 50 C23.96875 49.9140625 23.96875 49.9140625 21.5 49.625 C20.27796875 49.48964844 20.27796875 49.48964844 19.03125 49.3515625 C17 49 17 49 16 48 C15.91251793 46.07332493 15.89302666 44.14348139 15.90234375 42.21484375 C15.90556641 41.04501953 15.90878906 39.87519531 15.91210938 38.66992188 C15.92048828 37.43822266 15.92886719 36.20652344 15.9375 34.9375 C15.94201172 33.70193359 15.94652344 32.46636719 15.95117188 31.19335938 C15.96300392 28.12885883 15.97948827 25.06445279 16 22 C15.34 22 14.68 22 14 22 C13.773125 22.886875 13.54625 23.77375 13.3125 24.6875 C11.82811487 28.43380532 9.97596515 30.33729434 7 33 C3.98320986 28.46330032 1.46032495 24.31027254 0 19 C-0.66 19 -1.32 19 -2 19 C-2 26.59 -2 34.18 -2 42 C-8.69362796 40.66127441 -8.69362796 40.66127441 -11 38 C-11.35519237 35.00511724 -11.46627491 32.38357009 -11.390625 29.39453125 C-11.38496521 28.55532639 -11.37930542 27.71612152 -11.37347412 26.85148621 C-11.35108406 24.17124367 -11.30088453 21.49233837 -11.25 18.8125 C-11.22993832 16.99546202 -11.21168697 15.17840308 -11.1953125 13.36132812 C-11.15121086 8.90703688 -11.08216659 4.45374515 -11 0 C-3.02591941 -1.38012933 -3.02591941 -1.38012933 0 0 Z " fill="#FD0E07" transform="translate(89,53)"/>
<path d="M0 0 C0 10.56 0 21.12 0 32 C-8 36 -8 36 -11 36 C-11 32.04 -11 28.08 -11 24 C-14.63 24 -18.26 24 -22 24 C-22 28.95 -22 33.9 -22 39 C-28 41 -28 41 -33 41 C-33 28.13 -33 15.26 -33 2 C-29.37 2 -25.74 2 -22 2 C-22 6.29 -22 10.58 -22 15 C-18.7 14.34 -15.4 13.68 -12 13 C-11.95101562 12.14535156 -11.90203125 11.29070312 -11.8515625 10.41015625 C-11.77679688 9.30542969 -11.70203125 8.20070313 -11.625 7.0625 C-11.55539063 5.96035156 -11.48578125 4.85820313 -11.4140625 3.72265625 C-11.27742188 2.82417969 -11.14078125 1.92570312 -11 1 C-9 0 -9 0 0 0 Z " fill="#FD130D" transform="translate(228,63)"/>
<path d="M0 0 C-1.93112942 12.14465832 -11.75491567 21.11149569 -21.0390625 28.37890625 C-42.93576087 44 -42.93576087 44 -49 44 C-49 35.42 -49 26.84 -49 18 C-46.56625 17.566875 -44.1325 17.13375 -41.625 16.6875 C-31.9755962 14.87932692 -23.51677133 12.41244871 -14.6875 8.0625 C-14.00494141 7.72645752 -13.32238281 7.39041504 -12.61914062 7.04418945 C-8.75648622 5.07813642 -4.02385105 0 0 0 Z " fill="#FD0F08" transform="translate(294,44)"/>
<path d="M0 0 C1 1 1 1 1.375 3.8125 C1 7 1 7 -1.4375 9.25 C-2.283125 9.8275 -3.12875 10.405 -4 11 C-5.45500399 13.91000797 -5.20897384 16.5089333 -5.25 19.75 C-5.27578125 20.96171875 -5.3015625 22.1734375 -5.328125 23.421875 C-4.97183841 27.3070954 -3.90516142 29.63229043 -2 33 C-1.67 33.99 -1.34 34.98 -1 36 C2.25475494 38.02364196 5.99207229 39.20175679 9.5625 40.5625 C10.69816406 40.99691406 11.83382812 41.43132813 13.00390625 41.87890625 C16.60904489 43.22789555 19.5351213 44.17136767 23.375 44.25 C24.12523437 44.27578125 24.87546875 44.3015625 25.6484375 44.328125 C28.68141374 43.90491901 30.45775725 42.68829989 33 41 C34.72782886 39.93532585 36.45698406 38.87280099 38.1875 37.8125 C39.04730469 37.28269531 39.90710938 36.75289062 40.79296875 36.20703125 C43 35 43 35 45 35 C45 46.22 45 57.44 45 69 C38.56724078 66.42689631 35.08194234 63.40025402 30.9375 57.9375 C25.61150793 50.9240649 20.80543209 48.63050258 12.1875 47.1875 C3.33171037 45.43229845 -2.17654548 41.5326503 -7.58984375 34.37890625 C-12.5873902 25.9481423 -11.99803979 16.05465917 -9.6875 6.8125 C-8.1452889 1.23932443 -5.83912427 -0.46098349 0 0 Z " fill="#08A905" transform="translate(29,20)"/>
<path d="M0 0 C0.99 0.66 1.98 1.32 3 2 C3 2.99 3 3.98 3 5 C2.319375 4.835 1.63875 4.67 0.9375 4.5 C-5.2278546 3.45057794 -9.65111251 3.55293918 -15 7 C-17.34325664 9.55139853 -17.34325664 9.55139853 -19 12 C-17.88625 10.824375 -17.88625 10.824375 -16.75 9.625 C-12.12873837 5.21379571 -8.7385303 4.54517238 -2.47265625 4.68359375 C2.22044405 5.28413265 4.8442042 7.69009809 7.875 11.125 C9.84665599 16.16367643 10.12296283 21.25497975 8.05078125 26.3203125 C5.72405408 30.29850217 3.42935015 33.35186971 -1 35 C-3.7208182 35.21827459 -6.26096456 35.13927299 -9 35 C-9.61514196 27.74132492 -9.61514196 27.74132492 -6.5625 24.0625 C-5.716875 23.381875 -4.87125 22.70125 -4 22 C-2.64381501 20.87465895 -2.64381501 20.87465895 -2.9375 17.9375 C-2.958125 16.968125 -2.97875 15.99875 -3 15 C-6.04386724 14.91773332 -8.07175348 15.02391783 -11 16 C-11.12375 17.299375 -11.2475 18.59875 -11.375 19.9375 C-11.89863328 24.71849952 -12.86313835 29.33114101 -14 34 C-17.98288141 31.8979237 -20.45559972 29.72572898 -23 26 C-24.59203685 20.80718183 -25.16548072 15.60568191 -22.90625 10.5546875 C-17.19810256 1.35485413 -10.80255979 -1.47933144 0 0 Z " fill="#ECCA2A" transform="translate(32,6)"/>
<path d="M0 0 C1.12664062 0.01289062 2.25328125 0.02578125 3.4140625 0.0390625 C6.375 0.375 6.375 0.375 9.375 2.375 C9.78343923 5.08703652 9.50836867 7.6187142 9.375 10.375 C8.68792969 10.34019531 8.00085938 10.30539063 7.29296875 10.26953125 C6.39191406 10.24246094 5.49085938 10.21539062 4.5625 10.1875 C3.66917969 10.15269531 2.77585938 10.11789063 1.85546875 10.08203125 C-0.65702016 10.1679595 -0.65702016 10.1679595 -2.38671875 11.69921875 C-4.85579208 15.04064607 -4.78751117 18.2417919 -4.8125 22.25 C-4.83376953 23.79300781 -4.83376953 23.79300781 -4.85546875 25.3671875 C-4.61613068 28.4907522 -4.07645143 30.60711589 -2.625 33.375 C0.72827639 35.61051759 1.28243657 35.54783528 5.0625 35 C5.87074219 34.88914063 6.67898437 34.77828125 7.51171875 34.6640625 C8.12660156 34.56867188 8.74148437 34.47328125 9.375 34.375 C9.66796875 40.4296875 9.66796875 40.4296875 9.375 42.375 C5.85460293 44.72193138 4.17442991 44.70223764 0 44.75 C-1.68222656 44.79253906 -1.68222656 44.79253906 -3.3984375 44.8359375 C-7.91056641 44.19134766 -10.17687658 42.17166889 -12.98828125 38.68359375 C-15.77333053 33.19372294 -16.04284944 27.85843159 -16.125 21.8125 C-16.14344971 21.0093335 -16.16189941 20.20616699 -16.1809082 19.37866211 C-16.10728906 12.26530328 -14.1916079 7.09611941 -9.2890625 1.8984375 C-5.97605949 0.00390499 -3.79645368 -0.09600228 0 0 Z " fill="#FD0E07" transform="translate(182.625,62.625)"/>
<path d="M0 0 C9 1 9 1 10 2 C10.09326716 3.56547048 10.11745582 5.13512772 10.11352539 6.70336914 C10.11344986 7.70433121 10.11337433 8.70529327 10.11329651 9.73658752 C10.10813522 10.8251152 10.10297394 11.91364288 10.09765625 13.03515625 C10.0962413 14.14354355 10.09482635 15.25193085 10.09336853 16.39390564 C10.08775033 19.95013069 10.07519475 23.50629383 10.0625 27.0625 C10.05748734 29.46679597 10.05292403 31.87109292 10.04882812 34.27539062 C10.03777499 40.18361504 10.02101917 46.0918031 10 52 C3.375 52.125 3.375 52.125 0 51 C0 34.17 0 17.34 0 0 Z " fill="#FE0A03" transform="translate(120,53)"/>
<path d="M0 0 C0.99 0.66 1.98 1.32 3 2 C3 2.99 3 3.98 3 5 C2.319375 4.835 1.63875 4.67 0.9375 4.5 C-5.2278546 3.45057794 -9.65111251 3.55293918 -15 7 C-17.34325664 9.55139853 -17.34325664 9.55139853 -19 12 C-17.88625 10.824375 -17.88625 10.824375 -16.75 9.625 C-12.12873837 5.21379571 -8.7385303 4.54517238 -2.47265625 4.68359375 C2.22044405 5.28413265 4.8442042 7.69009809 7.875 11.125 C9.84665599 16.16367643 10.12296283 21.25497975 8.05078125 26.3203125 C5.72405408 30.29850217 3.42935015 33.35186971 -1 35 C-3.7208182 35.21827459 -6.26096456 35.13927299 -9 35 C-9 34.01 -9 33.02 -9 32 C-8.40832031 31.91363281 -7.81664063 31.82726562 -7.20703125 31.73828125 C-3.24596589 31.03394826 -0.36910459 30.23351515 3.0625 28.0625 C5.95089704 23.4969692 6.01008504 19.25559874 5 14 C2.7984026 11.10316132 1.21405538 9.60702769 -2 8 C-7.75210328 7.4825345 -7.75210328 7.4825345 -12.875 9.75 C-15.57471894 12.52687622 -15.57471894 12.52687622 -17 16 C-16.85317936 18.72666896 -16.45050267 21.29698398 -16 24 C-16.99 24 -17.98 24 -19 24 C-17.13433512 27.62793998 -17.13433512 27.62793998 -14 30 C-14.33 31.32 -14.66 32.64 -15 34 C-20.52864299 29.83134405 -23.2366407 26.97597173 -24.31640625 19.9375 C-24.78686747 14.17184762 -23.2061212 10.5401775 -19.7578125 5.953125 C-14.2209032 -0.19899645 -8.1107385 -1.11070623 0 0 Z " fill="#F04845" transform="translate(32,6)"/>
<path d="M0 0 C0.33 0 0.66 0 1 0 C0.9071875 1.6396875 0.9071875 1.6396875 0.8125 3.3125 C0.64402086 6.92126083 0.64402086 6.92126083 2.5 8.9375 C3.2425 9.4634375 3.2425 9.4634375 4 10 C4.99 9.67 5.98 9.34 7 9 C7 10.98 7 12.96 7 15 C5.02 14.34 3.04 13.68 1 13 C1.33 14.98 1.66 16.96 2 19 C1.01 19.33 0.02 19.66 -1 20 C-2.21869929 22.50447516 -2.21869929 22.50447516 -3 25 C-4.99954746 25.04254356 -7.00041636 25.04080783 -9 25 C-9.33 24.67 -9.66 24.34 -10 24 C-10 26.31 -10 28.62 -10 31 C-10.99 31 -11.98 31 -13 31 C-13.33 30.34 -13.66 29.68 -14 29 C-14.99 29 -15.98 29 -17 29 C-16.94070313 28.27296875 -16.88140625 27.5459375 -16.8203125 26.796875 C-17.03543042 23.44851786 -17.99682959 21.99985716 -19.875 19.25 C-22.90072713 14.49732484 -24.10655667 10.53934862 -25 5 C-23.1640625 4.3984375 -23.1640625 4.3984375 -21 4 C-17.08021813 6.42653164 -15.2343319 8.57697736 -14 13 C-13.6186926 15.32597511 -13.27539746 17.65912158 -13 20 C-10.03 20.33 -7.06 20.66 -4 21 C-3.67 20.34 -3.34 19.68 -3 19 C-3.66 19 -4.32 19 -5 19 C-5.33 16.69 -5.66 14.38 -6 12 C-4.02 12 -2.04 12 0 12 C-0.61875 11.443125 -1.2375 10.88625 -1.875 10.3125 C-4.06106379 7.93354822 -4.98785699 6.03642904 -6 3 C-3.525 3.495 -3.525 3.495 -1 4 C-0.67 2.68 -0.34 1.36 0 0 Z " fill="#27B527" transform="translate(288,80)"/>
<path d="M0 0 C1 1 1 1 1.11352539 3.59204102 C1.10828857 4.71795654 1.10305176 5.84387207 1.09765625 7.00390625 C1.09443359 8.21884766 1.09121094 9.43378906 1.08789062 10.68554688 C1.07951172 11.96494141 1.07113281 13.24433594 1.0625 14.5625 C1.05798828 15.84576172 1.05347656 17.12902344 1.04882812 18.45117188 C1.03699545 21.63416022 1.02051068 24.81705762 1 28 C-5.625 32 -5.625 32 -9 32 C-9 21.77 -9 11.54 -9 1 C-5.68024318 0.1700608 -3.35107416 -0.18113914 0 0 Z " fill="#FE140C" transform="translate(241,62)"/>
<path d="M0 0 C2.375 0.0625 2.375 0.0625 5 1 C6.8125 4.0625 6.8125 4.0625 8 7 C9.65 6.67 11.3 6.34 13 6 C13 6.66 13 7.32 13 8 C13.66 8 14.32 8 15 8 C15 8.99 15 9.98 15 11 C14.01 11.495 14.01 11.495 13 12 C13.33 13.98 13.66 15.96 14 18 C12.02 18.99 12.02 18.99 10 20 C9.67 18.02 9.34 16.04 9 14 C7.00291103 14.64234258 7.00291103 14.64234258 5 16 C3.87108243 18.39459647 3.87108243 18.39459647 3.25 21.125 C3.00765625 22.03507812 2.7653125 22.94515625 2.515625 23.8828125 C2.26039063 24.93082031 2.26039063 24.93082031 2 26 C1.34 26 0.68 26 0 26 C0.2165625 24.76636719 0.2165625 24.76636719 0.4375 23.5078125 C1.58687793 16.59558132 2.28464823 10.00550915 2 3 C1.34 2.67 0.68 2.34 0 2 C-0.33 2.99 -0.66 3.98 -1 5 C-1 1 -1 1 0 0 Z M24 2 C23.01 2.495 23.01 2.495 22 3 C22.680625 3.61875 23.36125 4.2375 24.0625 4.875 C26.84663468 9.36553981 25.90053544 12.95895922 25 18 C24.34 18 23.68 18 23 18 C22.67 16.68 22.34 15.36 22 14 C20.35 13.67 18.7 13.34 17 13 C16.67 10.69 16.34 8.38 16 6 C14.68 5.67 13.36 5.34 12 5 C12.66 4.67 13.32 4.34 14 4 C14 3.34 14 2.68 14 2 C17.74702285 0.96633852 20.22799206 0.74266402 24 2 Z " fill="#E7F6E7" transform="translate(237,105)"/>
<path d="M0 0 C1.88502599 1.5849301 2.90135781 2.48074122 3.36889648 4.94189453 C3.36962158 5.66489746 3.37034668 6.38790039 3.37109375 7.1328125 C3.38575684 7.93525391 3.40041992 8.73769531 3.41552734 9.56445312 C3.42277832 10.40943359 3.4300293 11.25441406 3.4375 12.125 C3.66588276 19.86964838 4.03738333 26.82882456 9.6328125 32.71875 C10.08398438 33.1415625 10.53515625 33.564375 11 34 C9.35 33.67 7.7 33.34 6 33 C5.67 33.66 5.34 34.32 5 35 C3.70623653 32.91794343 2.41493446 30.83442696 1.125 28.75 C0.76019531 28.16347656 0.39539063 27.57695313 0.01953125 26.97265625 C-5.05815648 18.75603428 -5.05815648 18.75603428 -4.8125 15.5625 C-4 13 -4 13 -2.5 10.6875 C-0.48638828 7.079779 -0.34764845 4.10225174 0 0 Z " fill="#FCEFEE" transform="translate(164,72)"/>
<path d="M0 0 C0.99 0.66 1.98 1.32 3 2 C3 2.99 3 3.98 3 5 C2.319375 4.835 1.63875 4.67 0.9375 4.5 C-5.2278546 3.45057794 -9.65111251 3.55293918 -15 7 C-18.8773372 11.29650879 -20.34651208 13.9597763 -20.29296875 19.828125 C-19.79100391 23.5493577 -18.12825271 25.93281227 -16 29 C-15.34 29.33 -14.68 29.66 -14 30 C-14.33 31.32 -14.66 32.64 -15 34 C-20.52864299 29.83134405 -23.2366407 26.97597173 -24.31640625 19.9375 C-24.78686747 14.17184762 -23.2061212 10.5401775 -19.7578125 5.953125 C-14.2209032 -0.19899645 -8.1107385 -1.11070623 0 0 Z " fill="#EE3E35" transform="translate(32,6)"/>
<path d="M0 0 C0.78375 0.185625 1.5675 0.37125 2.375 0.5625 C4.97089775 1.25962266 4.97089775 1.25962266 7 0 C7 12.21 7 24.42 7 37 C5.68 37.66 4.36 38.32 3 39 C1.68865282 35.09686563 1.96956491 31.22457296 2.12109375 27.171875 C2.14470474 26.42286926 2.16831573 25.67386353 2.19264221 24.90216064 C2.26900656 22.51790112 2.35314717 20.13398895 2.4375 17.75 C2.49074799 16.13022514 2.5434882 14.51043349 2.59570312 12.890625 C2.72458463 8.92686479 2.86043928 4.96339799 3 1 C2.01 1.33 1.02 1.66 0 2 C0 1.34 0 0.68 0 0 Z " fill="#F8EDE9" transform="translate(71,54)"/>
<path d="M0 0 C0.66 0 1.32 0 2 0 C2.64771508 1.91603157 3.29309948 3.83285113 3.9375 5.75 C4.29714844 6.81734375 4.65679687 7.8846875 5.02734375 8.984375 C6 12 6 12 6.44140625 14.328125 C6.62574219 14.87984375 6.81007813 15.4315625 7 16 C7.99 16.33 8.98 16.66 10 17 C9.67 18.32 9.34 19.64 9 21 C8.34 21 7.68 21 7 21 C6.67 20.01 6.34 19.02 6 18 C5.67 18.99 5.34 19.98 5 21 C4.34 20.67 3.68 20.34 3 20 C2.67 21.32 2.34 22.64 2 24 C2 22.02 2 20.04 2 18 C1.34 18 0.68 18 0 18 C-0.33 18.66 -0.66 19.32 -1 20 C-3 18.5 -3 18.5 -5 16 C-5.35800135 13.24128373 -5.18660165 10.79902476 -5 8 C-4.01 8.33 -3.02 8.66 -2 9 C-1.7834375 7.0509375 -1.7834375 7.0509375 -1.5625 5.0625 C-1.125 1.125 -1.125 1.125 0 0 Z " fill="#E7F6E6" transform="translate(293,71)"/>
<path d="M0 0 C0.33 0 0.66 0 1 0 C1.16435547 1.33804688 1.16435547 1.33804688 1.33203125 2.703125 C1.49058594 3.87359375 1.64914063 5.0440625 1.8125 6.25 C2.03873047 7.99023438 2.03873047 7.99023438 2.26953125 9.765625 C3.00474549 13.02101211 3.90013764 14.49167126 6 17 C6 17.66 6 18.32 6 19 C8.88019276 20.46652017 11.79308515 21.82047874 14.75 23.125 C15.54921875 23.47820313 16.3484375 23.83140625 17.171875 24.1953125 C17.77515625 24.46085937 18.3784375 24.72640625 19 25 C17.68 25.33 16.36 25.66 15 26 C15.33 26.99 15.66 27.98 16 29 C7.72471637 26.63563325 2.28971722 22.40708936 -2 15 C-2.96173945 12.30712955 -3.49466747 9.82986217 -4 7 C-3.01 6.67 -2.02 6.34 -1 6 C-0.67 4.02 -0.34 2.04 0 0 Z " fill="#13AD13" transform="translate(22,37)"/>
<path d="M0 0 C3.75212276 2.01502889 5.63644095 3.45466142 8 7 C8.6772783 12.08746258 8.82467221 16.55682364 6.25 21.0625 C1.76919252 24.92097311 -1.03723942 25.22933695 -7 25 C-7 24.67 -7 24.34 -7 24 C-6.38511719 23.81824219 -5.77023438 23.63648437 -5.13671875 23.44921875 C-4.32847656 23.19785156 -3.52023438 22.94648437 -2.6875 22.6875 C-1.88699219 22.44386719 -1.08648438 22.20023438 -0.26171875 21.94921875 C2.89178885 20.62572592 4.48076458 19.03847083 6 16 C6.37340899 11.05233086 6.22237243 7.88907017 3 4 C0.06812987 2.25672587 -1.64905716 1.9856758 -5.0625 2.125 C-8.49884678 3.14859266 -9.85767857 4.14357143 -12 7 C-12.99077298 9.45286596 -12.99077298 9.45286596 -13 12 C-12.505 12.928125 -12.505 12.928125 -12 13.875 C-10.50303229 17.05605637 -11.35277233 19.63441612 -12 23 C-15.05561782 21.94633868 -15.98224736 21.02789701 -17.75 18.25 C-19.04143139 14.89227838 -19.25425628 12.55958794 -19 9 C-18.67 9 -18.34 9 -18 9 C-17.67 11.64 -17.34 14.28 -17 17 C-16.34 16.67 -15.68 16.34 -15 16 C-15.2475 14.96875 -15.495 13.9375 -15.75 12.875 C-16.05854752 8.09251345 -15.03776739 6.61248014 -12 3 C-8.62582338 -0.61518924 -4.70164671 -0.8318298 0 0 Z " fill="#FAF0E6" transform="translate(30,13)"/>
<path d="M0 0 C3.259445 0.2328175 5.63476753 1.72929884 7.89453125 4.05859375 C10.41779313 8.48990525 10.50999045 14.00482804 11 19 C9.68 19.33 8.36 19.66 7 20 C2.85543016 13.75707877 0.06633266 8.46432859 -1 1 C-0.67 0.67 -0.34 0.34 0 0 Z " fill="#22B324" transform="translate(264,84)"/>
<path d="M0 0 C0.33 0.99 0.66 1.98 1 3 C3.00016466 4.20882096 3.00016466 4.20882096 5 5 C5 5.99 5 6.98 5 8 C2.03 7.505 2.03 7.505 -1 7 C-0.67 9.31 -0.34 11.62 0 14 C0.66 14 1.32 14 2 14 C1.67 14.99 1.34 15.98 1 17 C-3.455 16.01 -3.455 16.01 -8 15 C-8.33 15.99 -8.66 16.98 -9 18 C-9.33 14.04 -9.66 10.08 -10 6 C-5 4 -5 4 -1 4 C-0.67 2.68 -0.34 1.36 0 0 Z " fill="#F9FCF8" transform="translate(283,85)"/>
<path d="M0 0 C0.33 0.66 0.66 1.32 1 2 C1.99 2 2.98 2 4 2 C4 1.34 4 0.68 4 0 C6 1 6 1 8 3 C8.66524275 7.39751379 8.45909208 11.06268701 6.5 15.0625 C6.005 15.701875 5.51 16.34125 5 17 C4.01 16.67 3.02 16.34 2 16 C2 14.35 2 12.7 2 11 C1.01 11.33 0.02 11.66 -1 12 C-2.125 10.4375 -2.125 10.4375 -3 8 C-1.58695652 1.58695652 -1.58695652 1.58695652 0 0 Z M-3 12 C-1 13 -1 13 -1 13 Z " fill="#FC0A04" transform="translate(156,68)"/>
<path d="M0 0 C0.28536621 0.58120605 0.57073242 1.16241211 0.86474609 1.76123047 C1.90889648 3.82033994 3.01224998 5.81995591 4.1640625 7.8203125 C4.76347656 8.87025391 4.76347656 8.87025391 5.375 9.94140625 C6.21363127 11.40639025 7.05481112 12.86991804 7.8984375 14.33203125 C8.29546875 15.02941406 8.6925 15.72679688 9.1015625 16.4453125 C9.46588379 17.07969238 9.83020508 17.71407227 10.20556641 18.36767578 C11 20 11 20 11 22 C7.04 22 3.08 22 -1 22 C0.32 21.67 1.64 21.34 3 21 C3.33 19.68 3.66 18.36 4 17 C3.01 16.67 2.02 16.34 1 16 C1 15.34 1 14.68 1 14 C0.34 14 -0.32 14 -1 14 C-1 12.68 -1 11.36 -1 10 C-1.66 9.67 -2.32 9.34 -3 9 C-2.67 7.02 -2.34 5.04 -2 3 C-1.34 3 -0.68 3 0 3 C0 2.01 0 1.02 0 0 Z " fill="#FC120B" transform="translate(158,86)"/>
<path d="M0 0 C-0.99 0.495 -0.99 0.495 -2 1 C-1.319375 1.61875 -0.63875 2.2375 0.0625 2.875 C2.84663468 7.36553981 1.90053544 10.95895922 1 16 C0.34 16 -0.32 16 -1 16 C-1.33 14.68 -1.66 13.36 -2 12 C-3.65 11.67 -5.3 11.34 -7 11 C-9 3.375 -9 3.375 -9 0 C-5.35959446 -1.21346851 -3.64040554 -1.21346851 0 0 Z " fill="#F8FCF7" transform="translate(261,107)"/>
<path d="M0 0 C6.40504648 -0.48339973 6.40504648 -0.48339973 9 1.625 C10.32886701 4.78105914 9.87009103 6.73715865 9 10 C8 11 8 11 4.5 11.125 C1 11 1 11 0 10 C-0.07205511 8.31391034 -0.08386068 6.62499341 -0.0625 4.9375 C-0.05347656 4.01839844 -0.04445312 3.09929687 -0.03515625 2.15234375 C-0.02355469 1.44207031 -0.01195312 0.73179688 0 0 Z " fill="#FCE5E3" transform="translate(144,68)"/>
<path d="M0 0 C2.58297781 2.18991597 4.48415844 3.96831688 6 7 C6.3744411 11.96134453 6.23898133 15.11322241 3 19 C-0.77566966 21.38031348 -3.53807725 22.39369907 -8 22 C-8 21.34 -8 20.68 -8 20 C-6.741875 19.7525 -5.48375 19.505 -4.1875 19.25 C-1.49836373 18.55986768 -0.15064198 18.12710417 2 16.3125 C3.45827639 12.94023584 3.51029398 10.63584463 3 7 C0.52506641 3.57876827 -0.88263781 2.20522979 -5.0625 1.4375 C-8.74345769 2.14236424 -9.87000351 2.9233384 -12 6 C-12.80765878 9.64721696 -12.80765878 9.64721696 -13 13 C-15 10 -15 10 -14.9375 7.625 C-12.25951026 0.12662874 -7.19722581 -1.70781629 0 0 Z " fill="#F6C13E" transform="translate(31,15)"/>
<path d="M0 0 C3.10679749 1.33773574 5.44873594 2.89747189 7 6 C6.01 7.485 6.01 7.485 5 9 C4.21625 8.195625 3.4325 7.39125 2.625 6.5625 C-0.66088455 3.3548508 -1.20332644 3.06530111 -5.8125 2.6875 C-9.03706396 2.72846542 -9.99286634 2.99565777 -12.875 4.75 C-15.57471894 7.52687622 -15.57471894 7.52687622 -17 11 C-16.85317936 13.72666896 -16.45050267 16.29698398 -16 19 C-16.99 19 -17.98 19 -19 19 C-20.01434707 15.67268318 -20.81279192 12.48207024 -21 9 C-19 6.125 -19 6.125 -16 4 C-15.113125 3.236875 -14.22625 2.47375 -13.3125 1.6875 C-8.79165019 -0.61557443 -4.98235045 -0.82366247 0 0 Z " fill="#F1622F" transform="translate(32,11)"/>
<path d="M0 0 C2.69990662 1.79993774 4.5418865 3.083773 6 6 C6.39447548 10.18144011 6.45035186 12.30946048 4.125 15.875 C1.4275772 18.5724228 0.71494458 18.98570111 -3.125 19.0625 C-4.07375 19.041875 -5.0225 19.02125 -6 19 C-5.67 18.01 -5.34 17.02 -5 16 C-2.67793475 15.29508733 -0.34406932 14.62787571 2 14 C3.39935013 11.20129973 3.25265405 9.09501208 3 6 C2 4 2 4 0 3 C-3 2.5 -3 2.5 -6 3 C-7.79252059 4.29209912 -7.79252059 4.29209912 -9 6 C-9.66 6.66 -10.32 7.32 -11 8 C-10.67842796 5.02545866 -10.37860258 3.40664722 -8.3125 1.1875 C-5.24756099 -0.3863876 -3.40910465 -0.48701495 0 0 Z " fill="#FBF5E3" transform="translate(29,16)"/>
<path d="M0 0 C2.5 0.3125 2.5 0.3125 5 1 C6.83336914 4.66673828 6.26202558 8.98014412 6 13 C5.125 15.625 5.125 15.625 4 18 C3.26078687 20.65217684 2.6358559 23.32032155 2 26 C1.34 26 0.68 26 0 26 C0.2165625 24.76636719 0.2165625 24.76636719 0.4375 23.5078125 C1.58687793 16.59558132 2.28464823 10.00550915 2 3 C1.34 2.67 0.68 2.34 0 2 C-0.33 2.99 -0.66 3.98 -1 5 C-1 1 -1 1 0 0 Z " fill="#22B222" transform="translate(237,105)"/>
<path d="M0 0 C3.3 0.33 6.6 0.66 10 1 C10 2.32 10 3.64 10 5 C8.00045254 5.04254356 5.99958364 5.04080783 4 5 C3.67 4.67 3.34 4.34 3 4 C3 6.31 3 8.62 3 11 C2.01 11 1.02 11 0 11 C-0.33 10.34 -0.66 9.68 -1 9 C-1.99 9 -2.98 9 -4 9 C-3.67 7.35 -3.34 5.7 -3 4 C-2.01 4 -1.02 4 0 4 C0 2.68 0 1.36 0 0 Z " fill="#14AE15" transform="translate(275,100)"/>
<path d="M0 0 C2.97 0 5.94 0 9 0 C9 3.3 9 6.6 9 10 C8.01 10.33 7.02 10.66 6 11 C4.68 8.03 3.36 5.06 2 2 C2 2.66 2 3.32 2 4 C1.34 4 0.68 4 0 4 C0 2.68 0 1.36 0 0 Z " fill="#FB0901" transform="translate(196,65)"/>
<path d="M0 0 C2.71595986 3.1540179 3.96846241 4.87384964 5 9 C1.04 9 -2.92 9 -7 9 C-5.68 8.67 -4.36 8.34 -3 8 C-2.67 6.02 -2.34 4.04 -2 2 C-1.34 2 -0.68 2 0 2 C0 1.34 0 0.68 0 0 Z " fill="#FB1E17" transform="translate(164,99)"/>
<path d="M0 0 C2.3125 0.5625 2.3125 0.5625 5 2 C7.22785867 6.07160378 8.42291117 9.34797716 8 14 C4.084859 10.64416485 1.9204226 6.71933638 0 2 C0 1.34 0 0.68 0 0 Z " fill="#EFF9EE" transform="translate(265,86)"/>
<path d="M0 0 C2 2 2 2 2.3125 5.3125 C1.97719179 9.26913684 1.52261608 10.9728607 -1 14 C-4.77566966 16.38031348 -7.53807725 17.39369907 -12 17 C-12 16.34 -12 15.68 -12 15 C-10.741875 14.7525 -9.48375 14.505 -8.1875 14.25 C-5.59902487 13.57772819 -4.16449479 13.13265709 -2.0625 11.4375 C-0.45343507 7.74611575 -0.24728373 3.99064774 0 0 Z " fill="#F48136" transform="translate(35,20)"/>
<path d="M0 0 C-0.33 3.96 -0.66 7.92 -1 12 C-2.32 12.33 -3.64 12.66 -5 13 C-5.16397229 4.30946882 -5.16397229 4.30946882 -2.5 1.3125 C-1 0 -1 0 0 0 Z " fill="#04AB02" transform="translate(23,31)"/>
<path d="M0 0 C2.31 0.33 4.62 0.66 7 1 C7.33 2.65 7.66 4.3 8 6 C6.02 6.99 4.04 7.98 2 9 C1.22678118 6.01758453 0.58803797 3.02419525 0 0 Z " fill="#FDEBEB" transform="translate(282,41)"/>
<path d="M0 0 C0.66 0 1.32 0 2 0 C2 0.66 2 1.32 2 2 C3.32 1.67 4.64 1.34 6 1 C6 1.66 6 2.32 6 3 C5.01 3.495 5.01 3.495 4 4 C4.33 5.98 4.66 7.96 5 10 C3.02 10.99 3.02 10.99 1 12 C0.63597631 10.56496445 0.28413409 9.12683494 -0.0625 7.6875 C-0.25972656 6.88699219 -0.45695313 6.08648437 -0.66015625 5.26171875 C-1 3 -1 3 0 0 Z " fill="#2AB52A" transform="translate(246,113)"/>
<path d="M0 0 C2 3.75 2 3.75 2 6 C2.66 6 3.32 6 4 6 C3.67 6.99 3.34 7.98 3 9 C-1.455 8.01 -1.455 8.01 -6 7 C-6.33 7.99 -6.66 8.98 -7 10 C-7 7.36 -7 4.72 -7 2 C-6.67 3.32 -6.34 4.64 -6 6 C-4.68 6 -3.36 6 -2 6 C-1.34 4.02 -0.68 2.04 0 0 Z " fill="#D5F0D4" transform="translate(281,93)"/>
<path d="M0 0 C0.66 0 1.32 0 2 0 C2.64964023 1.89453221 3.29455115 3.79068649 3.9375 5.6875 C4.29714844 6.74324219 4.65679687 7.79898438 5.02734375 8.88671875 C5.87206518 11.59050583 6.50893785 14.21386842 7 17 C4.1641438 14.53113696 2.80399248 11.9005012 1.25 8.5 C0.80140625 7.5409375 0.3528125 6.581875 -0.109375 5.59375 C-1 3 -1 3 0 0 Z " fill="#1EB11D" transform="translate(293,71)"/>
<path d="M0 0 C0.99 0.33 1.98 0.66 3 1 C2.484375 1.66 1.96875 2.32 1.4375 3 C-0.54941167 7.14659826 0.16664851 9.53020565 1 14 C0.01 14 -0.98 14 -2 14 C-2.93770846 10.68000518 -3.75143398 7.44750264 -4 4 C-2.125 1.375 -2.125 1.375 0 0 Z " fill="#F5954D" transform="translate(15,16)"/>
<path d="M0 0 C0.33 0 0.66 0 1 0 C1 3.3 1 6.6 1 10 C-1.375 9.3125 -1.375 9.3125 -4 8 C-5.3125 5.375 -5.3125 5.375 -6 3 C-3.525 3.495 -3.525 3.495 -1 4 C-0.67 2.68 -0.34 1.36 0 0 Z " fill="#14AD14" transform="translate(288,80)"/>
<path d="M0 0 C0.99 0.33 1.98 0.66 3 1 C2.01 1.495 2.01 1.495 1 2 C1.66 2.70125 2.32 3.4025 3 4.125 C5.30233203 7.43460229 5.36630156 9.06225823 5 13 C2.87961365 10.38485683 0.86908256 7.80362384 -1 5 C-0.625 2.3125 -0.625 2.3125 0 0 Z " fill="#15B016" transform="translate(258,106)"/>
<path d="M0 0 C2.97 0.495 2.97 0.495 6 1 C6 2.65 6 4.3 6 6 C3.6568787 5.74438677 1.32156597 5.40729228 -1 5 C-1.33 4.34 -1.66 3.68 -2 3 C-1.34 3 -0.68 3 0 3 C0 2.01 0 1.02 0 0 Z " fill="#FB130C" transform="translate(109,97)"/>
<path d="M0 0 C0.66 0 1.32 0 2 0 C2.64995297 1.41478135 3.29478722 2.83191487 3.9375 4.25 C4.47697266 5.43335937 4.47697266 5.43335937 5.02734375 6.640625 C5.90033279 8.75823698 6.51338508 10.76669362 7 13 C6.01 13 5.02 13 4 13 C3.32694982 11.39850114 2.66177773 9.79368971 2 8.1875 C1.62875 7.29417969 1.2575 6.40085937 0.875 5.48046875 C0 3 0 3 0 0 Z " fill="#14AE14" transform="translate(263,85)"/>
<path d="M0 0 C0.33 0 0.66 0 1 0 C1.33 3.96 1.66 7.92 2 12 C1.01 12.33 0.02 12.66 -1 13 C-1.66 12.67 -2.32 12.34 -3 12 C-3.625 9.4375 -3.625 9.4375 -4 7 C-3.01 6.67 -2.02 6.34 -1 6 C-0.67 4.02 -0.34 2.04 0 0 Z " fill="#1FAC17" transform="translate(22,37)"/>
<path d="M0 0 C2.24606427 1.77444972 2.95081002 2.58352485 3.29296875 5.48046875 C3.25816406 6.37378906 3.22335938 7.26710938 3.1875 8.1875 C3.16042969 9.08855469 3.13335937 9.98960938 3.10546875 10.91796875 C3.07066406 11.60503906 3.03585938 12.29210938 3 13 C2.01 12.34 1.02 11.68 0 11 C-0.29296875 8.3984375 -0.29296875 8.3984375 -0.1875 5.375 C-0.16042969 4.37210938 -0.13335937 3.36921875 -0.10546875 2.3359375 C-0.07066406 1.56507812 -0.03585938 0.79421875 0 0 Z " fill="#F04F3F" transform="translate(38,17)"/>
<path d="M0 0 C0.33 0 0.66 0 1 0 C1.33 2.64 1.66 5.28 2 8 C2.61875 8.12375 3.2375 8.2475 3.875 8.375 C6 9 6 9 8 11 C7.67 11.99 7.34 12.98 7 14 C3.94438218 12.94633868 3.01775264 12.02789701 1.25 9.25 C-0.04143139 5.89227838 -0.25425628 3.55958794 0 0 Z " fill="#F8CAAE" transform="translate(11,22)"/>
<path d="M0 0 C0.33 0 0.66 0 1 0 C1 7.26 1 14.52 1 22 C-1.475 21.01 -1.475 21.01 -4 20 C-2.68 19.67 -1.36 19.34 0 19 C0 12.73 0 6.46 0 0 Z " fill="#30B830" transform="translate(73,67)"/>
<path d="M0 0 C2.2477975 2.05233685 3.0022242 3.00667261 4 6 C3.01 7.485 3.01 7.485 2 9 C0.35 8.67 -1.3 8.34 -3 8 C-3.33 6.68 -3.66 5.36 -4 4 C-3.01 4.33 -2.02 4.66 -1 5 C-0.67 3.35 -0.34 1.7 0 0 Z " fill="#EFF8EE" transform="translate(292,75)"/>
<path d="M0 0 C0.66 0.33 1.32 0.66 2 1 C1.58578031 5.83256305 -0.46413986 7.82679218 -4 11 C-4.66 10.67 -5.32 10.34 -6 10 C-5.65066406 9.52949219 -5.30132812 9.05898438 -4.94140625 8.57421875 C-4.48636719 7.95160156 -4.03132813 7.32898437 -3.5625 6.6875 C-2.88380859 5.76517578 -2.88380859 5.76517578 -2.19140625 4.82421875 C-0.82663692 2.90322899 -0.82663692 2.90322899 0 0 Z " fill="#F03331" transform="translate(38,28)"/>
<path d="M0 0 C2.4375 0.625 2.4375 0.625 5 2 C5.8125 5.125 5.8125 5.125 6 8 C3 6.25 3 6.25 0 4 C0 2.68 0 1.36 0 0 Z " fill="#0CAA0D" transform="translate(20,48)"/>
<path d="M0 0 C1.98 0.66 3.96 1.32 6 2 C5.34 3.32 4.68 4.64 4 6 C3.34 6 2.68 6 2 6 C2 6.66 2 7.32 2 8 C1.34 8 0.68 8 0 8 C0 5.36 0 2.72 0 0 Z " fill="#F4FAF4" transform="translate(289,93)"/>
<path d="M0 0 C0.33 0.99 0.66 1.98 1 3 C3.00016466 4.20882096 3.00016466 4.20882096 5 5 C5 5.99 5 6.98 5 8 C3.68 7.67 2.36 7.34 1 7 C1 6.34 1 5.68 1 5 C0.34 5 -0.32 5 -1 5 C-0.67 3.35 -0.34 1.7 0 0 Z " fill="#E5F5E5" transform="translate(283,85)"/>
<path d="M0 0 C2.1385485 2.1385485 2.42655063 3.13275314 3 6 C1.35 6 -0.3 6 -2 6 C-2.33 4.35 -2.66 2.7 -3 1 C-2.01 0.67 -1.02 0.34 0 0 Z " fill="#99DB99" transform="translate(255,106)"/>
<path d="M0 0 C2.46278801 2.46278801 2.99771255 4.70676982 4 8 C2.68 7.67 1.36 7.34 0 7 C0 6.34 0 5.68 0 5 C-0.66 4.67 -1.32 4.34 -2 4 C-1.34 2.68 -0.68 1.36 0 0 Z " fill="#FB1711" transform="translate(91,58)"/>
<path d="M0 0 C0.66 1.32 1.32 2.64 2 4 C0.68 3.67 -0.64 3.34 -2 3 C-1.34 2.67 -0.68 2.34 0 2 C0 1.34 0 0.68 0 0 Z M-3 4 C-2.34 4 -1.68 4 -1 4 C-1 4.66 -1 5.32 -1 6 C-0.34 6.33 0.32 6.66 1 7 C-0.32 7.33 -1.64 7.66 -3 8 C-3 6.68 -3 5.36 -3 4 Z " fill="#EFF9EE" transform="translate(251,107)"/>
<path d="M0 0 C0.5534764 2.07553648 1 3.84365964 1 6 C0.34 6 -0.32 6 -1 6 C-1.33 6.66 -1.66 7.32 -2 8 C-2.66 6.02 -3.32 4.04 -4 2 C-2.68 1.34 -1.36 0.68 0 0 Z " fill="#FAF4EF" transform="translate(260,80)"/>
<path d="M0 0 C0.66 0 1.32 0 2 0 C2 0.66 2 1.32 2 2 C2.66 2.33 3.32 2.66 4 3 C3.01 3.99 2.02 4.98 1 6 C0.34 5.67 -0.32 5.34 -1 5 C-0.67 3.35 -0.34 1.7 0 0 Z " fill="#FA1610" transform="translate(159,79)"/>
<path d="M0 0 C0.66 0 1.32 0 2 0 C1.67 1.65 1.34 3.3 1 5 C0.01 4.01 -0.98 3.02 -2 2 C-1.34 1.34 -0.68 0.68 0 0 Z M-4 3 C-3.34 3.33 -2.68 3.66 -2 4 C-2.66 4.66 -3.32 5.32 -4 6 C-4.99 5.67 -5.98 5.34 -7 5 C-6.01 4.34 -5.02 3.68 -4 3 Z " fill="#FB342E" transform="translate(292,44)"/>
<path d="M0 0 C0.99 0.33 1.98 0.66 3 1 C3 3.31 3 5.62 3 8 C2.34 8 1.68 8 1 8 C0.67 5.36 0.34 2.72 0 0 Z " fill="#A1DFA3" transform="translate(259,115)"/>
<path d="M0 0 C0.33 0 0.66 0 1 0 C1 2.97 1 5.94 1 9 C-0.625 7.3125 -0.625 7.3125 -2 5 C-1.1875 2.25 -1.1875 2.25 0 0 Z M-3 7 C-2.34 7 -1.68 7 -1 7 C-1 7.66 -1 8.32 -1 9 C-1.99 8.67 -2.98 8.34 -4 8 C-3.67 7.67 -3.34 7.34 -3 7 Z " fill="#FDF2EF" transform="translate(119,94)"/>
<path d="M0 0 C2.31 0.33 4.62 0.66 7 1 C7 1.99 7 2.98 7 4 C6.38125 3.814375 5.7625 3.62875 5.125 3.4375 C2.95839822 2.76313824 2.95839822 2.76313824 1 4 C0.67 2.68 0.34 1.36 0 0 Z " fill="#FB8D89" transform="translate(282,41)"/>
<path d="M0 0 C1.98 0 3.96 0 6 0 C6 0.99 6 1.98 6 3 C4.824375 2.9690625 4.824375 2.9690625 3.625 2.9375 C1.01885039 2.81315937 1.01885039 2.81315937 -1 4 C-0.67 2.68 -0.34 1.36 0 0 Z " fill="#E0C320" transform="translate(23,18)"/>
<path d="M0 0 C0 0.33 0 0.66 0 1 C-7.42857143 3.14285714 -7.42857143 3.14285714 -11 4 C-6.99509003 -0.13840697 -5.70470474 -1.35111428 0 0 Z " fill="#F28329" transform="translate(27,12)"/>
<path d="M0 0 C0.99 0.33 1.98 0.66 3 1 C3 1.66 3 2.32 3 3 C2.01 3.495 2.01 3.495 1 4 C0.01 5.485 0.01 5.485 -1 7 C-1.66 6.34 -2.32 5.68 -3 5 C-2.01 3.35 -1.02 1.7 0 0 Z " fill="#FC1914" transform="translate(99,64)"/>
</svg>
