<?xml version="1.0" encoding="UTF-8"?>
<svg version="1.1" xmlns="http://www.w3.org/2000/svg" width="1202" height="305">

<path d="M0 0 C2.00204665 1.23919399 2.00204665 1.23919399 3.9765625 0.95703125 C7.65255552 -0.55621906 11.13749474 -2.43319771 14.63671875 -4.31054688 C27.55696731 -11.01150912 45.48429985 -11.2947794 59.37109375 -7.36328125 C62.3203125 -6.234375 62.3203125 -6.234375 65.12109375 -4.92578125 C66.11753906 -4.46300781 67.11398437 -4.00023438 68.140625 -3.5234375 C83.46712731 4.52346808 94.52963472 18.43615732 99.99609375 34.76171875 C100.74902238 37.18971577 101.43961867 39.62421926 102.12109375 42.07421875 C102.49041016 43.29625 102.49041016 43.29625 102.8671875 44.54296875 C106.10385787 57.22178785 104.83938276 72.4462179 102.12109375 85.07421875 C101.84652344 86.43160156 101.84652344 86.43160156 101.56640625 87.81640625 C97.41670258 105.49107001 86.6105681 120.42978545 71.43359375 130.26171875 C57.07778942 138.57297389 39.3583588 140.40051295 23.37109375 136.51171875 C18.10141196 134.99891815 13.99504415 132.86645161 9.37109375 129.94921875 C4.98293137 127.31700291 4.98293137 127.31700291 0.11328125 127.85546875 C-2.71386311 129.42696044 -5.27257038 131.16262508 -7.87890625 133.07421875 C-22.04722904 140.03409661 -38.57643645 139.86029454 -53.453125 135.3203125 C-67.80330189 130.10057883 -79.07573544 120.15662373 -86.87890625 107.07421875 C-87.32621094 106.35492188 -87.77351562 105.635625 -88.234375 104.89453125 C-98.57914114 86.49676254 -100.31436052 61.5862384 -95.37890625 41.32421875 C-89.80318262 22.98715581 -79.55716693 7.14975319 -62.7890625 -2.75 C-43.50099201 -12.79536332 -18.04818727 -12.56981677 0 0 Z " fill="#FAFCFD" transform="translate(773.87890625,87.92578125)"/>
<path d="M0 0 C9.03823254 7.50343834 14.26830968 15.82611925 15.8828125 27.46875 C16.04362378 30.57165465 16.06728079 33.67216904 16.08813477 36.77880859 C16.09803436 37.69652039 16.10793396 38.61423218 16.11813354 39.55975342 C16.14960209 42.57887229 16.17444784 45.59800687 16.19921875 48.6171875 C16.21980093 50.71611936 16.24079773 52.8150472 16.26219177 54.91397095 C16.31728186 60.42780284 16.36674858 65.94167133 16.41503906 71.45556641 C16.46534966 77.086296 16.52098576 82.7169727 16.57617188 88.34765625 C16.6835936 99.38797561 16.78507385 110.42834097 16.8828125 121.46875 C22.1628125 121.46875 27.4428125 121.46875 32.8828125 121.46875 C32.8828125 126.41875 32.8828125 131.36875 32.8828125 136.46875 C30.04842113 136.57776505 27.21831047 136.65652904 24.3828125 136.71875 C23.19558594 136.76902344 23.19558594 136.76902344 21.984375 136.8203125 C14.92720732 136.93600377 9.66856109 135.10788025 4.5078125 130.21875 C2.41117024 126.67058618 1.70326951 123.50266363 0.8828125 119.46875 C0.49351562 119.90445313 0.10421875 120.34015625 -0.296875 120.7890625 C-10.57274515 131.72789201 -26.5159407 138.89732547 -41.52734375 139.63671875 C-58.40182359 139.72695661 -73.39567604 137.97282287 -85.98828125 125.8046875 C-95.88188876 114.94894935 -95.99582461 103.21631331 -95.34667969 89.15380859 C-94.47250936 78.92601572 -88.67499168 71.07299945 -81.1171875 64.46875 C-67.09449001 54.38860423 -49.71004105 54.73257151 -33.17724609 53.81201172 C-16.51121468 53.80235009 -16.51121468 53.80235009 -1.88623047 47.50195312 C1.4285783 43.69216463 1.17482993 38.92309421 1.09375 34.06640625 C0.48384439 26.55553157 -0.9670227 19.37307399 -6.37890625 13.8671875 C-17.07847957 5.25944087 -32.14736064 6.59053479 -45.1171875 7.46875 C-53.12887971 8.96028844 -60.38985323 12.95312833 -65.61328125 19.28125 C-70.78464376 26.89251351 -72.38960795 35.44676364 -73.1171875 44.46875 C-77.7371875 44.46875 -82.3571875 44.46875 -87.1171875 44.46875 C-87.82625708 29.57828891 -83.21590622 19.35545442 -74.9296875 7.28125 C-56.73391131 -10.91452619 -21.35154761 -15.44244772 0 0 Z " fill="#F9FCFC" transform="translate(616.1171875,86.53125)"/>
<path d="M0 0 C7.74782653 6.3103819 12.98886826 14.71251329 14.12364769 24.78204536 C14.22112551 27.33315438 14.22719113 29.86739857 14.19604492 32.42016602 C14.19670204 33.85591225 14.19670204 33.85591225 14.19737244 35.32066345 C14.19529876 38.45357362 14.17203509 41.58593445 14.1484375 44.71875 C14.14283649 46.90306811 14.13856878 49.08739002 14.13557434 51.27171326 C14.12416538 56.99771684 14.09473226 62.72348913 14.0614624 68.44940186 C14.03067621 74.30152254 14.01705077 80.1536809 14.00195312 86.00585938 C13.96985872 97.47145532 13.91871033 108.93688024 13.85546875 120.40234375 C19.46546875 120.40234375 25.07546875 120.40234375 30.85546875 120.40234375 C30.85546875 125.35234375 30.85546875 130.30234375 30.85546875 135.40234375 C28.02107738 135.5113588 25.19096672 135.59012279 22.35546875 135.65234375 C21.16824219 135.70261719 21.16824219 135.70261719 19.95703125 135.75390625 C14.11245224 135.84971902 9.70942547 134.75032009 4.85546875 131.40234375 C1.25450154 127.24738159 0.29060694 123.84157118 -0.14453125 118.40234375 C-0.59441406 118.82644531 -1.04429687 119.25054687 -1.5078125 119.6875 C-17.0162961 133.82850208 -34.1203485 139.25881378 -54.95361328 138.53857422 C-69.37502613 137.6418561 -81.51434882 132.21068679 -91.14453125 121.40234375 C-98.51765674 110.02134959 -98.60083275 96.53857604 -96.08203125 83.52734375 C-93.36247508 73.30687219 -87.06987837 65.90728647 -78.14453125 60.40234375 C-64.95182258 53.48051141 -49.17172906 53.74947967 -34.62597656 52.80053711 C-17.2488679 52.4543486 -17.2488679 52.4543486 -2.14453125 45.40234375 C0.62072491 37.10657528 -0.24815689 25.41010715 -4.0390625 17.546875 C-7.34072689 12.0752121 -12.28881974 9.61653467 -18.14453125 7.40234375 C-23.67438384 6.10623004 -29.11483727 6.14175343 -34.76953125 6.08984375 C-35.79949219 6.06083984 -36.82945312 6.03183594 -37.890625 6.00195312 C-49.37034312 5.90809379 -57.82514419 9.01387367 -66.05078125 17.0703125 C-72.78400064 24.56981245 -73.59945053 33.7572944 -75.14453125 43.40234375 C-79.76453125 43.40234375 -84.38453125 43.40234375 -89.14453125 43.40234375 C-88.68879398 27.14771459 -85.01181093 14.771749 -73.01953125 3.27734375 C-53.7389752 -13.1336981 -20.52953313 -15.29431521 0 0 Z " fill="#FAFCFD" transform="translate(307.14453125,87.59765625)"/>
<path d="M0 0 C11.26622966 9.57527657 18.19317765 23.20543633 20.1875 37.8125 C21.87694059 59.57646989 19.52615108 80.4971272 5.6484375 98.109375 C-2.34723146 106.89191932 -12.03437756 111.20610481 -23.828125 111.9375 C-36.81177926 112.31113034 -48.0137453 109.11439694 -58.234375 100.85546875 C-69.70274351 89.92602733 -74.66897679 74.9630666 -75.11328125 59.3515625 C-75.1277181 57.04691691 -75.13145931 54.74218176 -75.125 52.4375 C-75.14111328 51.29539063 -75.15722656 50.15328125 -75.17382812 48.9765625 C-75.18308194 32.68985513 -69.91171774 17.09088203 -59.00390625 4.76953125 C-43.59887181 -9.73874442 -17.4250142 -12.55068025 0 0 Z " fill="#00A7BC" transform="translate(170.8125,100.1875)"/>
<path d="M0 0 C1.11117187 -0.01160156 2.22234375 -0.02320312 3.3671875 -0.03515625 C18.82306083 0.01939389 31.22493072 5.82243716 42.36328125 16.5 C60.31539055 36.07444807 61.92895377 60.40287987 61.18359375 85.78320312 C60.84581601 92.39142929 59.50592593 98.22854324 57 104.375 C56.61457031 105.35597656 56.22914063 106.33695312 55.83203125 107.34765625 C54.66397412 110.09580361 53.38049404 112.72803502 52 115.375 C51.39091797 116.60089844 51.39091797 116.60089844 50.76953125 117.8515625 C43.17547391 131.88163911 31.80174094 139.9185707 17.19140625 145.43554688 C11.66809328 147.06144255 6.0948703 146.74401061 0.375 146.75 C-0.83285156 146.77449219 -2.04070312 146.79898438 -3.28515625 146.82421875 C-13.58883806 146.85749221 -22.80578159 144.91001088 -31.5625 139.25 C-32.34753906 138.75242188 -33.13257812 138.25484375 -33.94140625 137.7421875 C-35.62877108 136.62154672 -37.31460294 135.49859804 -39 134.375 C-39 133.715 -39 133.055 -39 132.375 C-39.86625 132.0346875 -39.86625 132.0346875 -40.75 131.6875 C-43 130.375 -43 130.375 -47 125.375 C-47.33 146.495 -47.66 167.615 -48 189.375 C-52.95 189.375 -57.9 189.375 -63 189.375 C-63 127.665 -63 65.955 -63 2.375 C-58.05 2.375 -53.1 2.375 -48 2.375 C-47.67 8.975 -47.34 15.575 -47 22.375 C-44.40125 19.6215625 -44.40125 19.6215625 -41.75 16.8125 C-29.74868821 4.57664564 -16.95786136 -0.17705424 0 0 Z M-33.8125 28.125 C-47.96974231 45.70301138 -49.21790742 65.70207841 -48 87.375 C-46.31347396 101.56211949 -40.52915912 113.68281697 -30 123.375 C-18.97598136 131.59542207 -6.15422871 134.62227797 7.4453125 133.1015625 C18.36049722 131.28806786 27.5216384 126.2038554 34.25390625 117.44140625 C46.68831418 99.85314531 49.35635882 78.08793739 46.69970703 56.99023438 C44.10339279 42.76838566 37.27259977 29.89430118 25.99609375 20.75 C24.04828416 19.42785046 22.13154636 18.3718829 20 17.375 C19.32195312 17.05789062 18.64390625 16.74078125 17.9453125 16.4140625 C0.35373402 9.7791765 -21.05825398 14.44368324 -33.8125 28.125 Z " fill="#F8FBFC" transform="translate(144,78.625)"/>
<path d="M0 0 C-0.65355469 0.93005859 -0.65355469 0.93005859 -1.3203125 1.87890625 C-14.95178953 22.14908963 -19.60730269 47.61509047 -14.97314453 71.65307617 C-12.73755237 81.56097146 -8.69798542 92.2873309 -2.19140625 100.19921875 C-1 102 -1 102 -1.01953125 104.1171875 C-2.40782577 106.78315547 -3.88940521 107.12956419 -6.6875 108.125 C-7.96173828 108.59292969 -7.96173828 108.59292969 -9.26171875 109.0703125 C-10.61716797 109.53050781 -10.61716797 109.53050781 -12 110 C-12.95132813 110.36222656 -13.90265625 110.72445312 -14.8828125 111.09765625 C-26.02359764 114.32262037 -38.37907523 112.01114268 -48.5625 106.875 C-63.19741146 98.08880764 -70.44724182 85.0278143 -74.75 68.9375 C-78.86955739 49.80294383 -75.69064767 30.0176354 -65.75 13.25 C-59.26104703 3.55145739 -50.05034248 -3.4473393 -38.71484375 -6.64453125 C-24.8488724 -8.4600757 -11.9750377 -7.54948029 0 0 Z " fill="#01A7BC" transform="translate(767,100)"/>
<path d="M0 0 C1.41152344 0.81984375 1.41152344 0.81984375 2.8515625 1.65625 C15.96692581 10.18304268 22.71999407 23.98824599 26.3125 38.875 C29.50936702 57.69084587 26.03358427 77.93629625 16.03515625 94.17578125 C9.07986586 103.82774853 -1.89643195 111.36694447 -13.68359375 113.75390625 C-27.12955689 115.18239812 -37.91262292 113.83549274 -49 106 C-48.49210938 105.175 -47.98421875 104.35 -47.4609375 103.5 C-34.09187643 81.27580999 -29.00925814 57.04277937 -35.01416016 31.43212891 C-37.1625764 23.41583949 -40.91841055 16.1839899 -45 9 C-45.37640625 8.33661621 -45.7528125 7.67323242 -46.140625 6.98974609 C-47.08973732 5.32420435 -48.04431654 3.66177995 -49 2 C-35.32981543 -7.53733807 -14.4546596 -8.64736234 0 0 Z " fill="#01A7BC" transform="translate(837,98)"/>
<path d="M0 0 C8.24114329 6.84581744 12.96394581 15.10538667 15 25.625 C15.47382176 30.98028782 15.31100838 36.38126294 15.25 41.75 C10.63 41.75 6.01 41.75 1.25 41.75 C1.15203125 40.615625 1.0540625 39.48125 0.953125 38.3125 C-0.00543003 28.23761744 -0.79215992 20.44204749 -8.1875 13 C-17.08402988 5.94413147 -26.94565642 5.38334604 -37.875 5.25 C-38.87595703 5.23138916 -39.87691406 5.21277832 -40.90820312 5.19360352 C-50.29139083 5.27292626 -59.46971964 7.43417016 -66.37890625 14.14453125 C-71.36694347 19.98522441 -71.2829957 26.06031493 -71.09375 33.49609375 C-70.65223342 37.67544955 -69.77062798 39.80682402 -66.75 42.75 C-62.06300524 45.69446787 -57.59749331 47.65915007 -52.25 49.125 C-51.53150879 49.32996094 -50.81301758 49.53492188 -50.07275391 49.74609375 C-44.7704278 51.24027381 -39.4379216 52.61439535 -34.10253906 53.98486328 C6.41692431 64.39712945 6.41692431 64.39712945 14.75 78.2421875 C20.15719486 88.59573675 20.4221541 98.56589096 17.25 109.75 C13.0443024 121.26811655 4.51585672 127.78656081 -6.2265625 132.9375 C-24.56248757 140.85396289 -46.6116013 139.40910906 -65.0625 132.625 C-75.88267913 127.76101638 -84.09237797 118.71477402 -88.5 107.75 C-88.93940456 106.42398623 -89.35625941 105.09028252 -89.75 103.75 C-89.95496094 103.08742188 -90.15992188 102.42484375 -90.37109375 101.7421875 C-92.23066796 94.79122736 -91.88893977 87.90539818 -91.75 80.75 C-87.13 80.75 -82.51 80.75 -77.75 80.75 C-77.688125 82.60625 -77.62625 84.4625 -77.5625 86.375 C-76.80768426 96.10255494 -74.30019496 107.05778174 -66.75 113.75 C-53.79801322 122.91978896 -39.29023681 123.97409161 -24 122 C-14.79812372 120.40844527 -5.31610175 117.37629416 0.5625 109.75 C4.18555371 103.30901563 4.35747613 95.5464074 2.70703125 88.3984375 C0.14645786 82.17131535 -4.80044004 79.40523839 -10.75 76.75 C-20.88288904 72.9295952 -31.44096229 70.55850386 -41.94018555 67.98266602 C-72.87837502 60.31767725 -72.87837502 60.31767725 -81.75 48.75 C-86.77339157 39.86363557 -88.49558772 29.73235087 -85.99609375 19.734375 C-82.11880174 8.60426616 -75.43309276 0.57884657 -65 -5.0625 C-45.30047114 -14.00584439 -17.75115185 -12.99585161 0 0 Z " fill="#F9FCFC" transform="translate(1101.75,88.25)"/>
<path d="M0 0 C14.58396114 -0.39478876 28.18427631 3.30651293 39.38671875 12.890625 C49.43428701 22.83371248 54.5468164 36.06979473 54.88113403 50.12002563 C54.88683098 51.89202533 54.88184664 53.66408297 54.86767578 55.43603516 C54.86796783 56.41285248 54.86825989 57.3896698 54.86856079 58.39608765 C54.86718007 61.58837116 54.85167866 64.78041408 54.8359375 67.97265625 C54.83220289 70.20038729 54.82935804 72.42811999 54.82736206 74.65585327 C54.81976088 80.49192923 54.80014283 86.32790413 54.7779541 92.16394043 C54.75741965 98.13011305 54.74834415 104.09630215 54.73828125 110.0625 C54.71689342 121.74874208 54.68280027 133.43490948 54.640625 145.12109375 C50.020625 145.12109375 45.400625 145.12109375 40.640625 145.12109375 C40.63515656 143.3260994 40.63515656 143.3260994 40.62957764 141.49484253 C40.59249149 130.16761202 40.53457098 118.84064995 40.45672226 107.51362419 C40.41736484 101.69152645 40.38511897 95.86957732 40.36962891 90.04736328 C40.35438484 84.41911551 40.31980272 78.79127661 40.27231598 73.16321182 C40.25758175 71.02568255 40.2495886 68.88809487 40.24874115 66.75051498 C40.3030961 45.05812334 40.3030961 45.05812334 30.640625 26.12109375 C30.640625 25.46109375 30.640625 24.80109375 30.640625 24.12109375 C29.80337891 23.70537109 29.80337891 23.70537109 28.94921875 23.28125 C27.37262025 22.48894923 25.80250983 21.68363852 24.23828125 20.8671875 C23.40167969 20.43535156 22.56507813 20.00351563 21.703125 19.55859375 C20.86910156 19.12417969 20.03507813 18.68976563 19.17578125 18.2421875 C13.71346904 15.82665036 8.26768373 15.90788285 2.390625 15.87109375 C1.17826172 15.84015625 1.17826172 15.84015625 -0.05859375 15.80859375 C-10.49495656 15.74180103 -18.45684999 19.39805008 -26.359375 26.12109375 C-41.03677193 40.96948948 -40.64822654 61.40158004 -40.7734375 80.86328125 C-40.79219172 82.72658098 -40.81176813 84.58987259 -40.8321228 86.45315552 C-40.88300136 91.3092567 -40.9228612 96.16538529 -40.96026611 101.02160645 C-41.00058665 105.99624155 -41.0515496 110.97076707 -41.1015625 115.9453125 C-41.19779602 125.67049543 -41.28236548 135.39574089 -41.359375 145.12109375 C-45.979375 145.12109375 -50.599375 145.12109375 -55.359375 145.12109375 C-55.359375 98.26109375 -55.359375 51.40109375 -55.359375 3.12109375 C-50.739375 3.12109375 -46.119375 3.12109375 -41.359375 3.12109375 C-41.029375 8.73109375 -40.699375 14.34109375 -40.359375 20.12109375 C-39.43125 18.94546875 -38.503125 17.76984375 -37.546875 16.55859375 C-29.27746904 7.15776001 -17.1010424 1.12015556 -4.59375 0.2109375 C-3.06212422 0.14935115 -1.53084851 0.07857004 0 0 Z " fill="#F9FCFC" transform="translate(944.359375,77.87890625)"/>
<path d="M0 0 C1.18899902 0.01023193 2.37799805 0.02046387 3.60302734 0.03100586 C18.14453864 0.38254356 28.48078442 4.41450868 38.87109375 14.73046875 C48.44104243 24.93256083 52.18641093 36.4510883 52.02807617 50.33642578 C52.02873329 51.87480354 52.02873329 51.87480354 52.02940369 53.44425964 C52.02733108 56.79897803 52.00407233 60.15318254 51.98046875 63.5078125 C51.97486737 65.8476433 51.97059983 68.18747764 51.96760559 70.52731323 C51.9561996 76.65936141 51.92676903 82.79119344 51.89349365 88.92315674 C51.86270103 95.19092892 51.84908065 101.45873633 51.83398438 107.7265625 C51.80189521 120.00530284 51.75075044 132.28388338 51.6875 144.5625 C47.0675 144.5625 42.4475 144.5625 37.6875 144.5625 C37.68607498 143.29875549 37.68464996 142.03501099 37.68318176 140.73297119 C37.66646711 128.78702437 37.62355693 116.84141624 37.55540943 104.89564896 C37.52120993 98.75509059 37.49604034 92.61477918 37.49194336 86.47412109 C37.48764542 80.54109514 37.45905799 74.60862561 37.41406822 68.67577362 C37.40114109 66.41936237 37.39676844 64.16288437 37.40134621 61.90644073 C37.42435369 47.11391275 37.38361664 34.5225288 26.58203125 23.1796875 C23.5681338 20.60699978 20.35050614 19.01333773 16.6875 17.5625 C15.98496094 17.20414063 15.28242188 16.84578125 14.55859375 16.4765625 C10.33428216 15.13167963 6.28017622 15.2736022 1.875 15.3125 C1.01068359 15.30476563 0.14636719 15.29703125 -0.74414062 15.2890625 C-11.61908861 15.32189253 -20.25463179 18.23501307 -28.515625 25.5 C-43.0247308 40.56288847 -42.60223474 59.959349 -42.7265625 79.5234375 C-42.74531599 81.40915738 -42.76489235 83.29486924 -42.7852478 85.18057251 C-42.83613405 90.09585801 -42.87598988 95.01117058 -42.91339111 99.92657471 C-42.9537067 104.96153215 -43.00467196 109.99638122 -43.0546875 115.03125 C-43.15093019 124.87492339 -43.23549685 134.7186586 -43.3125 144.5625 C-47.9325 144.5625 -52.5525 144.5625 -57.3125 144.5625 C-57.3125 97.7025 -57.3125 50.8425 -57.3125 2.5625 C-52.6925 2.5625 -48.0725 2.5625 -43.3125 2.5625 C-42.9825 7.8425 -42.6525 13.1225 -42.3125 18.5625 C-40.641875 16.768125 -40.641875 16.768125 -38.9375 14.9375 C-28.05833092 4.11569034 -15.13844427 -0.19578341 0 0 Z " fill="#FCFDFD" transform="translate(398.3125,78.4375)"/>
<path d="M0 0 C0.6165638 18.50402827 0.5296667 33.44304874 -12.5625 47.8125 C-13.366875 48.534375 -14.17125 49.25625 -15 50 C-15.721875 50.66 -16.44375 51.32 -17.1875 52 C-29.29433924 60.6093079 -42.34941173 63.48356051 -57 62 C-65.62538572 60.38956406 -73.94254631 57.46925775 -79.3359375 50.19921875 C-83.97543092 42.51608604 -84.23816141 33.20055637 -82.50390625 24.515625 C-80.02777747 17.29708009 -75.53813331 12.49160042 -68.859375 9.09765625 C-57.56778578 4.76304345 -45.33980437 4.7357142 -33.41162109 4.41308594 C-22.28281523 4.06249196 -10.7973158 0 0 0 Z " fill="#02A7BC" transform="translate(307,150)"/>
<path d="M0 0 C0.62974998 18.89976582 0.08285259 34.6033641 -12.875 49.625 C-24.26883681 60.33215468 -39.74420341 63.71559719 -54.83203125 63.3125 C-63.7973883 62.82580339 -71.49280836 59.13886004 -78 53 C-83.97520098 45.70486151 -83.79759537 37.07643339 -83 28 C-81.58178375 21.6562423 -79.0675612 17.29533887 -73.9765625 13.25390625 C-61.48058133 5.32661385 -46.42936418 5.80554913 -32.13037109 5.48388672 C-21.4303708 5.15946138 -10.07212838 0 0 0 Z " fill="#01A7BC" transform="translate(618,149)"/>
<path d="M0 0 C4.62 0 9.24 0 14 0 C14 17.16 14 34.32 14 52 C23.9 52 33.8 52 44 52 C44 56.29 44 60.58 44 65 C34.1 65 24.2 65 14 65 C14.06299026 78.27424128 14.13846233 91.54825221 14.23571491 104.82228756 C14.28038161 110.98641075 14.31964611 117.1504684 14.34643555 123.31469727 C14.37250511 129.26705403 14.41293391 135.21915811 14.46318626 141.17135811 C14.47983018 143.43862317 14.49135982 145.70593191 14.49761391 147.97324944 C14.5072817 151.15683151 14.53537395 154.33977074 14.56762695 157.52319336 C14.56619186 158.45396194 14.56475677 159.38473053 14.5632782 160.34370422 C14.6440586 166.00709186 14.98794949 172.0423255 18 177 C21.68610921 178.43330424 25.58595101 178.16823795 29.5 178.1875 C30.8096875 178.20167969 32.119375 178.21585938 33.46875 178.23046875 C36.75773206 178.01581173 38.23311788 177.59095722 41 176 C41.99 176 42.98 176 44 176 C44 181.28 44 186.56 44 192 C31.58064913 193.77419298 20.97656154 194.14167619 9.75 188.3125 C4.30661876 183.73511123 1.38544218 177.94730128 0 171 C-0.27109481 167.51985612 -0.25327641 164.0558164 -0.22705078 160.56665039 C-0.22734283 159.5415033 -0.22763489 158.5163562 -0.22793579 157.46014404 C-0.22654824 154.08922712 -0.21101396 150.71853431 -0.1953125 147.34765625 C-0.19158033 145.00353618 -0.18873432 142.65941455 -0.18673706 140.31529236 C-0.17911668 134.1585964 -0.15948182 128.00199545 -0.1373291 121.84533691 C-0.11683634 115.55771164 -0.10772801 109.27007095 -0.09765625 102.98242188 C-0.07623447 90.65489955 -0.04106525 78.32747256 0 66 C-7.92 66 -15.84 66 -24 66 C-24 61.05 -24 56.1 -24 51 C-16.08 51 -8.16 51 0 51 C0 34.17 0 17.34 0 0 Z " fill="#F8FCFC" transform="translate(477,30)"/>
<path d="M0 0 C4.95 0 9.9 0 15 0 C15 63.69 15 127.38 15 193 C10.05 193 5.1 193 0 193 C0 129.31 0 65.62 0 0 Z " fill="#F2F9FA" transform="translate(651,30)"/>
<path d="M0 0 C9.75820771 9.00110539 13.62170291 23.84679764 14.34765625 36.7890625 C14.84665083 53.29211437 11.66342324 70.89922288 1 84 C-8.25556479 76.33110346 -11.11980179 63.13384449 -12.6875 51.6875 C-12.81661739 50.12686371 -12.91743963 48.5637905 -13 47 C-13.06445312 45.90171875 -13.12890625 44.8034375 -13.1953125 43.671875 C-13.67568984 28.36385054 -9.74780281 15.16744813 -2 2 C-1.34 1.34 -0.68 0.68 0 0 Z " fill="#04A8BC" transform="translate(777,110)"/>
</svg>
