<?xml version="1.0" encoding="UTF-8"?>
<svg version="1.1" xmlns="http://www.w3.org/2000/svg" width="348" height="145">

<path d="M0 0 C114.84 0 229.68 0 348 0 C348 25.74 348 51.48 348 78 C345.80043085 75.06724113 344.06026547 72.46633547 342.328125 69.2890625 C341.58381226 67.92624146 341.58381226 67.92624146 340.82446289 66.53588867 C340.30489014 65.57529541 339.78531738 64.61470215 339.25 63.625 C338.71431396 62.63927002 338.17862793 61.65354004 337.62670898 60.63793945 C334.68292029 55.19582427 331.81248514 49.72996454 329.0625 44.1875 C328.24458984 42.57875 328.24458984 42.57875 327.41015625 40.9375 C326 38 326 38 324.99609375 35.1875 C323.90997126 32.46154552 323.24752227 30.90356184 321 29 C315.94431743 27.93792735 311.14821632 27.8381064 306 28 C306.82939453 29.65878906 307.65880443 31.31757044 308.48828125 32.97631836 C309.21380125 34.42752325 309.93905507 35.87886124 310.6640625 37.33032227 C312.37290813 40.75061847 314.08364581 44.16982331 315.80859375 47.58203125 C319.24319971 54.39571836 322.57125181 61.2472834 325.79101562 68.16479492 C327.72844821 72.32306114 329.70683072 76.45711343 331.73046875 80.57421875 C332.19026123 81.5170874 332.65005371 82.45995605 333.1237793 83.43139648 C334.02500743 85.27717949 334.93375556 87.11931418 335.85083008 88.95727539 C336.26099365 89.80153076 336.67115723 90.64578613 337.09375 91.515625 C337.64579102 92.63372559 337.64579102 92.63372559 338.20898438 93.77441406 C339.10814183 96.30426573 339.14306018 98.33462472 339 101 C336.75 100.9375 336.75 100.9375 334 100 C330.82312972 95.0018212 328.37213998 89.69364992 325.91796875 84.3125 C325.54070145 83.49233398 325.16343414 82.67216797 324.7747345 81.82714844 C323.57596809 79.21947392 322.38159005 76.6098187 321.1875 74 C320.00709933 71.42779809 318.82578813 68.85601571 317.64442444 66.28425598 C316.87143439 64.60124118 316.09883809 62.91804547 315.3266449 61.23466492 C312.39320194 54.84282221 309.42854552 48.46612056 306.44628906 42.09692383 C301 30.43484132 301 30.43484132 301 28 C296.05 28 291.1 28 286 28 C286.721875 29.918125 287.44375 31.83625 288.1875 33.8125 C288.79658203 35.43091797 288.79658203 35.43091797 289.41796875 37.08203125 C290.61458299 40.14220513 291.96123375 43.11323565 293.34375 46.09375 C296.29106226 52.51619383 298.80898507 59.0819295 301.3125 65.6875 C301.76689453 66.87794922 302.22128906 68.06839844 302.68945312 69.29492188 C303.79607905 72.19544666 304.89953179 75.09713465 306 78 C305.01 78.99 304.02 79.98 303 81 C300.73246214 77.59869321 299.64203783 74.15383691 298.375 70.3125 C293.42414874 55.85998369 286.73943575 38.03627374 273 30 C267.88272269 28.33061103 262.29690382 28.3258486 257 29 C252.53265091 32.84399805 251.90376347 37.02572927 251.4375 42.6875 C251.35371094 43.68136719 251.26992187 44.67523438 251.18359375 45.69921875 C251.12300781 46.45847656 251.06242188 47.21773437 251 48 C250.34 48 249.68 48 249 48 C249 50.64 249 53.28 249 56 C248.67 56 248.34 56 248 56 C246.87001156 46.65741704 246.90091064 37.39146903 247 28 C242.71 28 238.42 28 234 28 C234.33 38.89 234.66 49.78 235 61 C232.38896112 57.51861483 231.30216595 55.52138763 229.9921875 51.53515625 C229.64542969 50.48779297 229.29867187 49.44042969 228.94140625 48.36132812 C228.58949219 47.27271484 228.23757812 46.18410156 227.875 45.0625 C227.51535156 43.97775391 227.15570313 42.89300781 226.78515625 41.77539062 C225.27268612 37.16717171 223.95361514 32.7680757 223 28 C218.38 28 213.76 28 209 28 C209.763125 29.77375 210.52625 31.5475 211.3125 33.375 C213.59358899 38.83146855 215.44802039 44.29679037 217 50 C216.34 50 215.68 50 215 50 C214.34 50.99 213.68 51.98 213 53 C212.95875 51.72125 212.9175 50.4425 212.875 49.125 C212.07189875 42.33611746 209.17705101 36.93524585 204.15234375 32.29296875 C195.10128354 26.59293627 184.41230518 28.4732866 174 28 C174 57.7 174 87.4 174 118 C173.01 117.67 172.02 117.34 171 117 C171 111.06 171 105.12 171 99 C165.06 99 159.12 99 153 99 C152.97303474 95.41661638 152.95317753 91.83343563 152.9375 88.25 C152.92912109 87.23421875 152.92074219 86.2184375 152.91210938 85.171875 C152.90888672 84.1921875 152.90566406 83.2125 152.90234375 82.203125 C152.89710693 81.30239258 152.89187012 80.40166016 152.88647461 79.47363281 C153 77 153 77 154 73 C158.29 73 162.58 73 167 73 C167 68.38 167 63.76 167 59 C163.04 59 159.08 59 155 59 C155.33 52.73 155.66 46.46 156 40 C160.95 40 165.9 40 171 40 C171 36.04 171 32.08 171 28 C161.1 28 151.2 28 141 28 C141 32.62 141 37.24 141 42 C140.58663281 45.20359571 140.14813153 48.23360572 139.5 51.375 C139.35691406 52.12265625 139.21382812 52.8703125 139.06640625 53.640625 C138.72242439 55.42933065 138.36303774 57.21506443 138 59 C137.34 59 136.68 59 136 59 C136.04640625 57.69804688 136.0928125 56.39609375 136.140625 55.0546875 C136.17815847 53.32814804 136.21455693 51.60158364 136.25 49.875 C136.30027344 48.59109375 136.30027344 48.59109375 136.3515625 47.28125 C136.43812373 41.65477 135.81524837 38.43171579 132 34 C127.42947471 30.54878703 124.04149867 28.86597772 118.33203125 28.90234375 C117.43935547 28.90556641 116.54667969 28.90878906 115.62695312 28.91210938 C114.69818359 28.92048828 113.76941406 28.92886719 112.8125 28.9375 C111.87212891 28.94201172 110.93175781 28.94652344 109.96289062 28.95117188 C107.64186288 28.96295374 105.32096356 28.97940442 103 29 C101.89689877 33.26828884 100.79421295 37.53668473 99.69189453 41.80517578 C99.31765684 43.25409775 98.9433101 44.70299157 98.56884766 46.15185547 C98.02737482 48.24699437 97.48630796 50.34223778 96.9453125 52.4375 C96.62062988 53.69433594 96.29594727 54.95117188 95.96142578 56.24609375 C94.95891913 60.16040106 93.97642168 64.07911606 93 68 C91.35 68.33 89.7 68.66 88 69 C93.35897436 39.28205128 93.35897436 39.28205128 99 28 C94.05 28.33 89.1 28.66 84 29 C83.12988281 31.71863281 83.12988281 31.71863281 82.2421875 34.4921875 C81.45343076 36.9532236 80.6644507 39.41418656 79.875 41.875 C79.67025055 42.51325714 79.4655011 43.15151428 79.25454712 43.80911255 C76.77517841 51.53311735 74.27315722 59.24827855 71.6875 66.9375 C69.02002807 74.87591089 66.42492655 82.83982911 64.1953125 90.9140625 C63.82019531 92.25597656 63.82019531 92.25597656 63.4375 93.625 C63.22996094 94.40101562 63.02242187 95.17703125 62.80859375 95.9765625 C61.87209284 98.32007685 61.03039665 99.49989518 59 101 C57.68 101 56.36 101 55 101 C55.2179574 95.00617148 56.609148 89.9050318 58.671875 84.30078125 C59.21964113 82.78133968 59.76598027 81.26138306 60.31103516 79.7409668 C60.59150696 78.95910004 60.87197876 78.17723328 61.16094971 77.37167358 C62.51366153 73.54807574 63.79486991 69.70150195 65.0703125 65.8515625 C65.32213287 65.09272263 65.57395325 64.33388275 65.83340454 63.55204773 C66.59853323 61.24344766 67.36204353 58.93431879 68.125 56.625 C71.29384904 47.03469476 74.48431108 37.47049217 78 28 C73.05 28 68.1 28 63 28 C62.566875 29.711875 62.13375 31.42375 61.6875 33.1875 C59.57302965 40.89092251 59.57302965 40.89092251 57 44 C56.01 44 55.02 44 54 44 C54.03480469 43.32453125 54.06960937 42.6490625 54.10546875 41.953125 C54.14607422 40.61507812 54.14607422 40.61507812 54.1875 39.25 C54.22230469 38.36828125 54.25710937 37.4865625 54.29296875 36.578125 C53.94262147 33.49506897 53.14001467 32.21484036 51 30 C45.18590768 28.06196923 39.05047098 28.35068419 33.25 30.1875 C32.1775 30.785625 31.105 31.38375 30 32 C29.42765625 32.30550781 28.8553125 32.61101563 28.265625 32.92578125 C21.60505748 36.97811768 16.92449522 44.39787403 14.5625 51.75 C13.07974161 60.3170485 15.10647932 67.11670981 18.1875 75.0625 C20.17274062 82.23990838 19.12712188 88.354866 16 95 C15.3503125 96.4540625 15.3503125 96.4540625 14.6875 97.9375 C13 100 13 100 9.8125 100.8125 C8.884375 100.874375 7.95625 100.93625 7 101 C6.66284108 95.4860469 7.55887018 91.99561651 10 87.0625 C10.8353125 85.34740234 10.8353125 85.34740234 11.6875 83.59765625 C12.120625 82.74042969 12.55375 81.88320312 13 81 C8.71 81 4.42 81 0 81 C0 54.27 0 27.54 0 0 Z " fill="#EF1401" transform="translate(0,0)"/>
<path d="M0 0 C11.3358157 3.3449948 16.58928039 12.15426432 22 22 C27.17729673 31.84701536 30.77962559 42.26555033 34.26757812 52.8046875 C34.8584028 54.57558601 35.47923461 56.33645708 36.109375 58.09375 C37.98230949 63.81856862 38.32372816 69.39334112 38.4375 75.375 C38.45997803 76.14924316 38.48245605 76.92348633 38.50561523 77.72119141 C38.48927989 81.56376738 38.26622153 83.56351371 36.22265625 86.9140625 C31.44573784 91.39714586 27.42818699 91.44064906 21.03515625 91.30859375 C14.18460875 90.61207734 9.33649664 87.10983276 4.71875 82.15625 C-9.47247419 64.3527142 -18.82765029 33.75671506 -18.2578125 11.00390625 C-16.81268238 -0.22869604 -9.50531159 -0.88996415 0 0 Z " fill="#FEF9F9" transform="translate(269,28)"/>
<path d="M0 0 C26.57568807 0 26.57568807 0 32 5 C38.92216407 13.34689223 40.36720689 21.21540598 40.21875 31.8671875 C39.63483227 37.5603854 36.68296524 41.80903956 33 46 C33.86625 46.0928125 33.86625 46.0928125 34.75 46.1875 C38.0388536 47.37514158 39.08339 49.09417193 41 52 C43.48822276 58.030438 45.1428827 64.09275713 46.625 70.4375 C46.8415625 71.32759766 47.058125 72.21769531 47.28125 73.13476562 C47.49007812 74.01712891 47.69890625 74.89949219 47.9140625 75.80859375 C48.1917749 76.98119751 48.1917749 76.98119751 48.47509766 78.17749023 C49.20159043 82.08399391 49.56120227 86.05082043 50 90 C43.73 90 37.46 90 31 90 C29.52302554 85.56907661 28.60394149 82.13374286 28 77.61328125 C27.835 76.42798828 27.67 75.24269531 27.5 74.02148438 C27.16511502 71.53731806 26.83179587 69.05294017 26.5 66.56835938 C26.2525 64.7962207 26.2525 64.7962207 26 62.98828125 C25.855625 61.91102783 25.71125 60.83377441 25.5625 59.72387695 C25.13560493 56.79719624 25.13560493 56.79719624 23 54 C20.43717258 53.27034634 20.43717258 53.27034634 18 53 C18.06058594 53.87213135 18.12117188 54.7442627 18.18359375 55.64282227 C18.409137 58.90604274 18.63252373 62.16939649 18.85449219 65.43286133 C18.9506451 66.84014638 19.04763511 68.24737452 19.14550781 69.65454102 C19.28675666 71.68751547 19.42490504 73.72068161 19.5625 75.75390625 C19.64628906 76.97408447 19.73007813 78.1942627 19.81640625 79.45141602 C19.9981088 82.96344595 20 86.48327282 20 90 C13.4 90 6.8 90 0 90 C0 60.3 0 30.6 0 0 Z " fill="#FEF7F7" transform="translate(174,28)"/>
<path d="M0 0 C4.95 0 9.9 0 15 0 C14.21290819 4.72255086 13.16091524 8.86090212 11.59375 13.328125 C11.35292191 14.02672134 11.11209381 14.72531769 10.8639679 15.44508362 C10.08032246 17.71491805 9.29009194 19.98240245 8.5 22.25 C7.9574409 23.81973787 7.4153713 25.389645 6.8737793 26.9597168 C4.56323654 33.65050507 2.23599213 40.33539112 -0.10775757 47.01461792 C-0.74363393 48.82735072 -1.37770291 50.6407172 -2.01171875 52.45410156 C-2.77654905 54.63869576 -3.54584435 56.82173362 -4.3203125 59.00292969 C-5.95086943 63.65616998 -7.43933711 68.07118739 -8 73 C-5.53044606 72.58377402 -5.53044606 72.58377402 -3 71 C-1.77227108 68.29899638 -0.87475471 65.813027 0 63 C0.64097426 61.28983759 1.28712324 59.58160878 1.9375 57.875 C3.37588757 53.91000655 4.61969655 49.93811726 5.75 45.875 C7.66989167 38.98776956 9.81610733 32.18283836 12 25.375 C12.33225586 24.33843262 12.66451172 23.30186523 13.00683594 22.23388672 C13.99826096 19.15384016 14.99742503 16.0764342 16 13 C16.36480469 11.8749707 16.72960937 10.74994141 17.10546875 9.59082031 C17.64107422 7.9564502 17.64107422 7.9564502 18.1875 6.2890625 C18.51105469 5.2985791 18.83460937 4.3080957 19.16796875 3.28759766 C20 1 20 1 21 0 C23.53049402 -0.07313567 26.03304837 -0.09247527 28.5625 -0.0625 C29.62887695 -0.05573242 29.62887695 -0.05573242 30.71679688 -0.04882812 C32.47790013 -0.03700864 34.23896036 -0.01907263 36 0 C32.2280486 15.36380203 28.11906392 30.63896846 23.97662354 45.90615845 C23.5794203 47.37107962 23.18304127 48.83622455 22.78753662 50.30160522 C14.62381349 80.52723966 14.62381349 80.52723966 1 89 C-5.88368764 91.98726068 -14.40404663 92.22005561 -21.5 89.8125 C-24.5503819 87.60097312 -26.21058797 86.37235344 -28 83 C-29.30542994 73.51930321 -26.61553247 65.98747273 -22.9375 57.375 C-22.42733323 56.13872674 -21.91929802 54.90157185 -21.41333008 53.66357422 C-20.41266721 51.22033961 -19.4018618 48.78224869 -18.38476562 46.34570312 C-16.57289882 41.96808982 -14.87360901 37.55213962 -13.1875 33.125 C-10.73005949 26.74942794 -8.0824479 20.48031595 -5.35546875 14.21484375 C-3.3834209 9.53762363 -1.68237451 4.78829669 0 0 Z " fill="#FEF8F8" transform="translate(63,28)"/>
<path d="M0 0 C4.95 0 9.9 0 15 0 C15.61875 1.4540625 15.61875 1.4540625 16.25 2.9375 C16.83308924 4.29177179 17.4164372 5.6459322 18 7 C18.26683594 7.6290625 18.53367187 8.258125 18.80859375 8.90625 C20.95215398 13.86025586 23.32979473 18.68056586 25.765625 23.49609375 C30.37339264 32.6212187 34.55664708 41.9216532 38.72900391 51.25170898 C39.68625703 53.3891601 40.64770048 55.5246916 41.609375 57.66015625 C41.89174011 58.2956691 42.17410522 58.93118195 42.46502686 59.58595276 C45.49462783 67.50175039 45.49462783 67.50175039 51.25 72.9375 C51.8275 72.958125 52.405 72.97875 53 73 C51.10333358 66.87355195 48.80807209 61.13630299 46 55.375 C45.61263672 54.56869141 45.22527344 53.76238281 44.82617188 52.93164062 C43.99170734 51.19526671 43.15505317 49.45994368 42.31640625 47.72558594 C40.02957715 42.99076396 37.76696756 38.24435417 35.5 33.5 C34.57556748 31.56768602 33.65108855 29.63539424 32.7265625 27.703125 C30.10499958 22.22082592 27.48517412 16.73773194 24.875 11.25 C24.49666016 10.45787109 24.11832031 9.66574219 23.72851562 8.84960938 C23.38240234 8.12064453 23.03628906 7.39167969 22.6796875 6.640625 C22.37788574 6.00672852 22.07608398 5.37283203 21.76513672 4.71972656 C21 3 21 3 20 0 C24.95 0 29.9 0 35 0 C41.0314126 10.25340142 46.55321924 20.73674767 51.98681641 31.31567383 C52.56222168 32.43482178 53.13762695 33.55396973 53.73046875 34.70703125 C54.23989014 35.7019458 54.74931152 36.69686035 55.27416992 37.72192383 C56.22542894 39.52876424 57.20569641 41.32430694 58.2993927 43.04866028 C61.85250229 48.81138393 62.6919901 53.13504227 62.48828125 59.84765625 C62.48120651 60.74495956 62.47413177 61.64226288 62.46684265 62.5667572 C62.43911714 65.39956261 62.37642402 68.23030414 62.3125 71.0625 C62.28738873 72.99671601 62.26458055 74.93096336 62.24414062 76.86523438 C62.18936272 81.5776038 62.10324675 86.28845348 62 91 C60.55733279 91.01703854 59.11460746 91.029205 57.671875 91.03930664 C56.4667627 91.05025108 56.4667627 91.05025108 55.23730469 91.06141663 C47.16891794 90.83992999 39.5253214 85.5253214 34 80 C29.06881194 73.79880777 25.96831579 67.06092166 23.3359375 59.62890625 C21.79314612 55.43810743 20.07059798 51.33952524 18.34228516 47.22241211 C15.73544506 40.96419414 13.25426039 34.6552488 10.75 28.35546875 C8.28059079 22.15879502 5.74985226 15.99680648 3.11328125 9.86914062 C1.86544718 6.65323142 0.94765498 3.31679241 0 0 Z " fill="#FEF9F8" transform="translate(286,28)"/>
<path d="M0 0 C0.88236328 -0.02900391 1.76472656 -0.05800781 2.67382812 -0.08789062 C9.40449902 -0.15256078 15.03855074 1.00448008 19.99804688 5.83129883 C25.54125128 12.29738779 24.88636725 18.06664246 24.4375 26.3125 C23.12867547 36.25069303 20.01320545 44.25079599 12.625 51.1875 C6.55119658 55.23670228 0.68620004 56.77518298 -6.5625 56.3125 C-6.67464844 57.52808594 -6.78679687 58.74367187 -6.90234375 59.99609375 C-7.5914218 66.19779616 -8.86694106 72.26795197 -10.125 78.375 C-10.35896484 79.52677734 -10.59292969 80.67855469 -10.83398438 81.86523438 C-11.40662862 84.68170912 -11.98407363 87.49720706 -12.5625 90.3125 C-19.1625 90.3125 -25.7625 90.3125 -32.5625 90.3125 C-31.62430032 83.5745205 -30.32316552 77.18313422 -28.3125 70.6875 C-26.04114906 63.32242953 -24.25315561 55.89336831 -22.5625 48.375 C-20.68387618 40.03463047 -18.68281382 31.77104602 -16.32519531 23.55322266 C-14.67421299 17.7936375 -13.20486807 12.00006011 -11.81787109 6.17138672 C-10.01183182 -1.28934421 -7.06043237 0.07505775 0 0 Z " fill="#FEF7F7" transform="translate(112.5625,27.6875)"/>
<path d="M0 0 C9.9 0 19.8 0 30 0 C30 3.96 30 7.92 30 12 C25.05 12 20.1 12 15 12 C15.020625 14.02125 15.04125 16.0425 15.0625 18.125 C15.10770995 22.55557481 14.84023188 26.64667264 14 31 C17.96 31 21.92 31 26 31 C26 35.62 26 40.24 26 45 C21.71 45 17.42 45 13 45 C12.67 53.58 12.34 62.16 12 71 C17.61 71 23.22 71 29 71 C29 77.27 29 83.54 29 90 C16.46 90 3.92 90 -9 90 C-9 76.58944374 -9 76.58944374 -7.75 69.75 C-5.63395449 57.10046168 -4.56919946 44.32203693 -3.35839844 31.56152344 C-3.27564667 30.69936218 -3.1928949 29.83720093 -3.1076355 28.94891357 C-2.95102521 27.31316194 -2.79717777 25.67714267 -2.64651489 24.04083252 C-2.31528425 20.57619697 -1.8467862 17.3871448 -1 14 C-0.67 9.38 -0.34 4.76 0 0 Z " fill="#FEF6F5" transform="translate(141,28)"/>
<path d="M0 0 C2.69745565 2.34939686 3.8455624 4.07020469 4.375 7.625 C4.26171983 12.89252795 1.69754131 20.92745869 -2.0625 24.6875 C-4.24889453 24.76008946 -6.43750389 24.77123783 -8.625 24.75 C-10.42130859 24.73646484 -10.42130859 24.73646484 -12.25390625 24.72265625 C-13.18074219 24.71105469 -14.10757813 24.69945313 -15.0625 24.6875 C-14.53259095 22.4448492 -13.96004427 20.44416765 -13.0625 18.3125 C-11.97064525 15.44638129 -11.48540178 12.7182961 -11.0625 9.6875 C-14.447397 10.60233703 -15.82360439 11.34975103 -17.875 14.25 C-19.81819889 19.87504942 -20.22156218 24.1274844 -17.71484375 29.6640625 C-17.16957031 30.72367188 -16.62429687 31.78328125 -16.0625 32.875 C-12.05551997 41.0507621 -11.61043964 48.32039082 -13.98828125 57.109375 C-18.37999315 69.29744842 -24.46897738 80.52023773 -36.3125 86.5625 C-41.76669137 89.12021086 -44.68072784 89.6875 -51.0625 89.6875 C-51.0625 77.1475 -51.0625 64.6075 -51.0625 51.6875 C-46.7725 51.6875 -42.4825 51.6875 -38.0625 51.6875 C-38.83988002 55.5744001 -39.25378566 57.35735179 -41.0625 60.5625 C-43.04163327 64.33432644 -43.71011566 67.45888797 -44.0625 71.6875 C-40.60998483 70.84355185 -38.56951964 70.32127455 -36.3125 67.5 C-31.62730555 56.95831248 -32.57392112 48.96553774 -36.28344727 38.53540039 C-38.53113006 32.03898054 -38.88562443 26.43331752 -36.15625 19.92578125 C-31.78423764 10.97877025 -26.99656721 4.44634987 -18.0625 -0.3125 C-12.41623712 -2.22458105 -5.45387156 -2.33737352 0 0 Z " fill="#FEF9F9" transform="translate(51.0625,29.3125)"/>
<path d="M0 0 C4.62 0 9.24 0 14 0 C17.92327034 10.25982382 21.5865095 20.55873494 25 31 C25 20.77 25 10.54 25 0 C29.29 0 33.58 0 38 0 C38.06469482 1.83925049 38.12938965 3.67850098 38.19604492 5.57348633 C38.41780073 11.73284722 38.65964181 17.89117913 38.91439342 24.04926014 C39.0677561 27.77349608 39.21368341 31.4976781 39.34106445 35.22290039 C40.05561045 57.57732412 40.05561045 57.57732412 44.9699707 79.3269043 C46 83 46 83 46 90 C39.73 90 33.46 90 27 90 C26.61328125 87.80601563 26.2265625 85.61203125 25.828125 83.3515625 C25.44004648 81.19305108 25.04831839 79.03523125 24.65625 76.87744141 C24.38876877 75.39439945 24.12499843 73.91068264 23.86523438 72.42626953 C22.52145891 64.761581 21.1358085 57.40010508 17.98193359 50.23193359 C16.30172174 46.41281457 15.03443807 42.44619458 13.6875 38.5 C11.35296132 31.72983783 8.88749831 25.03288589 6.25 18.375 C3.85078735 12.31708675 1.72516966 6.29179522 0 0 Z " fill="#FEF7F7" transform="translate(209,28)"/>
<path d="M0 0 C3.84082031 0.78466797 3.84082031 0.78466797 5.2734375 2.72265625 C10.42547565 13.66616991 14.39596377 25.04855059 18.25 36.5 C18.49613037 37.22896484 18.74226074 37.95792969 18.99584961 38.70898438 C23.31998444 51.76049799 23.31998444 51.76049799 23.125 58 C23.10695313 58.763125 23.08890625 59.52625 23.0703125 60.3125 C23.04710937 60.869375 23.02390625 61.42625 23 62 C21.1484375 61.75390625 21.1484375 61.75390625 19 61 C11.16244677 50.39766572 7.75917079 34.64426794 4.1875 22.125 C3.73431396 20.55673462 3.73431396 20.55673462 3.27197266 18.95678711 C1.51615929 12.63676249 0.39678297 6.55009685 0 0 Z " fill="#EF1608" transform="translate(266,39)"/>
<path d="M0 0 C2.4375 0.375 2.4375 0.375 5 1 C7.9245122 6.8490244 5.42680561 14.20289588 3.94921875 20.16796875 C2.93791754 23.18522544 1.95522144 25.4810305 0 28 C-2.6875 28.8125 -2.6875 28.8125 -5 29 C-4.59397651 22.39161763 -3.71823655 15.93867325 -2.5 9.4375 C-2.30410278 8.38369141 -2.30410278 8.38369141 -2.10424805 7.30859375 C-1.13184952 2.26369903 -1.13184952 2.26369903 0 0 Z " fill="#EF1A0C" transform="translate(115,40)"/>
<path d="M0 0 C2.43549053 0.5257517 3.79714422 0.82789385 5.7265625 2.46484375 C7.70592191 6.40534762 7.43367875 10.21701281 7.375 14.5625 C7.38660156 15.42552734 7.39820313 16.28855469 7.41015625 17.17773438 C7.40628906 18.00724609 7.40242187 18.83675781 7.3984375 19.69140625 C7.39505371 20.44623291 7.39166992 21.20105957 7.38818359 21.97875977 C6.89484162 24.54755109 6.08581042 25.45601023 4 27 C3.01 27 2.02 27 1 27 C-0.20484722 21.36473035 -0.1129643 15.85463885 -0.0625 10.125 C-0.05798828 9.15046875 -0.05347656 8.1759375 -0.04882812 7.171875 C-0.03710906 4.78118566 -0.02070219 2.3906256 0 0 Z " fill="#EF1608" transform="translate(190,40)"/>
<path d="M0 0 C-0.60679096 8.62028431 -2.85042213 16.74846558 -5.0625 25.0625 C-5.44393914 26.51482181 -5.82480326 27.96729478 -6.20507812 29.41992188 C-7.13009513 32.94838203 -8.06287939 36.47473251 -9 40 C-11.475 40.495 -11.475 40.495 -14 41 C-12.36899147 31.95531632 -9.98762243 23.13649826 -7.59350586 14.27050781 C-7.01180597 12.04516477 -6.49162659 9.81096251 -5.97265625 7.5703125 C-5.20047533 4.73588133 -3.74123465 0 0 0 Z " fill="#EE0E03" transform="translate(102,28)"/>
<path d="M0 0 C2.9195991 4.37939866 4.72858652 9.153553 6.75 14 C7.40548828 15.5159375 7.40548828 15.5159375 8.07421875 17.0625 C8.47769531 18.031875 8.88117188 19.00125 9.296875 20 C9.67166992 20.886875 10.04646484 21.77375 10.43261719 22.6875 C10.71347168 23.8321875 10.71347168 23.8321875 11 25 C9 28 9 28 7 29 C5.85122578 25.751032 4.70649699 22.50065288 3.5625 19.25 C3.23701172 18.32960938 2.91152344 17.40921875 2.57617188 16.4609375 C2.26357422 15.57148437 1.95097656 14.68203125 1.62890625 13.765625 C1.34088135 12.94868164 1.05285645 12.13173828 0.75610352 11.29003906 C-0.657514 7.0085627 -1.11253916 4.45015664 0 0 Z " fill="#EF2218" transform="translate(295,52)"/>
<path d="M0 0 C-0.51482919 5.852795 -1.45357192 11.3297637 -3 17 C-3.99 17 -4.98 17 -6 17 C-6.66 17.66 -7.32 18.32 -8 19 C-6.32589286 5.60714286 -6.32589286 5.60714286 -2.9375 1.5 C-1 0 -1 0 0 0 Z " fill="#F1372B" transform="translate(102,28)"/>
<path d="M0 0 C0.99 0 1.98 0 3 0 C3.40652968 5.42039575 2.03993514 9.07015675 0 14 C-1.32 13.67 -2.64 13.34 -4 13 C-3.52140759 11.39566191 -3.04210442 9.79153584 -2.5625 8.1875 C-2.29566406 7.29417969 -2.02882812 6.40085937 -1.75390625 5.48046875 C-1.19612127 3.64526945 -0.60655425 1.81966274 0 0 Z " fill="#EF2015" transform="translate(37,83)"/>
<path d="M0 0 C3 1 3 1 4.16796875 3.21484375 C4.50441406 4.11332031 4.84085938 5.01179688 5.1875 5.9375 C5.70376953 7.28134766 5.70376953 7.28134766 6.23046875 8.65234375 C7 11 7 11 7 13 C6.34 13 5.68 13 5 13 C4.01 14.485 4.01 14.485 3 16 C2.92652344 15.09507813 2.92652344 15.09507813 2.8515625 14.171875 C2.77679688 13.37265625 2.70203125 12.5734375 2.625 11.75 C2.55539063 10.96109375 2.48578125 10.1721875 2.4140625 9.359375 C1.98326166 6.90462303 1.12090052 5.20534899 0 3 C0 2.01 0 1.02 0 0 Z " fill="#EF1A13" transform="translate(210,37)"/>
<path d="M0 0 C0.99 0 1.98 0 3 0 C2.67 2.64 2.34 5.28 2 8 C0.68 8.33 -0.64 8.66 -2 9 C-1.51421457 5.87709365 -1.0013988 3.00419641 0 0 Z " fill="#EE0B01" transform="translate(95,44)"/>
<path d="M0 0 C0.99 0 1.98 0 3 0 C3.33 1.98 3.66 3.96 4 6 C3.34 6 2.68 6 2 6 C1.67 6.66 1.34 7.32 1 8 C0.34 5.69 -0.32 3.38 -1 1 C-0.67 0.67 -0.34 0.34 0 0 Z " fill="#F02F26" transform="translate(298,64)"/>
<path d="M0 0 C0.99 0.33 1.98 0.66 3 1 C3.33 2.65 3.66 4.3 4 6 C2.35 6.33 0.7 6.66 -1 7 C-0.67 4.69 -0.34 2.38 0 0 Z " fill="#EF2415" transform="translate(89,62)"/>
<path d="M0 0 C1.98 0.495 1.98 0.495 4 1 C4 2.65 4 4.3 4 6 C2.35 6.33 0.7 6.66 -1 7 C-0.67 4.69 -0.34 2.38 0 0 Z " fill="#F02518" transform="translate(92,51)"/>
<path d="M0 0 C0.99 0 1.98 0 3 0 C3 2.64 3 5.28 3 8 C2.67 7.01 2.34 6.02 2 5 C1.34 5 0.68 5 0 5 C0 3.35 0 1.7 0 0 Z " fill="#EF2215" transform="translate(135,59)"/>
<path d="M0 0 C2 2 2 2 2.125 5.625 C2.08375 6.73875 2.0425 7.8525 2 9 C0.4375 7.3125 0.4375 7.3125 -1 5 C-0.6875 2.25 -0.6875 2.25 0 0 Z " fill="#F02D26" transform="translate(233,52)"/>
<path d="M0 0 C1.98 0.495 1.98 0.495 4 1 C3.67 2.32 3.34 3.64 3 5 C1.68 4.67 0.36 4.34 -1 4 C-0.67 2.68 -0.34 1.36 0 0 Z " fill="#EF2217" transform="translate(53,43)"/>
<path d="M0 0 C0.33 0 0.66 0 1 0 C0.67 2.31 0.34 4.62 0 7 C-0.66 7 -1.32 7 -2 7 C-2.66 7.99 -3.32 8.98 -4 10 C-3.625 7.0625 -3.625 7.0625 -3 4 C-2.34 3.67 -1.68 3.34 -1 3 C-0.67 2.01 -0.34 1.02 0 0 Z " fill="#EE0A03" transform="translate(100,32)"/>
</svg>
