<?xml version="1.0" encoding="UTF-8"?>
<svg version="1.1" xmlns="http://www.w3.org/2000/svg" width="2820" height="500">
<path d="M0 0 C1.53271273 -0.00462279 3.065421 -0.01098485 4.59812021 -0.01890898 C8.76118845 -0.0354366 12.92388472 -0.02743252 17.0869534 -0.0149641 C21.59556537 -0.00584719 26.10411702 -0.01991599 30.61271667 -0.03088379 C39.42583955 -0.04860326 48.2388256 -0.04485846 57.05195367 -0.03323323 C64.2191615 -0.02417319 71.38633117 -0.02298599 78.55354309 -0.02732849 C79.57641471 -0.02794142 80.59928632 -0.02855436 81.65315405 -0.02918586 C83.73156481 -0.03046486 85.80997557 -0.03176171 87.88838631 -0.03307623 C107.34477502 -0.04446277 126.80108816 -0.0313986 146.25746447 -0.00987476 C162.92587188 0.00799446 179.59416784 0.00488981 196.26257324 -0.0135498 C215.6527615 -0.0349906 235.04288364 -0.04336432 254.4330821 -0.03110075 C256.50353971 -0.02982665 258.57399733 -0.02856917 260.64445496 -0.02732849 C261.66296867 -0.02671139 262.68148238 -0.02609429 263.73086014 -0.02545848 C270.88348131 -0.0220152 278.03606029 -0.02781182 285.18867493 -0.0372467 C293.91389689 -0.04850379 302.63897504 -0.04534901 311.36418068 -0.02412373 C315.80978943 -0.01366302 320.25515902 -0.00940571 324.70076561 -0.02272034 C328.78069641 -0.0347543 332.86016934 -0.02790335 336.94005936 -0.00681013 C338.40553123 -0.00239015 339.87104284 -0.0045048 341.33648854 -0.01431328 C354.50898807 -0.0956249 367.68657343 1.91103067 379.41149902 8.25793457 C380.06900146 8.60155029 380.72650391 8.94516602 381.40393066 9.29919434 C401.26602714 19.94679117 415.07629299 36.29787444 422.34899902 57.63293457 C427.24801794 75.41332389 426.39132651 94.05422807 426.36044836 112.33164155 C426.35587427 116.34600949 426.36293187 120.36036084 426.3684082 124.37472534 C426.37725132 132.21464454 426.37540309 140.05452521 426.36958292 147.89444584 C426.36504661 154.27163853 426.364462 160.64882049 426.36663055 167.02601433 C426.36693702 167.93731179 426.36724349 168.84860925 426.36755924 169.78752179 C426.36819876 171.63940375 426.36884718 173.4912857 426.36950442 175.34316766 C426.37519274 192.66404755 426.36867325 209.9849062 426.35790369 227.30578261 C426.34896804 242.13579116 426.35052326 256.96576838 426.35974121 271.79577637 C426.37046779 289.06071882 426.37464514 306.32564271 426.36851668 323.59058803 C426.36787965 325.43494888 426.36725091 327.27930973 426.36663055 329.12367058 C426.366322 330.03088919 426.36601345 330.93810781 426.36569555 331.87281789 C426.36397588 338.23549912 426.36686791 344.59816847 426.37158966 350.96084785 C426.37722504 358.72453009 426.3756265 366.48817193 426.36502817 374.2518496 C426.35980723 378.20539854 426.35765293 382.15888037 426.36432648 386.11242867 C426.40994332 415.67002635 426.17336084 444.33377221 405.09899902 467.50793457 C404.32556152 468.36258301 403.55212402 469.21723145 402.75524902 470.09777832 C397.11536544 476.0321495 391.22618413 480.50274409 384.09899902 484.50793457 C383.28688965 484.96941895 382.47478027 485.43090332 381.63806152 485.90637207 C371.41105796 491.36739339 360.22042732 494.62355122 348.61136055 494.64215565 C346.66973225 494.64884241 346.66973225 494.64884241 344.68887913 494.65566427 C343.25943382 494.65557498 341.8299885 494.65538515 340.40054321 494.65510559 C338.87646608 494.65840691 337.35238982 494.66213305 335.82831466 494.66624707 C331.64277536 494.67624485 327.4572504 494.67998029 323.27170086 494.68263638 C318.75611451 494.68654609 314.24053945 494.69612403 309.72496033 494.70484924 C298.82035679 494.72459584 287.91575235 494.73467802 277.0111354 494.74357703 C271.87183212 494.74796329 266.73252986 494.75332926 261.59322739 494.7585659 C244.50149563 494.77557712 227.40976451 494.79007 210.31802559 494.79731464 C205.88433964 494.79922444 201.4506537 494.80114479 197.01696777 494.80310059 C195.36407562 494.8038262 195.36407562 494.8038262 193.6777917 494.80456647 C175.83810376 494.81286196 157.99848297 494.83819125 140.15882434 494.87068126 C121.82975465 494.90378953 103.50071904 494.92176685 85.1716193 494.92495888 C74.88602907 494.9271206 64.60053675 494.93581948 54.31497574 494.96142006 C45.55293436 494.98317863 36.79101467 494.9911522 28.02894934 494.98145328 C23.56314268 494.97692336 19.09758684 494.97871807 14.63181496 494.99821472 C10.53300496 495.01595369 6.43462675 495.01476278 2.33581148 494.99931743 C0.86330143 494.9969575 -0.60923938 495.00117975 -2.08170269 495.01314608 C-16.59363581 495.12365087 -29.99155144 492.3553805 -42.90100098 485.50793457 C-44.12496582 484.8814502 -44.12496582 484.8814502 -45.37365723 484.24230957 C-59.38321024 476.51596337 -70.84648804 463.76044205 -77.90100098 449.50793457 C-78.33283691 448.67777832 -78.76467285 447.84762207 -79.20959473 446.99230957 C-85.12433798 434.9873114 -86.35128237 422.71554683 -86.28868103 409.49282837 C-86.29286487 408.03196521 -86.29834809 406.57110531 -86.30500084 405.11025131 C-86.31933656 401.13654876 -86.31524836 397.1630557 -86.30783403 393.18934226 C-86.30307496 388.88792764 -86.31563625 384.58655658 -86.32585144 380.28515625 C-86.34299131 371.87417712 -86.34388949 363.46327285 -86.33863854 355.0522808 C-86.33458668 348.21159255 -86.33605242 341.37092631 -86.3413868 334.53023911 C-86.34213522 333.55427765 -86.34288364 332.5783162 -86.34365474 331.57278015 C-86.34518632 329.58971533 -86.34672467 327.6066505 -86.34826971 325.62358569 C-86.36197729 307.05376484 -86.35656928 288.48398619 -86.3450845 269.91416632 C-86.33515354 252.95119149 -86.34809353 235.98832576 -86.37201869 219.02536775 C-86.3964411 201.57744447 -86.40600986 184.12957194 -86.39936596 166.68163192 C-86.39588078 156.89807517 -86.39805943 147.11460227 -86.41561699 137.3310585 C-86.4303783 129.00287904 -86.43092322 120.67484253 -86.41354608 112.34666575 C-86.40506604 108.10358847 -86.4028126 103.8607661 -86.41819763 99.61770248 C-86.43214485 95.72273457 -86.42715472 91.82823755 -86.4079584 87.93329619 C-86.40422854 86.53505563 -86.40703182 85.13677641 -86.41757005 83.73857059 C-86.50817791 70.78065142 -84.38890234 57.71899479 -78.15100098 46.19543457 C-77.80738525 45.53793213 -77.46376953 44.88042969 -77.10974121 44.20300293 C-66.56444879 24.53174576 -49.84441474 10.01268037 -28.41070414 3.4371686 C-18.87625052 0.81180997 -9.91432956 -0.06635829 0 0 Z " fill="#4D38AF" transform="translate(86.9010009765625,3.4920654296875)"/>
<path d="M0 0 C-0.60122362 4.67895273 -1.89715861 8.5869247 -3.72265625 12.9296875 C-3.98759384 13.56488312 -4.25253143 14.20007874 -4.52549744 14.85452271 C-5.36520443 16.86390834 -6.21368234 18.86944843 -7.0625 20.875 C-7.63665344 22.24454626 -8.21022706 23.61433575 -8.78320312 24.984375 C-10.18210845 28.32575557 -11.58889943 31.66374829 -13 35 C-17.32022784 33.60774346 -21.12380847 31.96055983 -25.125 29.8125 C-51.77660659 16.08078848 -84.69497551 10.04258332 -114 18 C-125.44117706 21.69638028 -134.92670808 26.90402056 -140.94140625 37.5703125 C-144.14191893 44.91613864 -144.53339133 55.12477823 -142.12890625 62.76953125 C-135.63374219 75.27006012 -121.68667524 80.73337528 -108.9375 84.875 C-100.21270939 87.6026509 -91.31474647 89.6319069 -82.42544556 91.73736572 C-15.08462541 107.70557157 -15.08462541 107.70557157 4.25 136.5625 C12.15955138 150.63112828 13.69435461 170.09796238 9.75 185.65625 C2.59087006 208.02853108 -10.1632805 223.39200794 -30.9375 234.25 C-67.83434063 251.70708974 -113.46743498 249.6383306 -151.47021484 236.55615234 C-166.58297985 231.09714545 -184.33285494 223.42384424 -194 210 C-191.90821394 205.59965659 -189.80846714 201.20324005 -187.70117188 196.81030273 C-186.98508821 195.3146171 -186.27121099 193.81787304 -185.55957031 192.32006836 C-184.53765643 190.17020635 -183.50792809 188.02424674 -182.4765625 185.87890625 C-182.15877838 185.20598038 -181.84099426 184.5330545 -181.51358032 183.83973694 C-179.22774341 179.11387171 -179.22774341 179.11387171 -177 178 C-174.90198168 179.22615461 -172.93581951 180.50070842 -170.9375 181.875 C-141.06880605 201.6664261 -106.26543957 212.06643085 -70.296875 205.75 C-57.65336331 202.87375089 -45.45490157 199.61943257 -37.5 188.5625 C-33.13436919 181.24945178 -31.88119952 173.45577626 -33 165 C-35.76173305 156.18814478 -41.09366359 150.87908839 -48.90234375 146.296875 C-64.48142834 138.37349177 -82.06115937 134.17202628 -99.0625 130.5 C-128.25859547 124.14823916 -161.64853511 115.1709888 -178.95263672 88.72509766 C-189.00531024 72.16747735 -190.18828625 53.17250396 -185.90673828 34.64013672 C-181.07134068 15.80518896 -169.12308474 1.30401324 -152.6875 -8.6875 C-140.98802186 -15.55505745 -129.23903651 -19.38917675 -116 -22 C-114.865625 -22.22816406 -113.73125 -22.45632812 -112.5625 -22.69140625 C-74.38127961 -29.01075175 -32.46060642 -21.18342027 0 0 Z " fill="#FDFDFE" transform="translate(459,153)"/>
<path d="M0 0 C-3.1294078 8.51703295 -6.33010982 17.00748215 -9.6875 25.4375 C-9.97246338 26.17669678 -10.25742676 26.91589355 -10.55102539 27.67749023 C-11.28256055 29.48826949 -12.13249465 31.25028583 -13 33 C-16 34 -16 34 -17.96679688 33.29077148 C-18.70994141 32.90477783 -19.45308594 32.51878418 -20.21875 32.12109375 C-21.05873535 31.69707275 -21.8987207 31.27305176 -22.76416016 30.83618164 C-24.11840088 30.14383423 -24.11840088 30.14383423 -25.5 29.4375 C-53.50718201 15.66974881 -86.88103095 9.27110194 -117.25 19.1875 C-126.49767999 22.72673555 -133.96044845 27.33827077 -139 36 C-142.02447891 43.47539645 -142.22069892 52.67480337 -140.41796875 60.5390625 C-136.14445319 70.33497487 -126.23820499 75.54577295 -116.78125 79.2890625 C-103.83754264 84.08282574 -90.30701596 87.20754522 -76.91641235 90.47654724 C-26.7749691 102.72047388 -26.7749691 102.72047388 -10 118 C-8.84757812 119.03253906 -8.84757812 119.03253906 -7.671875 120.0859375 C3.33543871 130.47363422 9.66130355 143.69125659 10.23828125 158.87109375 C10.67007057 180.31984267 5.84996774 198.63960845 -9.15649414 214.49291992 C-31.41577389 236.63480934 -63.25472217 241.44167727 -93.24768066 241.36959839 C-105.0251504 241.28366546 -116.48259605 240.58553966 -128 238 C-128.79889648 237.82307617 -129.59779297 237.64615234 -130.42089844 237.46386719 C-150.5423097 232.87171223 -179.83805585 224.24291623 -192 206 C-190.97363281 203.04492188 -190.97363281 203.04492188 -189.203125 199.46875 C-188.89429382 198.83642456 -188.58546265 198.20409912 -188.26727295 197.5526123 C-187.27441079 195.52841997 -186.26230577 193.5145269 -185.25 191.5 C-184.58210558 190.14253047 -183.91542363 188.78446366 -183.25 187.42578125 C-178.44007587 177.6601138 -178.44007587 177.6601138 -176 174 C-172.95397736 175.42946026 -170.13368027 177.1365431 -167.28271484 178.91870117 C-136.7777196 197.82792355 -100.80966167 207.76887575 -65 200 C-54.68517004 197.1938401 -44.15958794 193.23045497 -38 184 C-34.03367284 176.68401844 -32.78531884 169.04027812 -34.4296875 160.86328125 C-37.5504086 151.0580526 -45.27569409 145.61675945 -54 141 C-57.31375136 139.53354863 -60.67796074 138.36303616 -64.125 137.25 C-65.11709473 136.92273926 -66.10918945 136.59547852 -67.13134766 136.25830078 C-79.05787985 132.46212753 -91.23844658 129.56626678 -103.41064453 126.67675781 C-117.95054757 123.19851635 -132.45633712 119.21301056 -145.9375 112.625 C-146.72543945 112.2448877 -147.51337891 111.86477539 -148.32519531 111.47314453 C-154.7362543 108.29662436 -160.53690315 104.64555595 -166 100 C-166.97453125 99.17435547 -166.97453125 99.17435547 -167.96875 98.33203125 C-180.08327059 87.14735325 -185.15327582 71.71571744 -186.22265625 55.65625 C-186.76152932 34.85106365 -179.92168328 16.74104295 -165.7265625 1.5703125 C-123.95266513 -38.53818032 -44.53935167 -30.22790834 0 0 Z " fill="#2840A3" transform="translate(1985,158)"/>
<path d="M0 0 C13.86 0 27.72 0 42 0 C44.12097878 2.12097878 43.18622217 6.89817802 43.20532227 9.83422852 C43.21522186 10.76096375 43.22512146 11.68769897 43.23532104 12.64251709 C43.26703701 15.72128704 43.2917332 18.80007245 43.31640625 21.87890625 C43.33696707 24.00740471 43.3579633 26.13589901 43.37937927 28.26438904 C43.43469004 33.87857704 43.48405947 39.49280243 43.53222656 45.10705566 C43.58237601 50.8311701 43.63809622 56.55522993 43.69335938 62.27929688 C43.80105102 73.51948466 43.90247138 84.75971976 44 96 C44.47304565 95.58939835 44.94609131 95.17879669 45.43347168 94.75575256 C46.05806274 94.21639572 46.68265381 93.67703888 47.32617188 93.12133789 C47.94359253 92.58698624 48.56101318 92.05263458 49.19714355 91.50209045 C67.1892683 76.51154648 93.46631814 73.50007327 116 75 C136.92102895 77.01039026 156.90117395 84.98762021 171 101 C184.77240437 118.45524732 189.18115595 138.76862364 189.11352539 160.56640625 C189.11367142 161.80627792 189.11381744 163.0461496 189.1139679 164.32359314 C189.11339322 167.70113522 189.10839987 171.07861515 189.10139394 174.45614624 C189.09511572 177.99419977 189.09455308 181.53225426 189.09336853 185.0703125 C189.09026834 191.7601302 189.08207273 198.44993143 189.07201904 205.1397419 C189.06081704 212.76009453 189.05533718 220.38044798 189.05032361 228.00080681 C189.03988894 243.66721568 189.02155987 259.33360189 189 275 C175.14 275 161.28 275 147 275 C146.98018066 271.76203613 146.96036133 268.52407227 146.93994141 265.18798828 C146.87269784 254.42724624 146.79506559 243.6665966 146.71247292 232.90596199 C146.66276522 226.38898932 146.61643522 219.87203089 146.578125 213.35498047 C146.54094691 207.05251155 146.49450382 200.7501698 146.44193649 194.44781113 C146.42356373 192.05679455 146.40839443 189.66575089 146.39665604 187.27469254 C146.99103631 154.07964017 146.99103631 154.07964017 132.48046875 125.28515625 C121.70017752 114.97699456 107.43497914 114.62145034 93.47265625 114.7890625 C79.74620297 115.16627801 66.95878335 120.27036599 56.96484375 129.8125 C46.48516865 141.47973272 43.87742964 156.08680988 43.79467773 171.23779297 C43.78477814 172.36032974 43.77487854 173.48286652 43.76467896 174.63941956 C43.73315617 178.34032094 43.70834295 182.04123514 43.68359375 185.7421875 C43.66301627 188.31194386 43.64201959 190.88169689 43.62062073 193.45144653 C43.57111428 199.51798007 43.52582779 205.58453159 43.48259836 211.65111268 C43.43312708 218.56046151 43.3782458 225.4697641 43.32291877 232.37906814 C43.20927591 246.58600338 43.10311276 260.79298452 43 275 C28.81 275 14.62 275 0 275 C0 184.25 0 93.5 0 0 Z " fill="#5737B4" transform="translate(878,121)"/>
<path d="M0 0 C13.86 0 27.72 0 42 0 C43.84823414 1.84823414 43.14501109 4.87279187 43.15821838 7.34632874 C43.16562535 8.35216425 43.16562535 8.35216425 43.17318195 9.37831968 C43.18862909 11.64161479 43.19693695 13.90488139 43.20532227 16.16821289 C43.21489513 17.78410598 43.22490485 19.39999653 43.23532104 21.0158844 C43.26244031 25.41649512 43.28341172 29.81711665 43.30332303 34.21776509 C43.32513943 38.81157368 43.35254931 43.4053487 43.37937927 47.99913025 C43.42936512 56.70432338 43.47428201 65.40953508 43.51740164 74.11476463 C43.56672377 84.02272301 43.62166047 93.93064773 43.67708123 103.83857358 C43.79099169 124.22568438 43.89781089 144.6128273 44 165 C44.43344727 164.59422729 44.86689453 164.18845459 45.31347656 163.77038574 C47.29169617 161.91917502 49.27083919 160.0689544 51.25 158.21875 C51.93191406 157.5803418 52.61382813 156.94193359 53.31640625 156.28417969 C56.5030881 153.30633378 59.68790606 150.33907962 63 147.5 C67.58267229 143.55770113 71.9569323 139.39130861 76.36669922 135.25830078 C80.69050309 131.21004926 85.05997628 127.22048632 89.4765625 123.2734375 C92.50878121 120.54162436 95.50536647 117.77287299 98.5 115 C102.30979998 111.47298019 106.1333759 107.96489692 110 104.5 C114.31501379 100.63184848 118.58074339 96.71324573 122.83203125 92.77539062 C123.88974405 91.79597604 124.96365955 90.83391359 126.04882812 89.88500977 C128.14878132 87.94057608 128.14878132 87.94057608 130.21679688 85.19116211 C134.6128716 79.94960697 138.49741471 76.87137144 145.46435547 76.11621094 C151.90379578 75.78356519 158.31306364 76.0379365 164.75 76.3125 C167.00769279 76.36775935 169.26551604 76.41793491 171.5234375 76.46289062 C177.01850263 76.58327446 182.50863485 76.76659822 188 77 C184.61203936 81.67249828 181.2018654 86.0449212 177.06640625 90.09375 C175.7215918 91.42212891 175.7215918 91.42212891 174.34960938 92.77734375 C173.42986328 93.67582031 172.51011719 94.57429688 171.5625 95.5 C166.10634074 100.85248839 160.75066705 106.18531224 155.78100586 111.99414062 C151.44778415 116.87443529 146.67666894 121.35771762 142.02734375 125.93359375 C138.39294679 129.53298849 134.82611347 133.12743313 131.5 137.015625 C128.91658849 140.02910385 126.19764347 142.81897618 123.34375 145.578125 C122.5496875 146.34640625 121.755625 147.1146875 120.9375 147.90625 C119.28843897 149.49188561 117.63194932 151.06982565 115.96875 152.640625 C115.185 153.40375 114.40125 154.166875 113.59375 154.953125 C112.87896484 155.63536133 112.16417969 156.31759766 111.42773438 157.02050781 C109.77282618 158.87174117 109.77282618 158.87174117 110.13598633 161.04931641 C111.62922366 164.4205982 113.94692436 167.22464032 116.1875 170.125 C116.72068848 170.82512207 117.25387695 171.52524414 117.80322266 172.24658203 C119.52726307 174.50417074 121.26194463 176.75318681 123 179 C123.84763916 180.09731445 123.84763916 180.09731445 124.71240234 181.21679688 C128.1999087 185.72569431 131.70355561 190.22184049 135.21337891 194.71337891 C143.22877271 204.97194386 151.21160714 215.25347598 159.10571289 225.60571289 C163.04076239 230.76052648 167.01259263 235.88560886 171 241 C175.71063449 247.04488703 180.40207345 253.10379737 185.0625 259.1875 C185.58650391 259.87005859 186.11050781 260.55261719 186.65039062 261.25585938 C196 273.48413244 196 273.48413244 196 275 C189.22468432 275.35734189 182.4518196 275.60104916 175.66918945 275.76904297 C173.36683407 275.83910974 171.06509425 275.93440688 168.76489258 276.05615234 C150.21791669 277.01263777 150.21791669 277.01263777 144.93682861 273.70959473 C141.49902963 270.52919884 139.16586609 266.80049925 136.95303345 262.70367432 C135.69676346 260.45792427 134.14598434 258.57003625 132.46875 256.625 C131.9742334 256.02026855 131.4797168 255.41553711 130.97021484 254.79248047 C130.48504395 254.20096191 129.99987305 253.60944336 129.5 253 C123.11656126 245.17814705 116.87797171 237.24923169 110.66601562 229.29101562 C109.32024669 227.56803846 107.9731449 225.8461187 106.625 224.125 C106.17769531 223.55394531 105.73039062 222.98289062 105.26953125 222.39453125 C101.69167035 217.84365435 98.03966094 213.35610117 94.375 208.875 C89.06500166 202.37985339 83.95964902 195.76665293 79 189 C74.70554982 190.40839495 72.12953521 192.45854776 68.875 195.5625 C64.32659005 199.81094752 59.66125662 203.80630302 54.80078125 207.69921875 C53.87652344 208.45847656 52.95226563 209.21773437 52 210 C51.34384201 210.42433319 50.68768402 210.84866638 50.01164246 211.28585815 C46.55053988 213.76616872 44.34766137 215.65787188 43.2570343 219.86817932 C42.97850645 223.39072573 42.94434168 226.83793044 43 230.37109375 C42.98912354 231.64855972 42.97824707 232.9260257 42.96704102 234.24220276 C42.94534997 237.61855591 42.95779774 240.99120389 42.98712158 244.36724854 C43.00859899 247.81981869 42.98518036 251.27207403 42.96484375 254.72460938 C42.92829208 261.48463761 42.96603323 268.23849062 43 275 C28.81 275 14.62 275 0 275 C0 184.25 0 93.5 0 0 Z " fill="#20708C" transform="translate(2621,121)"/>
<path d="M0 0 C21.33577541 18.75576996 30.65242256 44.12489898 32.7578125 71.89453125 C33.15528379 78.62496075 32.97807932 85.32139777 32 92 C31 93 31 93 28.48749447 93.12304783 C27.36014165 93.12212604 26.23278883 93.12120424 25.0712738 93.12025452 C23.78253357 93.12162918 22.49379333 93.12300385 21.16600037 93.12442017 C19.72451759 93.12088055 18.28303505 93.11724573 16.84155273 93.11352539 C15.33403526 93.11324353 13.82651764 93.11340123 12.31900024 93.1139679 C8.21380656 93.11425591 4.10864185 93.10835861 0.00345492 93.10139394 C-4.2820326 93.09516099 -8.56752072 93.09455665 -12.85301208 93.09336853 C-20.97386652 93.09025504 -29.09470756 93.08204141 -37.21555609 93.07201904 C-46.45844874 93.06085845 -55.70134202 93.05534759 -64.94423974 93.05032361 C-83.9628341 93.03985881 -102.98141597 93.02225903 -122 93 C-121.37321529 95.09097898 -120.74209268 97.18065799 -120.10913086 99.26977539 C-119.75813828 100.43360245 -119.40714569 101.5974295 -119.04551697 102.79652405 C-117.87371339 106.38694363 -116.53306063 109.22908141 -114.5625 112.4375 C-114.00691406 113.36433594 -113.45132812 114.29117188 -112.87890625 115.24609375 C-104.33035055 127.77568163 -91.33156712 135.37639092 -76.8125 139.25 C-56.64161768 143.03659163 -35.04165873 141.26781985 -17.66357422 129.66601562 C-15.05950908 127.84080061 -12.52506615 125.93255404 -10 124 C-9.14792969 123.36964844 -8.29585937 122.73929688 -7.41796875 122.08984375 C-5.59891444 120.74227812 -3.79619208 119.3776736 -2 118 C-1.23816406 118.89460937 -0.47632813 119.78921875 0.30859375 120.7109375 C1.35137239 121.93245399 2.39435554 123.1537959 3.4375 124.375 C4.24924683 125.32705322 4.24924683 125.32705322 5.07739258 126.29833984 C9.05783745 130.94913222 13.14555942 135.46900509 17.35546875 139.9140625 C19.08101089 142.1027549 19.6781845 143.26068312 20 146 C18.05578799 148.46635426 16.18418622 150.5249081 13.9375 152.6875 C13.30062256 153.30818359 12.66374512 153.92886719 12.00756836 154.56835938 C-7.38258093 172.94927609 -33.61989709 180.46153512 -60 180 C-90.6950632 178.8751064 -119.4297163 169.75175464 -141 147 C-144.22850424 143.14216768 -147.1669247 139.15517711 -150 135 C-150.55429688 134.20078125 -151.10859375 133.4015625 -151.6796875 132.578125 C-166.5629838 109.59769859 -169.09335119 79.13213452 -163.54345703 52.83691406 C-157.6735899 28.10565831 -143.07313195 5.54027535 -121.28466797 -7.97802734 C-83.52539271 -30.44266899 -34.05364385 -28.82529907 0 0 Z M-110.02734375 32.4375 C-117.11602963 41.73067479 -120.70034717 49.3031245 -122 61 C-84.71 61 -47.42 61 -9 61 C-13.28130709 43.87477163 -19.15025508 31.55654116 -34.1875 21.5625 C-57.7513614 8.17206768 -92.03063467 10.79983821 -110.02734375 32.4375 Z " fill="#2637A7" transform="translate(1735,219)"/>
<path d="M0 0 C2.50128931 2.19188989 4.88846245 4.45196473 7.24609375 6.796875 C7.7978125 7.31378906 8.34953125 7.83070313 8.91796875 8.36328125 C17.26245695 16.95451507 22.25491254 30.22827673 24.24609375 41.796875 C24.41850082 42.73841934 24.5909079 43.67996368 24.76853943 44.65003967 C25.57018542 50.36417822 25.37647711 56.13512326 25.35961914 61.89233398 C25.35976517 63.20033463 25.35991119 64.50833527 25.36006165 65.85597229 C25.36034746 69.42570576 25.35448566 72.99540533 25.34748769 76.56513095 C25.34121818 80.30205025 25.34064751 84.03897041 25.33946228 87.77589417 C25.33635955 94.84469558 25.32816046 101.91348144 25.31811279 108.98227602 C25.30691875 117.033069 25.30143292 125.08386273 25.29641736 133.13466156 C25.28597693 149.68874323 25.26764465 166.2428035 25.24609375 182.796875 C12.04609375 182.796875 -1.15390625 182.796875 -14.75390625 182.796875 C-15.08390625 177.186875 -15.41390625 171.576875 -15.75390625 165.796875 C-16.74390625 166.786875 -17.73390625 167.776875 -18.75390625 168.796875 C-35.54845587 183.32268722 -59.01350498 186.77100834 -80.51171875 185.578125 C-101.13850821 184.03127299 -120.41511573 177.80672255 -134.98046875 162.44921875 C-144.16785981 151.59295703 -149.61050736 137.43682094 -148.97265625 123.05859375 C-147.39470594 106.74371461 -141.95215967 92.35674995 -129.15234375 81.640625 C-106.62718038 64.32486423 -78.40638228 65.35391032 -51.45928955 65.59088135 C-47.53671166 65.62201047 -43.61407302 65.63536458 -39.69140625 65.65039062 C-32.04541057 65.68221041 -24.39970992 65.73315917 -16.75390625 65.796875 C-17.18792779 62.7690985 -17.63357234 59.74379417 -18.0859375 56.71875 C-18.26678894 55.44427002 -18.26678894 55.44427002 -18.45129395 54.14404297 C-19.97258431 44.11174972 -23.39302357 35.62056375 -31.62109375 29.19140625 C-46.5831466 19.40852554 -67.09802637 19.71077361 -84.11914062 22.87597656 C-96.75814108 25.65655666 -108.30960785 31.18170588 -119.51953125 37.53515625 C-121.56955609 38.69277517 -123.64472417 39.7525254 -125.75390625 40.796875 C-130.0580373 34.52097115 -134.02679802 28.11862764 -137.75390625 21.484375 C-138.26824219 20.60458984 -138.78257812 19.72480469 -139.3125 18.81835938 C-140.02599609 17.54508789 -140.02599609 17.54508789 -140.75390625 16.24609375 C-141.18703125 15.48643311 -141.62015625 14.72677246 -142.06640625 13.9440918 C-142.75390625 11.796875 -142.75390625 11.796875 -142.00634766 9.63500977 C-131.84846638 -5.27311658 -105.95872245 -11.79431262 -89.31640625 -14.953125 C-59.77730856 -20.25106536 -24.49364887 -19.5949191 0 0 Z M-98.84765625 105.66015625 C-105.1434491 112.51070134 -106.23191942 118.12678522 -106.05859375 127.3515625 C-105.46463739 134.06783828 -102.92158865 137.93852654 -98.12890625 142.546875 C-86.61667545 151.97184152 -71.86951612 151.73216805 -57.75390625 150.796875 C-42.01024803 148.80971189 -29.87095664 140.56250135 -19.75390625 128.796875 C-16.99755377 124.9279539 -16.39104899 122.35021636 -16.4609375 117.62109375 C-16.47060547 116.46416016 -16.48027344 115.30722656 -16.49023438 114.11523438 C-16.51537109 112.91705078 -16.54050781 111.71886719 -16.56640625 110.484375 C-16.57994141 109.26685547 -16.59347656 108.04933594 -16.60742188 106.79492188 C-16.64271364 103.79512155 -16.69202144 100.79622525 -16.75390625 97.796875 C-24.31206328 97.74568441 -31.87017474 97.71093794 -39.4284668 97.68701172 C-41.99358796 97.67702506 -44.55869795 97.66343108 -47.1237793 97.64599609 C-74.41341785 95.9928965 -74.41341785 95.9928965 -98.84765625 105.66015625 Z " fill="#1D5995" transform="translate(2324.75390625,213.203125)"/>
<path d="M0 0 C72.6 0 145.2 0 220 0 C220 12.87 220 25.74 220 39 C190.96 39 161.92 39 132 39 C132 113.25 132 187.5 132 264 C117.48 264 102.96 264 88 264 C88 189.75 88 115.5 88 39 C58.96 39 29.92 39 0 39 C0 26.13 0 13.26 0 0 Z " fill="#FEFEFE" transform="translate(36,132)"/>
<path d="M0 0 C71.28 0 142.56 0 216 0 C216 12.87 216 25.74 216 39 C187.62 39 159.24 39 130 39 C130 111.6 130 184.2 130 259 C115.48 259 100.96 259 86 259 C86 186.4 86 113.8 86 39 C57.62 39 29.24 39 0 39 C0 26.13 0 13.26 0 0 Z " fill="#723ABB" transform="translate(632,137)"/>
<path d="M0 0 C8.01501054 6.99337035 17.54925308 15.6575184 21.32421875 25.87109375 C20.07581907 29.47817959 18.27776072 30.83192256 15.03515625 32.7109375 C13.74544922 33.46987305 13.74544922 33.46987305 12.4296875 34.24414062 C11.52863281 34.76041016 10.62757813 35.27667969 9.69921875 35.80859375 C7.93581821 36.83789142 6.17279278 37.86783204 4.41015625 38.8984375 C3.55260742 39.39069824 2.69505859 39.88295898 1.81152344 40.39013672 C-1.19394364 42.17961093 -4.05903062 44.14612261 -6.89990234 46.18579102 C-8.67578125 46.87109375 -8.67578125 46.87109375 -10.79833984 46.10205078 C-12.95248922 44.68966831 -14.30633272 43.18432021 -15.92578125 41.18359375 C-26.1703709 29.20630395 -38.75900629 22.14157617 -54.64941406 20.69091797 C-72.16917477 19.53535928 -88.42120348 23.54451321 -101.92578125 35.18359375 C-115.42188413 48.01665513 -120.64574345 62.4884493 -121.63671875 80.83984375 C-122.06479231 99.56578484 -116.03831789 115.84154034 -103.87890625 129.95703125 C-91.90488855 141.66613705 -74.84667717 145.7106682 -58.67578125 145.87109375 C-41.74116366 144.88567419 -27.43264166 138.56430519 -16.08203125 126 C-14.20336759 123.66820796 -12.39959916 121.31881102 -10.67578125 118.87109375 C-6.65962339 120.3389281 -3.17870177 122.2648527 0.46484375 124.49609375 C1.03249451 124.84365723 1.60014526 125.1912207 2.18499756 125.54931641 C3.37616196 126.28027032 4.5661072 127.01321437 5.75488281 127.74804688 C7.5786826 128.87384921 9.40817417 129.98995624 11.23828125 131.10546875 C12.39749012 131.81843403 13.5563567 132.5319562 14.71484375 133.24609375 C15.76704102 133.89320313 16.81923828 134.5403125 17.90332031 135.20703125 C20.32421875 136.87109375 20.32421875 136.87109375 21.32421875 138.87109375 C12.87241021 158.23456555 -4.51675226 171.3427637 -23.67578125 178.87109375 C-51.63234142 188.77603855 -83.92239258 186.327698 -110.67578125 173.87109375 C-121.05761802 168.71254577 -129.56002753 162.09209499 -137.67578125 153.87109375 C-138.48789063 153.05769531 -139.3 152.24429688 -140.13671875 151.40625 C-158.59499467 131.97151238 -166.10409719 106.18575448 -165.67578125 79.87109375 C-164.67492507 51.7845672 -154.0493956 27.18260177 -133.75390625 7.5390625 C-99.44444796 -23.18431545 -37.09629871 -29.51457343 0 0 Z " fill="#1F6790" transform="translate(2558.67578125,214.12890625)"/>
<path d="M0 0 C14.19 0 28.38 0 43 0 C45.413125 5.836875 47.82625 11.67375 50.3125 17.6875 C56.97079925 33.76628071 63.70332935 49.8122474 70.48754883 65.83825684 C77.83369033 83.19490028 85.09664024 100.58547073 92.32739258 117.99047852 C96.49516865 128.0185331 100.68746843 138.03318944 105 148 C108.52478719 141.146524 111.71550142 134.20866746 114.7109375 127.109375 C115.15193787 126.07149841 115.59293823 125.03362183 116.04730225 123.96429443 C117.4927548 120.56074656 118.93382717 117.15536197 120.375 113.75 C121.39272158 111.35206716 122.41079403 108.95428321 123.42919922 106.55664062 C125.55133247 101.55989187 127.67173758 96.56241347 129.79101562 91.56445312 C134.89101803 79.53815278 140.00742904 67.5188331 145.125 55.5 C145.60621307 54.36951233 146.08742615 53.23902466 146.58322144 52.07427979 C153.98613004 34.68540679 161.45419848 17.32739608 169 0 C182.53 0 196.06 0 210 0 C204.55736491 13.81347151 198.83415364 27.46545712 192.88406372 41.06704712 C190.33930371 46.88631806 187.80603108 52.7105821 185.2734375 58.53515625 C184.7515535 59.73530869 184.22966949 60.93546112 183.69197083 62.17198181 C178.2539778 74.69268169 172.90080026 87.24903873 167.5625 99.8125 C165.66940035 104.26698214 163.77621727 108.72142879 161.8828125 113.17578125 C161.40962585 114.28906799 160.93643921 115.40235474 160.44891357 116.54937744 C154.639043 130.21125623 148.78871169 143.85579019 142.9375 157.5 C142.17289963 159.28309067 142.17289963 159.28309067 141.39285278 161.10220337 C137.36834429 170.48710827 137.36834429 170.48710827 135.66816711 174.44657898 C133.77904176 178.84657025 131.89221076 183.24736357 130.02392578 187.65625 C129.59751549 188.66020813 129.59751549 188.66020813 129.16249084 189.68444824 C128.44833505 191.36761582 127.73684116 193.05191219 127.02563477 194.73632812 C126 197 126 197 125 198 C121.97022196 198.08871273 118.96332978 198.1151935 115.93359375 198.09765625 C115.02497086 198.0962413 114.11634796 198.09482635 113.18019104 198.09336853 C110.26592779 198.08775193 107.35174019 198.07519665 104.4375 198.0625 C102.46679798 198.05748714 100.49609476 198.05292386 98.52539062 198.04882812 C93.68356441 198.03777711 88.84179505 198.02050138 84 198 C74.57059296 177.2087168 65.66341792 156.19864582 56.73522949 135.18869019 C56.22834595 133.99591461 55.7214624 132.80313904 55.19921875 131.57421875 C54.68782349 130.37072784 54.17642822 129.16723694 53.64953613 127.92727661 C48.6382851 116.13914782 43.59748192 104.36376833 38.54898071 92.59155273 C37.06673956 89.13488687 35.58540785 85.67783246 34.10424805 82.22070312 C29.38269534 71.20305213 24.65294892 60.18903824 19.9052887 49.18261719 C17.93526267 44.6152396 15.96840668 40.04649899 14.00231075 35.47742844 C12.65708061 32.35188223 11.30998799 29.22716655 9.95852661 26.10430908 C8.46931615 22.66123372 6.98599298 19.21567775 5.50390625 15.76953125 C5.0603479 14.74832687 4.61678955 13.7271225 4.15979004 12.67497253 C3.75587036 11.73269302 3.35195068 10.79041351 2.93579102 9.81958008 C2.58404312 9.00475662 2.23229523 8.18993317 1.86988831 7.35041809 C1 5 1 5 0 0 Z " fill="#3033AB" transform="translate(1348,198)"/>
<path d="M0 0 C14.19 0 28.38 0 43 0 C43 13.86 43 27.72 43 42 C61.15 42 79.3 42 98 42 C98.0309375 50.6315625 98.0309375 50.6315625 98.0625 59.4375 C98.071604 61.25564209 98.08070801 63.07378418 98.09008789 64.94702148 C98.09300711 66.38004482 98.09555566 67.81306898 98.09765625 69.24609375 C98.10277222 69.99669067 98.10788818 70.7472876 98.11315918 71.52062988 C98.11346992 73.34747601 98.06231113 75.17421683 98 77 C97 78 97 78 94.82969666 78.12025452 C93.87261307 78.11803391 92.91552948 78.11581329 91.92944336 78.11352539 C90.84839828 78.11344986 89.76735321 78.11337433 88.65354919 78.11329651 C86.889515 78.10555458 86.889515 78.10555458 85.08984375 78.09765625 C83.89267227 78.0962413 82.69550079 78.09482635 81.46205139 78.09336853 C77.62050934 78.08774979 73.77902457 78.07519411 69.9375 78.0625 C67.34049563 78.05748741 64.74349035 78.05292409 62.14648438 78.04882812 C55.76430321 78.03777427 49.3821557 78.02101792 43 78 C43.03726489 91.90890246 43.09752928 105.81754485 43.18390274 119.72623253 C43.22334891 126.18517421 43.25555166 132.64398013 43.27099609 139.10302734 C43.28618115 145.34072177 43.32066051 151.57804289 43.36830902 157.81557083 C43.38310358 160.19086073 43.3910399 162.56620394 43.39188385 164.94153976 C43.39426094 168.2783221 43.42140225 171.61407902 43.45410156 174.95068359 C43.4490712 175.9246106 43.44404083 176.8985376 43.43885803 177.90197754 C43.55839271 185.82760697 45.32930109 192.69676714 50.375 198.9375 C57.70721104 204.69852296 65.53024295 205.59577619 74.71484375 204.75 C81.86967518 203.48405826 88.94363983 201.03757344 95 197 C95.99 197 96.98 197 98 197 C99.74218769 200.76528745 101.46898182 204.53721454 103.18188477 208.31591797 C103.76657131 209.60005626 104.35541055 210.88231228 104.94848633 212.16259766 C105.80090817 214.00462909 106.63810286 215.85294225 107.47265625 217.703125 C107.98062744 218.81333008 108.48859863 219.92353516 109.01196289 221.06738281 C110.01329486 224.03946081 110.25105677 225.17869835 109 228 C101.04588509 236.44534291 89.26410718 240.54443255 78 242 C76.48212891 242.20109375 76.48212891 242.20109375 74.93359375 242.40625 C54.81449914 244.45779151 34.51314589 240.9452272 18.4921875 227.96875 C6.34044077 216.59965815 0.5079569 201.01060726 -0.08940315 184.53405762 C-0.12239068 181.71751221 -0.12374974 178.90265881 -0.11352539 176.0859375 C-0.11367142 175.0216301 -0.11381744 173.95732269 -0.1139679 172.86076355 C-0.11327482 169.36548783 -0.10551087 165.87026633 -0.09765625 162.375 C-0.09578992 159.94262725 -0.09436703 157.51025412 -0.09336853 155.07788086 C-0.0895603 148.69271802 -0.07974452 142.30757812 -0.06866455 135.92242432 C-0.05841397 129.40010895 -0.0538631 122.87778986 -0.04882812 116.35546875 C-0.03812068 103.57030083 -0.02053764 90.78515592 0 78 C-10.56 78 -21.12 78 -32 78 C-32 66.12 -32 54.24 -32 42 C-21.44 42 -10.88 42 0 42 C0 28.14 0 14.28 0 0 Z " fill="#21469F" transform="translate(2044,156)"/>
<path d="M0 0 C0 13.53 0 27.06 0 41 C-3.3 41.0825 -6.6 41.165 -10 41.25 C-23.84389957 41.79279743 -36.52478858 43.60833867 -48 52 C-49.051875 52.7425 -50.10375 53.485 -51.1875 54.25 C-61.65856927 64.48837885 -66.86191986 78.38055443 -67.15821838 92.97348022 C-67.17877422 94.96974351 -67.19412043 96.96606465 -67.20532227 98.96240234 C-67.21522186 100.05567841 -67.22512146 101.14895447 -67.23532104 102.27536011 C-67.26683733 105.87886409 -67.29165446 109.48238124 -67.31640625 113.0859375 C-67.3369843 115.5884332 -67.35798099 118.09092549 -67.37937927 120.59341431 C-67.42888086 126.50057415 -67.47416885 132.40775672 -67.51740164 138.31496489 C-67.5717351 145.70350177 -67.63263548 153.0919821 -67.69335938 160.48046875 C-67.80083339 173.65360898 -67.90180554 186.82678733 -68 200 C-82.19 200 -96.38 200 -111 200 C-111 134.66 -111 69.32 -111 2 C-97.47 2 -83.94 2 -70 2 C-69.67 9.26 -69.34 16.52 -69 24 C-65.72661361 20.73228496 -65.72661361 20.73228496 -62.47265625 17.4453125 C-46.09935263 2.11518335 -21.12023095 0 0 0 Z " fill="#4735B1" transform="translate(1239,196)"/>
<path d="M0 0 C14.19 0 28.38 0 43 0 C43 65.34 43 130.68 43 198 C28.81 198 14.62 198 0 198 C0 132.66 0 67.32 0 0 Z " fill="#3935AE" transform="translate(1279,198)"/>
<path d="M0 0 C6.5796163 4.6337039 10.12284657 9.70559154 11.80078125 17.67578125 C12.44441827 24.49833363 11.13382285 31.24102556 7.25390625 36.953125 C1.62304747 43.64288421 -4.42146712 47.96691548 -13.328125 48.8984375 C-21.46092441 49.22374948 -28.8831104 46.86902589 -35.19921875 41.67578125 C-41.49612613 34.48794453 -43.75486207 28.6386834 -43.5703125 19.03125 C-42.78110979 11.89519602 -39.58111659 6.65463938 -34.44921875 1.73828125 C-24.3525218 -6.27857176 -10.95270153 -6.59496593 0 0 Z " fill="#6A3AB9" transform="translate(1316.19921875,120.32421875)"/>
</svg>
